<?xml version="1.0" encoding="UTF-8" standalone="no"?><svg xmlns="http://www.w3.org/2000/svg" xmlns:xlink="http://www.w3.org/1999/xlink" contentScriptType="application/ecmascript" contentStyleType="text/css" height="267px" preserveAspectRatio="none" style="width:688px;height:267px;background:#FFFFFF;" version="1.1" viewBox="0 0 688 267" width="688px" zoomAndPan="magnify"><defs><filter height="300%" id="f1jrqv9g9eoz43" width="300%" x="-1" y="-1"><feGaussianBlur result="blurOut" stdDeviation="2.0"/><feColorMatrix in="blurOut" result="blurOut2" type="matrix" values="0 0 0 0 0 0 0 0 0 0 0 0 0 0 0 0 0 0 .4 0"/><feOffset dx="4.0" dy="4.0" in="blurOut2" result="blurOut3"/><feBlend in="SourceGraphic" in2="blurOut3" mode="normal"/></filter></defs><g><!--MD5=[cf4d6237fcae255cd2e1656cf84a30e2]
class Order--><rect codeLine="1" fill="#FEFECE" filter="url(#f1jrqv9g9eoz43)" height="73.6094" id="Order" style="stroke:#A80036;stroke-width:1.5;" width="204" x="82" y="7"/><ellipse cx="162.75" cy="23" fill="#A9DCDF" rx="11" ry="11" style="stroke:#A80036;stroke-width:1.0;"/><path d="M164.8281,24.8125 L165.2188,25.7969 L164.8281,25.7969 C164.375,25.7969 164.2656,25.8125 164.1094,25.9219 C163.8594,26.0781 163.7031,26.3594 163.7031,26.6563 C163.7031,26.9219 163.8438,27.1719 164.0625,27.3281 C164.2031,27.4531 164.4063,27.5 164.8281,27.5 L167.1875,27.5 C167.5469,27.5 167.7656,27.4688 167.9063,27.375 C168.1563,27.2344 168.3125,26.9375 168.3125,26.6563 C168.3125,26.375 168.1719,26.125 167.9531,25.9688 C167.7813,25.8281 167.625,25.7969 167.1563,25.7969 L163.7656,17.5938 L160.0938,17.5938 C159.6406,17.5938 159.5156,17.6094 159.3594,17.7031 C159.1094,17.875 158.9531,18.1563 158.9531,18.4375 C158.9531,18.7188 159.0938,18.9688 159.3125,19.1406 C159.4844,19.25 159.6563,19.2813 160.0938,19.2813 L161.1719,19.2813 L158.5313,25.7969 C158.1094,25.7969 157.9531,25.8125 157.7969,25.9219 C157.5469,26.0781 157.3906,26.3594 157.3906,26.6563 C157.3906,27.2188 157.7656,27.5 158.5156,27.5 L160.7813,27.5 C161.1406,27.5 161.3594,27.4688 161.4844,27.375 C161.75,27.2344 161.8906,26.9375 161.8906,26.6563 C161.8906,26.375 161.7656,26.125 161.5469,25.9531 C161.375,25.8281 161.2344,25.7969 160.7813,25.7969 L160.3906,25.7969 L160.7813,24.8125 L164.8281,24.8125 Z M164.125,23.1094 L161.4531,23.1094 L162.7969,19.8438 L164.125,23.1094 Z " fill="#000000"/><text fill="#000000" font-family="sans-serif" font-size="12" font-style="italic" lengthAdjust="spacing" textLength="34" x="183.25" y="27.1543">Order</text><line style="stroke:#A80036;stroke-width:1.5;" x1="83" x2="285" y1="39" y2="39"/><line style="stroke:#A80036;stroke-width:1.5;" x1="83" x2="285" y1="47" y2="47"/><ellipse cx="93" cy="58" fill="#84BE84" rx="3" ry="3" style="stroke:#038048;stroke-width:1.0;"/><text fill="#000000" font-family="sans-serif" font-size="11" lengthAdjust="spacing" textLength="176" x="102" y="61.2104">static send(LoadScene, Player)</text><ellipse cx="93" cy="70.8047" fill="#84BE84" rx="3" ry="3" style="stroke:#038048;stroke-width:1.0;"/><text fill="#000000" font-family="sans-serif" font-size="11" lengthAdjust="spacing" textLength="178" x="102" y="74.0151">static send(GameState, Player)</text><!--MD5=[d4d6df13bc41ce2b2b24d2334a2e0e0d]
class OrderReply--><rect codeLine="5" fill="#FEFECE" filter="url(#f1jrqv9g9eoz43)" height="73.6094" id="OrderReply" style="stroke:#A80036;stroke-width:1.5;" width="125" x="321.5" y="7"/><ellipse cx="347.3" cy="23" fill="#ADD1B2" rx="11" ry="11" style="stroke:#A80036;stroke-width:1.0;"/><path d="M349.6438,18.6719 C348.7063,18.2344 348.1125,18.0938 347.2375,18.0938 C344.6125,18.0938 342.6125,20.1719 342.6125,22.8906 L342.6125,24.0156 C342.6125,26.5938 344.7219,28.4844 347.6125,28.4844 C348.8313,28.4844 349.9875,28.1875 350.7375,27.6406 C351.3156,27.2344 351.6438,26.7813 351.6438,26.3906 C351.6438,25.9375 351.2531,25.5469 350.7844,25.5469 C350.5656,25.5469 350.3625,25.625 350.175,25.8125 C349.7219,26.2969 349.7219,26.2969 349.5344,26.3906 C349.1125,26.6563 348.425,26.7813 347.6594,26.7813 C345.6125,26.7813 344.3156,25.6875 344.3156,23.9844 L344.3156,22.8906 C344.3156,21.1094 345.5656,19.7969 347.3,19.7969 C347.8781,19.7969 348.4875,19.9531 348.9563,20.2031 C349.4406,20.4844 349.6125,20.7031 349.7063,21.1094 C349.7688,21.5156 349.8,21.6406 349.9406,21.7656 C350.0813,21.9063 350.3156,22.0156 350.5344,22.0156 C350.8,22.0156 351.0656,21.875 351.2375,21.6563 C351.3469,21.5 351.3781,21.3125 351.3781,20.8906 L351.3781,19.4688 C351.3781,19.0313 351.3625,18.9063 351.2688,18.75 C351.1125,18.4844 350.8313,18.3438 350.5344,18.3438 C350.2375,18.3438 350.0344,18.4375 349.8156,18.75 L349.6438,18.6719 Z " fill="#000000"/><text fill="#000000" font-family="sans-serif" font-size="12" lengthAdjust="spacing" textLength="69" x="363.7" y="27.1543">OrderReply</text><line style="stroke:#A80036;stroke-width:1.5;" x1="322.5" x2="445.5" y1="39" y2="39"/><rect fill="none" height="6" style="stroke:#C82930;stroke-width:1.0;" width="6" x="329.5" y="47"/><text fill="#000000" font-family="sans-serif" font-size="11" lengthAdjust="spacing" textLength="99" x="341.5" y="53.2104">replyingTo: Order</text><rect fill="none" height="6" style="stroke:#C82930;stroke-width:1.0;" width="6" x="329.5" y="59.8047"/><text fill="#000000" font-family="sans-serif" font-size="11" lengthAdjust="spacing" textLength="69" x="341.5" y="66.0151">data: Object</text><line style="stroke:#A80036;stroke-width:1.5;" x1="322.5" x2="445.5" y1="72.6094" y2="72.6094"/><!--MD5=[89427f9de3fe898716c1c610357f61ab]
class ParseOrderReply--><rect codeLine="9" fill="#FEFECE" filter="url(#f1jrqv9g9eoz43)" height="60.8047" id="ParseOrderReply" style="stroke:#A80036;stroke-width:1.5;" width="193" x="481.5" y="13.5"/><ellipse cx="523.05" cy="29.5" fill="#ADD1B2" rx="11" ry="11" style="stroke:#A80036;stroke-width:1.0;"/><path d="M525.3938,25.1719 C524.4563,24.7344 523.8625,24.5938 522.9875,24.5938 C520.3625,24.5938 518.3625,26.6719 518.3625,29.3906 L518.3625,30.5156 C518.3625,33.0938 520.4719,34.9844 523.3625,34.9844 C524.5813,34.9844 525.7375,34.6875 526.4875,34.1406 C527.0656,33.7344 527.3938,33.2813 527.3938,32.8906 C527.3938,32.4375 527.0031,32.0469 526.5344,32.0469 C526.3156,32.0469 526.1125,32.125 525.925,32.3125 C525.4719,32.7969 525.4719,32.7969 525.2844,32.8906 C524.8625,33.1563 524.175,33.2813 523.4094,33.2813 C521.3625,33.2813 520.0656,32.1875 520.0656,30.4844 L520.0656,29.3906 C520.0656,27.6094 521.3156,26.2969 523.05,26.2969 C523.6281,26.2969 524.2375,26.4531 524.7063,26.7031 C525.1906,26.9844 525.3625,27.2031 525.4563,27.6094 C525.5188,28.0156 525.55,28.1406 525.6906,28.2656 C525.8313,28.4063 526.0656,28.5156 526.2844,28.5156 C526.55,28.5156 526.8156,28.375 526.9875,28.1563 C527.0969,28 527.1281,27.8125 527.1281,27.3906 L527.1281,25.9688 C527.1281,25.5313 527.1125,25.4063 527.0188,25.25 C526.8625,24.9844 526.5813,24.8438 526.2844,24.8438 C525.9875,24.8438 525.7844,24.9375 525.5656,25.25 L525.3938,25.1719 Z " fill="#000000"/><text fill="#000000" font-family="sans-serif" font-size="12" lengthAdjust="spacing" textLength="102" x="542.95" y="33.6543">ParseOrderReply</text><line style="stroke:#A80036;stroke-width:1.5;" x1="482.5" x2="673.5" y1="45.5" y2="45.5"/><line style="stroke:#A80036;stroke-width:1.5;" x1="482.5" x2="673.5" y1="53.5" y2="53.5"/><ellipse cx="492.5" cy="64.5" fill="#84BE84" rx="3" ry="3" style="stroke:#038048;stroke-width:1.0;"/><text fill="#000000" font-family="sans-serif" font-size="11" lengthAdjust="spacing" textLength="167" x="501.5" y="67.7104">ParseOrderReply(OrderReply)</text><!--MD5=[f3fd2181b0c28e3ad6671cc6577ed764]
class LoadScene--><rect codeLine="12" fill="#FEFECE" filter="url(#f1jrqv9g9eoz43)" height="112.0234" id="LoadScene" style="stroke:#A80036;stroke-width:1.5;" width="178" x="7" y="141"/><ellipse cx="58.25" cy="157" fill="#ADD1B2" rx="11" ry="11" style="stroke:#A80036;stroke-width:1.0;"/><path d="M60.5938,152.6719 C59.6563,152.2344 59.0625,152.0938 58.1875,152.0938 C55.5625,152.0938 53.5625,154.1719 53.5625,156.8906 L53.5625,158.0156 C53.5625,160.5938 55.6719,162.4844 58.5625,162.4844 C59.7813,162.4844 60.9375,162.1875 61.6875,161.6406 C62.2656,161.2344 62.5938,160.7813 62.5938,160.3906 C62.5938,159.9375 62.2031,159.5469 61.7344,159.5469 C61.5156,159.5469 61.3125,159.625 61.125,159.8125 C60.6719,160.2969 60.6719,160.2969 60.4844,160.3906 C60.0625,160.6563 59.375,160.7813 58.6094,160.7813 C56.5625,160.7813 55.2656,159.6875 55.2656,157.9844 L55.2656,156.8906 C55.2656,155.1094 56.5156,153.7969 58.25,153.7969 C58.8281,153.7969 59.4375,153.9531 59.9063,154.2031 C60.3906,154.4844 60.5625,154.7031 60.6563,155.1094 C60.7188,155.5156 60.75,155.6406 60.8906,155.7656 C61.0313,155.9063 61.2656,156.0156 61.4844,156.0156 C61.75,156.0156 62.0156,155.875 62.1875,155.6563 C62.2969,155.5 62.3281,155.3125 62.3281,154.8906 L62.3281,153.4688 C62.3281,153.0313 62.3125,152.9063 62.2188,152.75 C62.0625,152.4844 61.7813,152.3438 61.4844,152.3438 C61.1875,152.3438 60.9844,152.4375 60.7656,152.75 L60.5938,152.6719 Z " fill="#000000"/><text fill="#000000" font-family="sans-serif" font-size="12" lengthAdjust="spacing" textLength="67" x="78.75" y="161.1543">LoadScene</text><line style="stroke:#A80036;stroke-width:1.5;" x1="8" x2="184" y1="173" y2="173"/><rect fill="none" height="6" style="stroke:#C82930;stroke-width:1.0;" width="6" x="15" y="181"/><text fill="#000000" font-family="sans-serif" font-size="11" lengthAdjust="spacing" textLength="152" x="27" y="187.2104">MATCHMAKING_SCENE = 1</text><rect fill="none" height="6" style="stroke:#C82930;stroke-width:1.0;" width="6" x="15" y="193.8047"/><text fill="#000000" font-family="sans-serif" font-size="11" lengthAdjust="spacing" textLength="74" x="27" y="200.0151">LOAD_IMAGE</text><rect fill="none" height="6" style="stroke:#C82930;stroke-width:1.0;" width="6" x="15" y="206.6094"/><text fill="#000000" font-family="sans-serif" font-size="11" lengthAdjust="spacing" textLength="101" x="27" y="212.8198">GAME_SCENE = 2</text><rect fill="none" height="6" style="stroke:#C82930;stroke-width:1.0;" width="6" x="15" y="219.4141"/><text fill="#000000" font-family="sans-serif" font-size="11" lengthAdjust="spacing" textLength="112" x="27" y="225.6245">WINNER_SCENE = 3</text><rect fill="none" height="6" style="stroke:#C82930;stroke-width:1.0;" width="6" x="15" y="232.2188"/><text fill="#000000" font-family="sans-serif" font-size="11" lengthAdjust="spacing" textLength="105" x="27" y="238.4292">LOSER_SCENE = 4</text><line style="stroke:#A80036;stroke-width:1.5;" x1="8" x2="184" y1="245.0234" y2="245.0234"/><!--MD5=[c719a77c542a09de3463e0c7b48c79ef]
class GameStates--><rect fill="#FEFECE" filter="url(#f1jrqv9g9eoz43)" height="48" id="GameStates" style="stroke:#A80036;stroke-width:1.5;" width="105" x="220.5" y="173"/><ellipse cx="235.5" cy="189" fill="#ADD1B2" rx="11" ry="11" style="stroke:#A80036;stroke-width:1.0;"/><path d="M237.8438,184.6719 C236.9063,184.2344 236.3125,184.0938 235.4375,184.0938 C232.8125,184.0938 230.8125,186.1719 230.8125,188.8906 L230.8125,190.0156 C230.8125,192.5938 232.9219,194.4844 235.8125,194.4844 C237.0313,194.4844 238.1875,194.1875 238.9375,193.6406 C239.5156,193.2344 239.8438,192.7813 239.8438,192.3906 C239.8438,191.9375 239.4531,191.5469 238.9844,191.5469 C238.7656,191.5469 238.5625,191.625 238.375,191.8125 C237.9219,192.2969 237.9219,192.2969 237.7344,192.3906 C237.3125,192.6563 236.625,192.7813 235.8594,192.7813 C233.8125,192.7813 232.5156,191.6875 232.5156,189.9844 L232.5156,188.8906 C232.5156,187.1094 233.7656,185.7969 235.5,185.7969 C236.0781,185.7969 236.6875,185.9531 237.1563,186.2031 C237.6406,186.4844 237.8125,186.7031 237.9063,187.1094 C237.9688,187.5156 238,187.6406 238.1406,187.7656 C238.2813,187.9063 238.5156,188.0156 238.7344,188.0156 C239,188.0156 239.2656,187.875 239.4375,187.6563 C239.5469,187.5 239.5781,187.3125 239.5781,186.8906 L239.5781,185.4688 C239.5781,185.0313 239.5625,184.9063 239.4688,184.75 C239.3125,184.4844 239.0313,184.3438 238.7344,184.3438 C238.4375,184.3438 238.2344,184.4375 238.0156,184.75 L237.8438,184.6719 Z " fill="#000000"/><text fill="#000000" font-family="sans-serif" font-size="12" lengthAdjust="spacing" textLength="73" x="249.5" y="193.1543">GameStates</text><line style="stroke:#A80036;stroke-width:1.5;" x1="221.5" x2="324.5" y1="205" y2="205"/><line style="stroke:#A80036;stroke-width:1.5;" x1="221.5" x2="324.5" y1="213" y2="213"/><!--MD5=[1b3042dd174f65ca3366bb1ec96a0576]
reverse link Order to LoadScene--><path codeLine="21" d="M152.832,98.482 C144.806,112.253 136.156,127.096 128.085,140.946 " fill="none" id="Order-backto-LoadScene" style="stroke:#A80036;stroke-width:1.0;"/><polygon fill="none" points="146.804,94.923,162.922,81.168,158.899,101.973,146.804,94.923" style="stroke:#A80036;stroke-width:1.0;"/><!--MD5=[38288ce130feece4d8ea984acba42881]
reverse link Order to GameStates--><path codeLine="22" d="M215.512,98.464 C230.522,123.93 247.692,153.0624 259.331,172.808 " fill="none" id="Order-backto-GameStates" style="stroke:#A80036;stroke-width:1.0;"/><polygon fill="none" points="209.443,101.953,205.318,81.168,221.504,94.844,209.443,101.953" style="stroke:#A80036;stroke-width:1.0;"/><!--MD5=[1f5e16baaeab9889402c051e02621742]
@startuml
abstract class Order{
    + static send(LoadScene, Player)
    + static send(GameState, Player)
}
class OrderReply {
    - replyingTo: Order
    - data: Object
}
class ParseOrderReply{
    + ParseOrderReply(OrderReply)
}
class LoadScene{
    - MATCHMAKING_SCENE = 1
    - LOAD_IMAGE
    - GAME_SCENE = 2
    - WINNER_SCENE = 3
    - LOSER_SCENE = 4
    ' TODO: Decide this part in Room
}

Order <|- - LoadScene
Order <|- - GameStates
@enduml

@startuml
abstract class Order{
    + static send(LoadScene, Player)
    + static send(GameState, Player)
}
class OrderReply {
    - replyingTo: Order
    - data: Object
}
class ParseOrderReply{
    + ParseOrderReply(OrderReply)
}
class LoadScene{
    - MATCHMAKING_SCENE = 1
    - LOAD_IMAGE
    - GAME_SCENE = 2
    - WINNER_SCENE = 3
    - LOSER_SCENE = 4
}

Order <|- - LoadScene
Order <|- - GameStates
@enduml

PlantUML version 1.2021.9beta2(Unknown compile time)
(GPL source distribution)
Java Runtime: Java(TM) SE Runtime Environment
JVM: Java HotSpot(TM) 64-Bit Server VM
Default Encoding: UTF-8
Language: en
Country: US
--></g></svg>