<?xml version="1.0" encoding="UTF-8" standalone="no"?><svg xmlns="http://www.w3.org/2000/svg" xmlns:xlink="http://www.w3.org/1999/xlink" contentScriptType="application/ecmascript" contentStyleType="text/css" height="267px" preserveAspectRatio="none" style="width:339px;height:267px;background:#FFFFFF;" version="1.1" viewBox="0 0 339 267" width="339px" zoomAndPan="magnify"><defs><filter height="300%" id="f19vvveaoylo3w" width="300%" x="-1" y="-1"><feGaussianBlur result="blurOut" stdDeviation="2.0"/><feColorMatrix in="blurOut" result="blurOut2" type="matrix" values="0 0 0 0 0 0 0 0 0 0 0 0 0 0 0 0 0 0 .4 0"/><feOffset dx="4.0" dy="4.0" in="blurOut2" result="blurOut3"/><feBlend in="SourceGraphic" in2="blurOut3" mode="normal"/></filter></defs><g><!--MD5=[8b704bae62559d3842f21b1798571f7a]
class Communication--><rect codeLine="1" fill="#FEFECE" filter="url(#f19vvveaoylo3w)" height="73.6094" id="Communication" style="stroke:#A80036;stroke-width:1.5;" width="204" x="82" y="7"/><ellipse cx="132.25" cy="23" fill="#A9DCDF" rx="11" ry="11" style="stroke:#A80036;stroke-width:1.0;"/><path d="M134.3281,24.8125 L134.7188,25.7969 L134.3281,25.7969 C133.875,25.7969 133.7656,25.8125 133.6094,25.9219 C133.3594,26.0781 133.2031,26.3594 133.2031,26.6563 C133.2031,26.9219 133.3438,27.1719 133.5625,27.3281 C133.7031,27.4531 133.9063,27.5 134.3281,27.5 L136.6875,27.5 C137.0469,27.5 137.2656,27.4688 137.4063,27.375 C137.6563,27.2344 137.8125,26.9375 137.8125,26.6563 C137.8125,26.375 137.6719,26.125 137.4531,25.9688 C137.2813,25.8281 137.125,25.7969 136.6563,25.7969 L133.2656,17.5938 L129.5938,17.5938 C129.1406,17.5938 129.0156,17.6094 128.8594,17.7031 C128.6094,17.875 128.4531,18.1563 128.4531,18.4375 C128.4531,18.7188 128.5938,18.9688 128.8125,19.1406 C128.9844,19.25 129.1563,19.2813 129.5938,19.2813 L130.6719,19.2813 L128.0313,25.7969 C127.6094,25.7969 127.4531,25.8125 127.2969,25.9219 C127.0469,26.0781 126.8906,26.3594 126.8906,26.6563 C126.8906,27.2188 127.2656,27.5 128.0156,27.5 L130.2813,27.5 C130.6406,27.5 130.8594,27.4688 130.9844,27.375 C131.25,27.2344 131.3906,26.9375 131.3906,26.6563 C131.3906,26.375 131.2656,26.125 131.0469,25.9531 C130.875,25.8281 130.7344,25.7969 130.2813,25.7969 L129.8906,25.7969 L130.2813,24.8125 L134.3281,24.8125 Z M133.625,23.1094 L130.9531,23.1094 L132.2969,19.8438 L133.625,23.1094 Z " fill="#000000"/><text fill="#000000" font-family="sans-serif" font-size="12" font-style="italic" lengthAdjust="spacing" textLength="95" x="152.75" y="27.1543">Communication</text><line style="stroke:#A80036;stroke-width:1.5;" x1="83" x2="285" y1="39" y2="39"/><line style="stroke:#A80036;stroke-width:1.5;" x1="83" x2="285" y1="47" y2="47"/><ellipse cx="93" cy="58" fill="#84BE84" rx="3" ry="3" style="stroke:#038048;stroke-width:1.0;"/><text fill="#000000" font-family="sans-serif" font-size="11" lengthAdjust="spacing" textLength="176" x="102" y="61.2104">static send(LoadScene, Player)</text><ellipse cx="93" cy="70.8047" fill="#84BE84" rx="3" ry="3" style="stroke:#038048;stroke-width:1.0;"/><text fill="#000000" font-family="sans-serif" font-size="11" lengthAdjust="spacing" textLength="178" x="102" y="74.0151">static send(GameState, Player)</text><!--MD5=[f3fd2181b0c28e3ad6671cc6577ed764]
class LoadScene--><rect codeLine="5" fill="#FEFECE" filter="url(#f19vvveaoylo3w)" height="112.0234" id="LoadScene" style="stroke:#A80036;stroke-width:1.5;" width="178" x="7" y="141"/><ellipse cx="58.25" cy="157" fill="#ADD1B2" rx="11" ry="11" style="stroke:#A80036;stroke-width:1.0;"/><path d="M60.5938,152.6719 C59.6563,152.2344 59.0625,152.0938 58.1875,152.0938 C55.5625,152.0938 53.5625,154.1719 53.5625,156.8906 L53.5625,158.0156 C53.5625,160.5938 55.6719,162.4844 58.5625,162.4844 C59.7813,162.4844 60.9375,162.1875 61.6875,161.6406 C62.2656,161.2344 62.5938,160.7813 62.5938,160.3906 C62.5938,159.9375 62.2031,159.5469 61.7344,159.5469 C61.5156,159.5469 61.3125,159.625 61.125,159.8125 C60.6719,160.2969 60.6719,160.2969 60.4844,160.3906 C60.0625,160.6563 59.375,160.7813 58.6094,160.7813 C56.5625,160.7813 55.2656,159.6875 55.2656,157.9844 L55.2656,156.8906 C55.2656,155.1094 56.5156,153.7969 58.25,153.7969 C58.8281,153.7969 59.4375,153.9531 59.9063,154.2031 C60.3906,154.4844 60.5625,154.7031 60.6563,155.1094 C60.7188,155.5156 60.75,155.6406 60.8906,155.7656 C61.0313,155.9063 61.2656,156.0156 61.4844,156.0156 C61.75,156.0156 62.0156,155.875 62.1875,155.6563 C62.2969,155.5 62.3281,155.3125 62.3281,154.8906 L62.3281,153.4688 C62.3281,153.0313 62.3125,152.9063 62.2188,152.75 C62.0625,152.4844 61.7813,152.3438 61.4844,152.3438 C61.1875,152.3438 60.9844,152.4375 60.7656,152.75 L60.5938,152.6719 Z " fill="#000000"/><text fill="#000000" font-family="sans-serif" font-size="12" lengthAdjust="spacing" textLength="67" x="78.75" y="161.1543">LoadScene</text><line style="stroke:#A80036;stroke-width:1.5;" x1="8" x2="184" y1="173" y2="173"/><rect fill="none" height="6" style="stroke:#C82930;stroke-width:1.0;" width="6" x="15" y="181"/><text fill="#000000" font-family="sans-serif" font-size="11" lengthAdjust="spacing" textLength="152" x="27" y="187.2104">MATCHMAKING_SCENE = 1</text><rect fill="none" height="6" style="stroke:#C82930;stroke-width:1.0;" width="6" x="15" y="193.8047"/><text fill="#000000" font-family="sans-serif" font-size="11" lengthAdjust="spacing" textLength="74" x="27" y="200.0151">LOAD_IMAGE</text><rect fill="none" height="6" style="stroke:#C82930;stroke-width:1.0;" width="6" x="15" y="206.6094"/><text fill="#000000" font-family="sans-serif" font-size="11" lengthAdjust="spacing" textLength="101" x="27" y="212.8198">GAME_SCENE = 2</text><rect fill="none" height="6" style="stroke:#C82930;stroke-width:1.0;" width="6" x="15" y="219.4141"/><text fill="#000000" font-family="sans-serif" font-size="11" lengthAdjust="spacing" textLength="112" x="27" y="225.6245">WINNER_SCENE = 3</text><rect fill="none" height="6" style="stroke:#C82930;stroke-width:1.0;" width="6" x="15" y="232.2188"/><text fill="#000000" font-family="sans-serif" font-size="11" lengthAdjust="spacing" textLength="105" x="27" y="238.4292">LOSER_SCENE = 4</text><line style="stroke:#A80036;stroke-width:1.5;" x1="8" x2="184" y1="245.0234" y2="245.0234"/><!--MD5=[c719a77c542a09de3463e0c7b48c79ef]
class GameStates--><rect fill="#FEFECE" filter="url(#f19vvveaoylo3w)" height="48" id="GameStates" style="stroke:#A80036;stroke-width:1.5;" width="105" x="220.5" y="173"/><ellipse cx="235.5" cy="189" fill="#ADD1B2" rx="11" ry="11" style="stroke:#A80036;stroke-width:1.0;"/><path d="M237.8438,184.6719 C236.9063,184.2344 236.3125,184.0938 235.4375,184.0938 C232.8125,184.0938 230.8125,186.1719 230.8125,188.8906 L230.8125,190.0156 C230.8125,192.5938 232.9219,194.4844 235.8125,194.4844 C237.0313,194.4844 238.1875,194.1875 238.9375,193.6406 C239.5156,193.2344 239.8438,192.7813 239.8438,192.3906 C239.8438,191.9375 239.4531,191.5469 238.9844,191.5469 C238.7656,191.5469 238.5625,191.625 238.375,191.8125 C237.9219,192.2969 237.9219,192.2969 237.7344,192.3906 C237.3125,192.6563 236.625,192.7813 235.8594,192.7813 C233.8125,192.7813 232.5156,191.6875 232.5156,189.9844 L232.5156,188.8906 C232.5156,187.1094 233.7656,185.7969 235.5,185.7969 C236.0781,185.7969 236.6875,185.9531 237.1563,186.2031 C237.6406,186.4844 237.8125,186.7031 237.9063,187.1094 C237.9688,187.5156 238,187.6406 238.1406,187.7656 C238.2813,187.9063 238.5156,188.0156 238.7344,188.0156 C239,188.0156 239.2656,187.875 239.4375,187.6563 C239.5469,187.5 239.5781,187.3125 239.5781,186.8906 L239.5781,185.4688 C239.5781,185.0313 239.5625,184.9063 239.4688,184.75 C239.3125,184.4844 239.0313,184.3438 238.7344,184.3438 C238.4375,184.3438 238.2344,184.4375 238.0156,184.75 L237.8438,184.6719 Z " fill="#000000"/><text fill="#000000" font-family="sans-serif" font-size="12" lengthAdjust="spacing" textLength="73" x="249.5" y="193.1543">GameStates</text><line style="stroke:#A80036;stroke-width:1.5;" x1="221.5" x2="324.5" y1="205" y2="205"/><line style="stroke:#A80036;stroke-width:1.5;" x1="221.5" x2="324.5" y1="213" y2="213"/><!--MD5=[0a4dd5cd1a02eb07b0ae2947681fbbed]
reverse link Communication to LoadScene--><path codeLine="14" d="M152.832,98.482 C144.806,112.253 136.156,127.096 128.085,140.946 " fill="none" id="Communication-backto-LoadScene" style="stroke:#A80036;stroke-width:1.0;"/><polygon fill="none" points="146.804,94.923,162.922,81.168,158.899,101.973,146.804,94.923" style="stroke:#A80036;stroke-width:1.0;"/><!--MD5=[34ddd75b6cd1f2b6e4dca099240bdd06]
reverse link Communication to GameStates--><path codeLine="15" d="M215.512,98.464 C230.522,123.93 247.692,153.0624 259.331,172.808 " fill="none" id="Communication-backto-GameStates" style="stroke:#A80036;stroke-width:1.0;"/><polygon fill="none" points="209.443,101.953,205.318,81.168,221.504,94.844,209.443,101.953" style="stroke:#A80036;stroke-width:1.0;"/><!--MD5=[d455d259d129db9394aae644a3f1d0f3]
@startuml
abstract class Communication{
    + static send(LoadScene, Player)
    + static send(GameState, Player)
}
class LoadScene{
    - MATCHMAKING_SCENE = 1
    - LOAD_IMAGE
    - GAME_SCENE = 2
    - WINNER_SCENE = 3
    - LOSER_SCENE = 4
    ' TODO: Decide this part in Room
}

Communication <|- - LoadScene
Communication <|- - GameStates
@enduml

@startuml
abstract class Communication{
    + static send(LoadScene, Player)
    + static send(GameState, Player)
}
class LoadScene{
    - MATCHMAKING_SCENE = 1
    - LOAD_IMAGE
    - GAME_SCENE = 2
    - WINNER_SCENE = 3
    - LOSER_SCENE = 4
}

Communication <|- - LoadScene
Communication <|- - GameStates
@enduml

PlantUML version 1.2021.9beta2(Unknown compile time)
(GPL source distribution)
Java Runtime: Java(TM) SE Runtime Environment
JVM: Java HotSpot(TM) 64-Bit Server VM
Default Encoding: UTF-8
Language: en
Country: US
--></g></svg>