<?xml version="1.0" encoding="UTF-8" standalone="no"?><svg xmlns="http://www.w3.org/2000/svg" xmlns:xlink="http://www.w3.org/1999/xlink" contentScriptType="application/ecmascript" contentStyleType="text/css" height="330px" preserveAspectRatio="none" style="width:1226px;height:330px;background:#FFFFFF;" version="1.1" viewBox="0 0 1226 330" width="1226px" zoomAndPan="magnify"><defs><filter height="300%" id="f1o4j1yurs4m3t" width="300%" x="-1" y="-1"><feGaussianBlur result="blurOut" stdDeviation="2.0"/><feColorMatrix in="blurOut" result="blurOut2" type="matrix" values="0 0 0 0 0 0 0 0 0 0 0 0 0 0 0 0 0 0 .4 0"/><feOffset dx="4.0" dy="4.0" in="blurOut2" result="blurOut3"/><feBlend in="SourceGraphic" in2="blurOut3" mode="normal"/></filter></defs><g><!--MD5=[55057eaf137c0defb4243fa4a606c629]
class ServerPacket--><rect codeLine="1" fill="#FEFECE" filter="url(#f1o4j1yurs4m3t)" height="150.4375" id="ServerPacket" style="stroke:#A80036;stroke-width:1.5;" width="274" x="7" y="7"/><ellipse cx="99.75" cy="23" fill="#ADD1B2" rx="11" ry="11" style="stroke:#A80036;stroke-width:1.0;"/><path d="M102.0938,18.6719 C101.1563,18.2344 100.5625,18.0938 99.6875,18.0938 C97.0625,18.0938 95.0625,20.1719 95.0625,22.8906 L95.0625,24.0156 C95.0625,26.5938 97.1719,28.4844 100.0625,28.4844 C101.2813,28.4844 102.4375,28.1875 103.1875,27.6406 C103.7656,27.2344 104.0938,26.7813 104.0938,26.3906 C104.0938,25.9375 103.7031,25.5469 103.2344,25.5469 C103.0156,25.5469 102.8125,25.625 102.625,25.8125 C102.1719,26.2969 102.1719,26.2969 101.9844,26.3906 C101.5625,26.6563 100.875,26.7813 100.1094,26.7813 C98.0625,26.7813 96.7656,25.6875 96.7656,23.9844 L96.7656,22.8906 C96.7656,21.1094 98.0156,19.7969 99.75,19.7969 C100.3281,19.7969 100.9375,19.9531 101.4063,20.2031 C101.8906,20.4844 102.0625,20.7031 102.1563,21.1094 C102.2188,21.5156 102.25,21.6406 102.3906,21.7656 C102.5313,21.9063 102.7656,22.0156 102.9844,22.0156 C103.25,22.0156 103.5156,21.875 103.6875,21.6563 C103.7969,21.5 103.8281,21.3125 103.8281,20.8906 L103.8281,19.4688 C103.8281,19.0313 103.8125,18.9063 103.7188,18.75 C103.5625,18.4844 103.2813,18.3438 102.9844,18.3438 C102.6875,18.3438 102.4844,18.4375 102.2656,18.75 L102.0938,18.6719 Z " fill="#000000"/><text fill="#000000" font-family="sans-serif" font-size="12" lengthAdjust="spacing" textLength="80" x="120.25" y="27.1543">ServerPacket</text><line style="stroke:#A80036;stroke-width:1.5;" x1="8" x2="280" y1="39" y2="39"/><ellipse cx="18" cy="50" rx="3" ry="3" style="stroke:#038048;stroke-width:1.0;fill:none;"/><text fill="#000000" font-family="sans-serif" font-size="11" lengthAdjust="spacing" textLength="97" x="27" y="53.2104">byte packetType</text><text fill="#000000" font-family="sans-serif" font-size="11" lengthAdjust="spacing" textLength="74" x="27" y="66.0151">[PacketType]</text><ellipse cx="18" cy="75.6094" rx="3" ry="3" style="stroke:#038048;stroke-width:1.0;fill:none;"/><text fill="#000000" font-family="sans-serif" font-size="11" lengthAdjust="spacing" textLength="119" x="27" y="78.8198">Order&lt;?&gt; orderType</text><text fill="#000000" font-family="sans-serif" font-size="11" lengthAdjust="spacing" textLength="199" x="27" y="91.6245">[Initialise, GameState, LoadScene]</text><line style="stroke:#A80036;stroke-width:1.5;" x1="8" x2="280" y1="98.2188" y2="98.2188"/><ellipse cx="18" cy="109.2188" fill="#84BE84" rx="3" ry="3" style="stroke:#038048;stroke-width:1.0;"/><text fill="#000000" font-family="sans-serif" font-size="11" lengthAdjust="spacing" textLength="248" x="27" y="112.4292">Packet(packetType, orderType, orderValue)</text><ellipse cx="18" cy="122.0234" fill="#84BE84" rx="3" ry="3" style="stroke:#038048;stroke-width:1.0;"/><text fill="#000000" font-family="sans-serif" font-size="11" lengthAdjust="spacing" textLength="93" x="27" y="125.2339">getPacketType()</text><ellipse cx="18" cy="134.8281" fill="#84BE84" rx="3" ry="3" style="stroke:#038048;stroke-width:1.0;"/><text fill="#000000" font-family="sans-serif" font-size="11" lengthAdjust="spacing" textLength="88" x="27" y="138.0386">getOrderType()</text><ellipse cx="18" cy="147.6328" fill="#84BE84" rx="3" ry="3" style="stroke:#038048;stroke-width:1.0;"/><text fill="#000000" font-family="sans-serif" font-size="11" lengthAdjust="spacing" textLength="78" x="27" y="150.8433">getOrderObj()</text><!--MD5=[2c444d4f3c0d565efd475698377c7e89]
class ClientPacket--><rect codeLine="11" fill="#FEFECE" filter="url(#f1o4j1yurs4m3t)" height="137.6328" id="ClientPacket" style="stroke:#A80036;stroke-width:1.5;" width="276" x="316" y="13"/><ellipse cx="413.75" cy="29" fill="#ADD1B2" rx="11" ry="11" style="stroke:#A80036;stroke-width:1.0;"/><path d="M416.0938,24.6719 C415.1563,24.2344 414.5625,24.0938 413.6875,24.0938 C411.0625,24.0938 409.0625,26.1719 409.0625,28.8906 L409.0625,30.0156 C409.0625,32.5938 411.1719,34.4844 414.0625,34.4844 C415.2813,34.4844 416.4375,34.1875 417.1875,33.6406 C417.7656,33.2344 418.0938,32.7813 418.0938,32.3906 C418.0938,31.9375 417.7031,31.5469 417.2344,31.5469 C417.0156,31.5469 416.8125,31.625 416.625,31.8125 C416.1719,32.2969 416.1719,32.2969 415.9844,32.3906 C415.5625,32.6563 414.875,32.7813 414.1094,32.7813 C412.0625,32.7813 410.7656,31.6875 410.7656,29.9844 L410.7656,28.8906 C410.7656,27.1094 412.0156,25.7969 413.75,25.7969 C414.3281,25.7969 414.9375,25.9531 415.4063,26.2031 C415.8906,26.4844 416.0625,26.7031 416.1563,27.1094 C416.2188,27.5156 416.25,27.6406 416.3906,27.7656 C416.5313,27.9063 416.7656,28.0156 416.9844,28.0156 C417.25,28.0156 417.5156,27.875 417.6875,27.6563 C417.7969,27.5 417.8281,27.3125 417.8281,26.8906 L417.8281,25.4688 C417.8281,25.0313 417.8125,24.9063 417.7188,24.75 C417.5625,24.4844 417.2813,24.3438 416.9844,24.3438 C416.6875,24.3438 416.4844,24.4375 416.2656,24.75 L416.0938,24.6719 Z " fill="#000000"/><text fill="#000000" font-family="sans-serif" font-size="12" lengthAdjust="spacing" textLength="72" x="434.25" y="33.1543">ClientPacket</text><line style="stroke:#A80036;stroke-width:1.5;" x1="317" x2="591" y1="45" y2="45"/><ellipse cx="327" cy="56" rx="3" ry="3" style="stroke:#038048;stroke-width:1.0;fill:none;"/><text fill="#000000" font-family="sans-serif" font-size="11" lengthAdjust="spacing" textLength="97" x="336" y="59.2104">byte packetType</text><text fill="#000000" font-family="sans-serif" font-size="11" lengthAdjust="spacing" textLength="250" x="336" y="72.0151">[replying to order, or sending a game input]</text><ellipse cx="327" cy="81.6094" rx="3" ry="3" style="stroke:#038048;stroke-width:1.0;fill:none;"/><text fill="#000000" font-family="sans-serif" font-size="11" lengthAdjust="spacing" textLength="96" x="336" y="84.8198">Order replyingTo</text><ellipse cx="327" cy="94.4141" rx="3" ry="3" style="stroke:#038048;stroke-width:1.0;fill:none;"/><text fill="#000000" font-family="sans-serif" font-size="11" lengthAdjust="spacing" textLength="89" x="336" y="97.6245">Reply&lt;?&gt; reply</text><line style="stroke:#A80036;stroke-width:1.5;" x1="317" x2="591" y1="104.2188" y2="104.2188"/><ellipse cx="327" cy="115.2188" fill="#84BE84" rx="3" ry="3" style="stroke:#038048;stroke-width:1.0;"/><text fill="#000000" font-family="sans-serif" font-size="11" lengthAdjust="spacing" textLength="248" x="336" y="118.4292">ClientPacket(packetType, replyingTo, reply)</text><ellipse cx="327" cy="128.0234" fill="#84BE84" rx="3" ry="3" style="stroke:#038048;stroke-width:1.0;"/><text fill="#000000" font-family="sans-serif" font-size="11" lengthAdjust="spacing" textLength="184" x="336" y="131.2339">ClientPacket(packetType, value)</text><ellipse cx="327" cy="140.8281" fill="#84BE84" rx="3" ry="3" style="stroke:#038048;stroke-width:1.0;"/><text fill="#000000" font-family="sans-serif" font-size="11" lengthAdjust="spacing" textLength="93" x="336" y="144.0386">getPacketType()</text><!--MD5=[979e0f49fe01282a98e1c005054f5cf7]
class PacketType--><rect codeLine="22" fill="#FEFECE" filter="url(#f1o4j1yurs4m3t)" height="137.6328" id="PacketType" style="stroke:#A80036;stroke-width:1.5;" width="128" x="627" y="13"/><ellipse cx="654.15" cy="29" fill="#ADD1B2" rx="11" ry="11" style="stroke:#A80036;stroke-width:1.0;"/><path d="M656.4938,24.6719 C655.5563,24.2344 654.9625,24.0938 654.0875,24.0938 C651.4625,24.0938 649.4625,26.1719 649.4625,28.8906 L649.4625,30.0156 C649.4625,32.5938 651.5719,34.4844 654.4625,34.4844 C655.6813,34.4844 656.8375,34.1875 657.5875,33.6406 C658.1656,33.2344 658.4938,32.7813 658.4938,32.3906 C658.4938,31.9375 658.1031,31.5469 657.6344,31.5469 C657.4156,31.5469 657.2125,31.625 657.025,31.8125 C656.5719,32.2969 656.5719,32.2969 656.3844,32.3906 C655.9625,32.6563 655.275,32.7813 654.5094,32.7813 C652.4625,32.7813 651.1656,31.6875 651.1656,29.9844 L651.1656,28.8906 C651.1656,27.1094 652.4156,25.7969 654.15,25.7969 C654.7281,25.7969 655.3375,25.9531 655.8063,26.2031 C656.2906,26.4844 656.4625,26.7031 656.5563,27.1094 C656.6188,27.5156 656.65,27.6406 656.7906,27.7656 C656.9313,27.9063 657.1656,28.0156 657.3844,28.0156 C657.65,28.0156 657.9156,27.875 658.0875,27.6563 C658.1969,27.5 658.2281,27.3125 658.2281,26.8906 L658.2281,25.4688 C658.2281,25.0313 658.2125,24.9063 658.1188,24.75 C657.9625,24.4844 657.6813,24.3438 657.3844,24.3438 C657.0875,24.3438 656.8844,24.4375 656.6656,24.75 L656.4938,24.6719 Z " fill="#000000"/><text fill="#000000" font-family="sans-serif" font-size="12" lengthAdjust="spacing" textLength="69" x="670.85" y="33.1543">PacketType</text><line style="stroke:#A80036;stroke-width:1.5;" x1="628" x2="754" y1="45" y2="45"/><rect fill="none" height="6" style="stroke:#C82930;stroke-width:1.0;" width="6" x="635" y="53"/><text fill="#000000" font-family="sans-serif" font-size="11" lengthAdjust="spacing" textLength="80" x="647" y="59.2104">INITIALISE = 0</text><rect fill="none" height="6" style="stroke:#C82930;stroke-width:1.0;" width="6" x="635" y="65.8047"/><text fill="#000000" font-family="sans-serif" font-size="11" lengthAdjust="spacing" textLength="63" x="647" y="72.0151">ORDER = 1</text><rect fill="none" height="6" style="stroke:#C82930;stroke-width:1.0;" width="6" x="635" y="78.6094"/><text fill="#000000" font-family="sans-serif" font-size="11" lengthAdjust="spacing" textLength="102" x="647" y="84.8198">ORDER_REPLY = 2</text><rect fill="none" height="6" style="stroke:#C82930;stroke-width:1.0;" width="6" x="635" y="91.4141"/><text fill="#000000" font-family="sans-serif" font-size="11" lengthAdjust="spacing" textLength="88" x="647" y="97.6245">LoadScene = 3</text><rect fill="none" height="6" style="stroke:#C82930;stroke-width:1.0;" width="6" x="635" y="104.2188"/><text fill="#000000" font-family="sans-serif" font-size="11" lengthAdjust="spacing" textLength="98" x="647" y="110.4292">LOAD_IMAGE = 4</text><rect fill="none" height="6" style="stroke:#C82930;stroke-width:1.0;" width="6" x="635" y="117.0234"/><text fill="#000000" font-family="sans-serif" font-size="11" lengthAdjust="spacing" textLength="87" x="647" y="123.2339">GameInput = 5</text><rect fill="none" height="6" style="stroke:#C82930;stroke-width:1.0;" width="6" x="635" y="129.8281"/><text fill="#000000" font-family="sans-serif" font-size="11" lengthAdjust="spacing" textLength="90" x="647" y="136.0386">GameState = 6</text><line style="stroke:#A80036;stroke-width:1.5;" x1="628" x2="754" y1="142.6328" y2="142.6328"/><!--MD5=[f3fd2181b0c28e3ad6671cc6577ed764]
class LoadScene--><rect codeLine="31" fill="#FEFECE" filter="url(#f1o4j1yurs4m3t)" height="99.2188" id="LoadScene" style="stroke:#A80036;stroke-width:1.5;" width="178" x="55" y="217"/><ellipse cx="106.25" cy="233" fill="#ADD1B2" rx="11" ry="11" style="stroke:#A80036;stroke-width:1.0;"/><path d="M108.5938,228.6719 C107.6563,228.2344 107.0625,228.0938 106.1875,228.0938 C103.5625,228.0938 101.5625,230.1719 101.5625,232.8906 L101.5625,234.0156 C101.5625,236.5938 103.6719,238.4844 106.5625,238.4844 C107.7813,238.4844 108.9375,238.1875 109.6875,237.6406 C110.2656,237.2344 110.5938,236.7813 110.5938,236.3906 C110.5938,235.9375 110.2031,235.5469 109.7344,235.5469 C109.5156,235.5469 109.3125,235.625 109.125,235.8125 C108.6719,236.2969 108.6719,236.2969 108.4844,236.3906 C108.0625,236.6563 107.375,236.7813 106.6094,236.7813 C104.5625,236.7813 103.2656,235.6875 103.2656,233.9844 L103.2656,232.8906 C103.2656,231.1094 104.5156,229.7969 106.25,229.7969 C106.8281,229.7969 107.4375,229.9531 107.9063,230.2031 C108.3906,230.4844 108.5625,230.7031 108.6563,231.1094 C108.7188,231.5156 108.75,231.6406 108.8906,231.7656 C109.0313,231.9063 109.2656,232.0156 109.4844,232.0156 C109.75,232.0156 110.0156,231.875 110.1875,231.6563 C110.2969,231.5 110.3281,231.3125 110.3281,230.8906 L110.3281,229.4688 C110.3281,229.0313 110.3125,228.9063 110.2188,228.75 C110.0625,228.4844 109.7813,228.3438 109.4844,228.3438 C109.1875,228.3438 108.9844,228.4375 108.7656,228.75 L108.5938,228.6719 Z " fill="#000000"/><text fill="#000000" font-family="sans-serif" font-size="12" lengthAdjust="spacing" textLength="67" x="126.75" y="237.1543">LoadScene</text><line style="stroke:#A80036;stroke-width:1.5;" x1="56" x2="232" y1="249" y2="249"/><rect fill="none" height="6" style="stroke:#C82930;stroke-width:1.0;" width="6" x="63" y="257"/><text fill="#000000" font-family="sans-serif" font-size="11" lengthAdjust="spacing" textLength="152" x="75" y="263.2104">MATCHMAKING_SCENE = 1</text><rect fill="none" height="6" style="stroke:#C82930;stroke-width:1.0;" width="6" x="63" y="269.8047"/><text fill="#000000" font-family="sans-serif" font-size="11" lengthAdjust="spacing" textLength="101" x="75" y="276.0151">GAME_SCENE = 2</text><rect fill="none" height="6" style="stroke:#C82930;stroke-width:1.0;" width="6" x="63" y="282.6094"/><text fill="#000000" font-family="sans-serif" font-size="11" lengthAdjust="spacing" textLength="112" x="75" y="288.8198">WINNER_SCENE = 3</text><rect fill="none" height="6" style="stroke:#C82930;stroke-width:1.0;" width="6" x="63" y="295.4141"/><text fill="#000000" font-family="sans-serif" font-size="11" lengthAdjust="spacing" textLength="105" x="75" y="301.6245">LOSER_SCENE = 4</text><line style="stroke:#A80036;stroke-width:1.5;" x1="56" x2="232" y1="308.2188" y2="308.2188"/><!--MD5=[3540325f36fb5dff783f7b37f3cd0b7c]
class OrderTypeLookupTable--><rect codeLine="37" fill="#FEFECE" filter="url(#f1o4j1yurs4m3t)" height="99.2188" id="OrderTypeLookupTable" style="stroke:#A80036;stroke-width:1.5;" width="175" x="268.5" y="217"/><ellipse cx="283.5" cy="233" fill="#ADD1B2" rx="11" ry="11" style="stroke:#A80036;stroke-width:1.0;"/><path d="M285.8438,228.6719 C284.9063,228.2344 284.3125,228.0938 283.4375,228.0938 C280.8125,228.0938 278.8125,230.1719 278.8125,232.8906 L278.8125,234.0156 C278.8125,236.5938 280.9219,238.4844 283.8125,238.4844 C285.0313,238.4844 286.1875,238.1875 286.9375,237.6406 C287.5156,237.2344 287.8438,236.7813 287.8438,236.3906 C287.8438,235.9375 287.4531,235.5469 286.9844,235.5469 C286.7656,235.5469 286.5625,235.625 286.375,235.8125 C285.9219,236.2969 285.9219,236.2969 285.7344,236.3906 C285.3125,236.6563 284.625,236.7813 283.8594,236.7813 C281.8125,236.7813 280.5156,235.6875 280.5156,233.9844 L280.5156,232.8906 C280.5156,231.1094 281.7656,229.7969 283.5,229.7969 C284.0781,229.7969 284.6875,229.9531 285.1563,230.2031 C285.6406,230.4844 285.8125,230.7031 285.9063,231.1094 C285.9688,231.5156 286,231.6406 286.1406,231.7656 C286.2813,231.9063 286.5156,232.0156 286.7344,232.0156 C287,232.0156 287.2656,231.875 287.4375,231.6563 C287.5469,231.5 287.5781,231.3125 287.5781,230.8906 L287.5781,229.4688 C287.5781,229.0313 287.5625,228.9063 287.4688,228.75 C287.3125,228.4844 287.0313,228.3438 286.7344,228.3438 C286.4375,228.3438 286.2344,228.4375 286.0156,228.75 L285.8438,228.6719 Z " fill="#000000"/><text fill="#000000" font-family="sans-serif" font-size="12" lengthAdjust="spacing" textLength="143" x="297.5" y="237.1543">OrderTypeLookupTable</text><line style="stroke:#A80036;stroke-width:1.5;" x1="269.5" x2="442.5" y1="249" y2="249"/><ellipse cx="279.5" cy="260" rx="3" ry="3" style="stroke:#038048;stroke-width:1.0;fill:none;"/><text fill="#000000" font-family="sans-serif" font-size="11" lengthAdjust="spacing" textLength="71" x="288.5" y="263.2104">Initialise = 0</text><ellipse cx="279.5" cy="272.8047" rx="3" ry="3" style="stroke:#038048;stroke-width:1.0;fill:none;"/><text fill="#000000" font-family="sans-serif" font-size="11" lengthAdjust="spacing" textLength="90" x="288.5" y="276.0151">GameState = 1</text><ellipse cx="279.5" cy="285.6094" rx="3" ry="3" style="stroke:#038048;stroke-width:1.0;fill:none;"/><text fill="#000000" font-family="sans-serif" font-size="11" lengthAdjust="spacing" textLength="88" x="288.5" y="288.8198">LoadScene = 3</text><ellipse cx="279.5" cy="298.4141" rx="3" ry="3" style="stroke:#038048;stroke-width:1.0;fill:none;"/><text fill="#000000" font-family="sans-serif" font-size="11" lengthAdjust="spacing" textLength="87" x="288.5" y="301.6245">LoadImage = 4</text><line style="stroke:#A80036;stroke-width:1.5;" x1="269.5" x2="442.5" y1="308.2188" y2="308.2188"/><!--MD5=[9944769981053e43239e30a25ad703bf]
class CommData--><rect codeLine="43" fill="#FEFECE" filter="url(#f1o4j1yurs4m3t)" height="86.4141" id="CommData" style="stroke:#A80036;stroke-width:1.5;" width="185" x="891.5" y="39"/><ellipse cx="909.2" cy="55" fill="#ADD1B2" rx="11" ry="11" style="stroke:#A80036;stroke-width:1.0;"/><path d="M911.5438,50.6719 C910.6063,50.2344 910.0125,50.0938 909.1375,50.0938 C906.5125,50.0938 904.5125,52.1719 904.5125,54.8906 L904.5125,56.0156 C904.5125,58.5938 906.6219,60.4844 909.5125,60.4844 C910.7313,60.4844 911.8875,60.1875 912.6375,59.6406 C913.2156,59.2344 913.5438,58.7813 913.5438,58.3906 C913.5438,57.9375 913.1531,57.5469 912.6844,57.5469 C912.4656,57.5469 912.2625,57.625 912.075,57.8125 C911.6219,58.2969 911.6219,58.2969 911.4344,58.3906 C911.0125,58.6563 910.325,58.7813 909.5594,58.7813 C907.5125,58.7813 906.2156,57.6875 906.2156,55.9844 L906.2156,54.8906 C906.2156,53.1094 907.4656,51.7969 909.2,51.7969 C909.7781,51.7969 910.3875,51.9531 910.8563,52.2031 C911.3406,52.4844 911.5125,52.7031 911.6063,53.1094 C911.6688,53.5156 911.7,53.6406 911.8406,53.7656 C911.9813,53.9063 912.2156,54.0156 912.4344,54.0156 C912.7,54.0156 912.9656,53.875 913.1375,53.6563 C913.2469,53.5 913.2781,53.3125 913.2781,52.8906 L913.2781,51.4688 C913.2781,51.0313 913.2625,50.9063 913.1688,50.75 C913.0125,50.4844 912.7313,50.3438 912.4344,50.3438 C912.1375,50.3438 911.9344,50.4375 911.7156,50.75 L911.5438,50.6719 Z " fill="#000000"/><text fill="#000000" font-family="sans-serif" font-size="12" lengthAdjust="spacing" textLength="65" x="923.8" y="59.1543">CommData</text><rect fill="#FFFFFF" height="15.9688" style="stroke:#000000;stroke-width:1.0;stroke-dasharray:2.0,2.0;" width="80" x="999.5" y="36"/><text fill="#000000" font-family="sans-serif" font-size="12" font-style="italic" lengthAdjust="spacing" textLength="78" x="1000.5" y="48.1387">type of value</text><line style="stroke:#A80036;stroke-width:1.5;" x1="892.5" x2="1075.5" y1="71" y2="71"/><polygon fill="none" points="902.5,77,906.5,81,902.5,85,898.5,81" style="stroke:#B38D22;stroke-width:1.0;"/><text fill="#000000" font-family="sans-serif" font-size="11" lengthAdjust="spacing" textLength="131" x="911.5" y="85.2104">&lt;type of value&gt; value</text><line style="stroke:#A80036;stroke-width:1.5;" x1="892.5" x2="1075.5" y1="91.8047" y2="91.8047"/><ellipse cx="902.5" cy="102.8047" fill="#84BE84" rx="3" ry="3" style="stroke:#038048;stroke-width:1.0;"/><text fill="#000000" font-family="sans-serif" font-size="11" lengthAdjust="spacing" textLength="152" x="911.5" y="106.0151">CommData(&lt;type&gt; value)</text><ellipse cx="902.5" cy="115.6094" fill="#84BE84" rx="3" ry="3" style="stroke:#038048;stroke-width:1.0;"/><text fill="#000000" font-family="sans-serif" font-size="11" lengthAdjust="spacing" textLength="159" x="911.5" y="118.8198">&lt;type of value&gt; getValue()</text><!--MD5=[cf4d6237fcae255cd2e1656cf84a30e2]
class Order--><rect codeLine="48" fill="#FEFECE" filter="url(#f1o4j1yurs4m3t)" height="73.6094" id="Order" style="stroke:#A80036;stroke-width:1.5;" width="200" x="830" y="229.5"/><ellipse cx="867.5" cy="245.5" fill="#ADD1B2" rx="11" ry="11" style="stroke:#A80036;stroke-width:1.0;"/><path d="M869.8438,241.1719 C868.9063,240.7344 868.3125,240.5938 867.4375,240.5938 C864.8125,240.5938 862.8125,242.6719 862.8125,245.3906 L862.8125,246.5156 C862.8125,249.0938 864.9219,250.9844 867.8125,250.9844 C869.0313,250.9844 870.1875,250.6875 870.9375,250.1406 C871.5156,249.7344 871.8438,249.2813 871.8438,248.8906 C871.8438,248.4375 871.4531,248.0469 870.9844,248.0469 C870.7656,248.0469 870.5625,248.125 870.375,248.3125 C869.9219,248.7969 869.9219,248.7969 869.7344,248.8906 C869.3125,249.1563 868.625,249.2813 867.8594,249.2813 C865.8125,249.2813 864.5156,248.1875 864.5156,246.4844 L864.5156,245.3906 C864.5156,243.6094 865.7656,242.2969 867.5,242.2969 C868.0781,242.2969 868.6875,242.4531 869.1563,242.7031 C869.6406,242.9844 869.8125,243.2031 869.9063,243.6094 C869.9688,244.0156 870,244.1406 870.1406,244.2656 C870.2813,244.4063 870.5156,244.5156 870.7344,244.5156 C871,244.5156 871.2656,244.375 871.4375,244.1563 C871.5469,244 871.5781,243.8125 871.5781,243.3906 L871.5781,241.9688 C871.5781,241.5313 871.5625,241.4063 871.4688,241.25 C871.3125,240.9844 871.0313,240.8438 870.7344,240.8438 C870.4375,240.8438 870.2344,240.9375 870.0156,241.25 L869.8438,241.1719 Z " fill="#000000"/><text fill="#000000" font-family="sans-serif" font-size="12" lengthAdjust="spacing" textLength="36" x="886.5" y="249.6543">Order</text><rect fill="#FFFFFF" height="15.9688" style="stroke:#000000;stroke-width:1.0;stroke-dasharray:2.0,2.0;" width="80" x="953" y="226.5"/><text fill="#000000" font-family="sans-serif" font-size="12" font-style="italic" lengthAdjust="spacing" textLength="78" x="954" y="238.6387">type of value</text><line style="stroke:#A80036;stroke-width:1.5;" x1="831" x2="1029" y1="261.5" y2="261.5"/><line style="stroke:#A80036;stroke-width:1.5;" x1="831" x2="1029" y1="269.5" y2="269.5"/><ellipse cx="841" cy="280.5" fill="#84BE84" rx="3" ry="3" style="stroke:#038048;stroke-width:1.0;"/><text fill="#000000" font-family="sans-serif" font-size="11" lengthAdjust="spacing" textLength="174" x="850" y="283.7104">Order(&lt;type of value&gt; value);</text><ellipse cx="841" cy="293.3047" fill="#84BE84" rx="3" ry="3" style="stroke:#038048;stroke-width:1.0;"/><text fill="#000000" font-family="sans-serif" font-size="11" lengthAdjust="spacing" textLength="46" x="850" y="296.5151">equals()</text><!--MD5=[cb90de322b018cbf647714665a308163]
class Reply--><rect codeLine="52" fill="#FEFECE" filter="url(#f1o4j1yurs4m3t)" height="60.8047" id="Reply" style="stroke:#A80036;stroke-width:1.5;" width="147" x="1065.5" y="236"/><ellipse cx="1080.5" cy="252" fill="#ADD1B2" rx="11" ry="11" style="stroke:#A80036;stroke-width:1.0;"/><path d="M1082.8438,247.6719 C1081.9063,247.2344 1081.3125,247.0938 1080.4375,247.0938 C1077.8125,247.0938 1075.8125,249.1719 1075.8125,251.8906 L1075.8125,253.0156 C1075.8125,255.5938 1077.9219,257.4844 1080.8125,257.4844 C1082.0313,257.4844 1083.1875,257.1875 1083.9375,256.6406 C1084.5156,256.2344 1084.8438,255.7813 1084.8438,255.3906 C1084.8438,254.9375 1084.4531,254.5469 1083.9844,254.5469 C1083.7656,254.5469 1083.5625,254.625 1083.375,254.8125 C1082.9219,255.2969 1082.9219,255.2969 1082.7344,255.3906 C1082.3125,255.6563 1081.625,255.7813 1080.8594,255.7813 C1078.8125,255.7813 1077.5156,254.6875 1077.5156,252.9844 L1077.5156,251.8906 C1077.5156,250.1094 1078.7656,248.7969 1080.5,248.7969 C1081.0781,248.7969 1081.6875,248.9531 1082.1563,249.2031 C1082.6406,249.4844 1082.8125,249.7031 1082.9063,250.1094 C1082.9688,250.5156 1083,250.6406 1083.1406,250.7656 C1083.2813,250.9063 1083.5156,251.0156 1083.7344,251.0156 C1084,251.0156 1084.2656,250.875 1084.4375,250.6563 C1084.5469,250.5 1084.5781,250.3125 1084.5781,249.8906 L1084.5781,248.4688 C1084.5781,248.0313 1084.5625,247.9063 1084.4688,247.75 C1084.3125,247.4844 1084.0313,247.3438 1083.7344,247.3438 C1083.4375,247.3438 1083.2344,247.4375 1083.0156,247.75 L1082.8438,247.6719 Z " fill="#000000"/><text fill="#000000" font-family="sans-serif" font-size="12" lengthAdjust="spacing" textLength="33" x="1094.5" y="256.1543">Reply</text><rect fill="#FFFFFF" height="15.9688" style="stroke:#000000;stroke-width:1.0;stroke-dasharray:2.0,2.0;" width="80" x="1135.5" y="233"/><text fill="#000000" font-family="sans-serif" font-size="12" font-style="italic" lengthAdjust="spacing" textLength="78" x="1136.5" y="245.1387">type of value</text><line style="stroke:#A80036;stroke-width:1.5;" x1="1066.5" x2="1211.5" y1="268" y2="268"/><line style="stroke:#A80036;stroke-width:1.5;" x1="1066.5" x2="1211.5" y1="276" y2="276"/><ellipse cx="1076.5" cy="287" fill="#84BE84" rx="3" ry="3" style="stroke:#038048;stroke-width:1.0;"/><text fill="#000000" font-family="sans-serif" font-size="11" lengthAdjust="spacing" textLength="120" x="1085.5" y="290.2104">Reply(&lt;type&gt; value)</text><!--MD5=[48e88c162c5505361c629eb6ff3812a8]
class GameState--><rect codeLine="58" fill="#FEFECE" filter="url(#f1o4j1yurs4m3t)" height="86.4141" id="GameState" style="stroke:#A80036;stroke-width:1.5;" width="262" x="479" y="223.5"/><ellipse cx="517.85" cy="239.5" fill="#ADD1B2" rx="11" ry="11" style="stroke:#A80036;stroke-width:1.0;"/><path d="M520.1938,235.1719 C519.2563,234.7344 518.6625,234.5938 517.7875,234.5938 C515.1625,234.5938 513.1625,236.6719 513.1625,239.3906 L513.1625,240.5156 C513.1625,243.0938 515.2719,244.9844 518.1625,244.9844 C519.3813,244.9844 520.5375,244.6875 521.2875,244.1406 C521.8656,243.7344 522.1938,243.2813 522.1938,242.8906 C522.1938,242.4375 521.8031,242.0469 521.3344,242.0469 C521.1156,242.0469 520.9125,242.125 520.725,242.3125 C520.2719,242.7969 520.2719,242.7969 520.0844,242.8906 C519.6625,243.1563 518.975,243.2813 518.2094,243.2813 C516.1625,243.2813 514.8656,242.1875 514.8656,240.4844 L514.8656,239.3906 C514.8656,237.6094 516.1156,236.2969 517.85,236.2969 C518.4281,236.2969 519.0375,236.4531 519.5063,236.7031 C519.9906,236.9844 520.1625,237.2031 520.2563,237.6094 C520.3188,238.0156 520.35,238.1406 520.4906,238.2656 C520.6313,238.4063 520.8656,238.5156 521.0844,238.5156 C521.35,238.5156 521.6156,238.375 521.7875,238.1563 C521.8969,238 521.9281,237.8125 521.9281,237.3906 L521.9281,235.9688 C521.9281,235.5313 521.9125,235.4063 521.8188,235.25 C521.6625,234.9844 521.3813,234.8438 521.0844,234.8438 C520.7875,234.8438 520.5844,234.9375 520.3656,235.25 L520.1938,235.1719 Z " fill="#000000"/><text fill="#000000" font-family="sans-serif" font-size="12" lengthAdjust="spacing" textLength="66" x="537.15" y="243.6543">GameState</text><rect fill="#FFFFFF" height="15.9688" style="stroke:#000000;stroke-width:1.0;stroke-dasharray:2.0,2.0;" width="109" x="635" y="220.5"/><text fill="#000000" font-family="sans-serif" font-size="12" font-style="italic" lengthAdjust="spacing" textLength="107" x="636" y="232.6387">in server package</text><line style="stroke:#A80036;stroke-width:1.5;" x1="480" x2="740" y1="255.5" y2="255.5"/><ellipse cx="490" cy="266.5" rx="3" ry="3" style="stroke:#038048;stroke-width:1.0;fill:none;"/><text fill="#000000" font-family="sans-serif" font-size="11" lengthAdjust="spacing" textLength="175" x="499" y="269.7104">HashMap&lt;PlayerLT, int Score&gt;</text><text fill="#000000" font-family="sans-serif" font-size="11" lengthAdjust="spacing" textLength="188" x="499" y="282.5151">Conversion from Play to PlayerLT</text><line style="stroke:#A80036;stroke-width:1.5;" x1="480" x2="740" y1="289.1094" y2="289.1094"/><ellipse cx="490" cy="300.1094" fill="#84BE84" rx="3" ry="3" style="stroke:#038048;stroke-width:1.0;"/><text fill="#000000" font-family="sans-serif" font-size="11" lengthAdjust="spacing" textLength="236" x="499" y="303.3198">GameState(HashMap&lt;Player, int Score&gt;)</text><!--MD5=[68b397a6cc0db00cadb510cf20615fe4]
reverse link CommData to Order--><path codeLine="55" d="M965.696,144.862 C957.388,172.939 947.85,205.172 940.725,229.253 " fill="none" id="CommData-backto-Order" style="stroke:#A80036;stroke-width:1.0;"/><polygon fill="none" points="959.089,142.52,971.476,125.328,972.513,146.492,959.089,142.52" style="stroke:#A80036;stroke-width:1.0;"/><!--MD5=[86e6a6ba0b91dfc2ef550b7e503361ab]
reverse link CommData to Reply--><path codeLine="56" d="M1033.04,140.742 C1059.92,172.384 1092.09,210.268 1113.88,235.9246 " fill="none" id="CommData-backto-Reply" style="stroke:#A80036;stroke-width:1.0;"/><polygon fill="none" points="1027.56,145.103,1019.95,125.328,1038.23,136.04,1027.56,145.103" style="stroke:#A80036;stroke-width:1.0;"/><!--MD5=[2bd7d743195d84e931bfa2f7cd7def77]
link ServerPacket to ClientPacket--><!--MD5=[069f6402e9f878fd3b72feafdcfa45c8]
link ClientPacket to PacketType--><!--MD5=[a6fd693ad8490fed36c545205a2cca3c]
link ServerPacket to LoadScene--><!--MD5=[88e23f697478f99288e8a56b0df52fb8]
link LoadScene to OrderTypeLookupTable--><!--MD5=[157cb7287fd0dbaddd02e465b50b62de]
link OrderTypeLookupTable to GameState--><!--MD5=[c6bc2f023f4fdc1e3debb9009f2aaa09]
@startuml
class ServerPacket {
    + byte packetType 
      [PacketType]
    + Order<?> orderType 
      [Initialise, GameState, LoadScene]
    + Packet(packetType, orderType, orderValue)
    + getPacketType()
    + getOrderType()
    + getOrderObj()
}
class ClientPacket {
    + byte packetType
      [replying to order, or sending a game input]
    + Order replyingTo
    + Reply<?> reply
    + ClientPacket(packetType, replyingTo, reply)
    + ClientPacket(packetType, value)
    + getPacketType()

    
}
class PacketType{
    - INITIALISE = 0
    - ORDER = 1
    - ORDER_REPLY = 2
    - LoadScene = 3
    - LOAD_IMAGE = 4
    - GameInput = 5
    - GameState = 6
}
class LoadScene{
    - MATCHMAKING_SCENE = 1
    - GAME_SCENE = 2
    - WINNER_SCENE = 3
    - LOSER_SCENE = 4
}
class OrderTypeLookupTable{
    + Initialise = 0
    + GameState = 1
    + LoadScene = 3
    + LoadImage = 4
}
class CommData<type of value>{
    # <type of value> value
    + CommData(<type> value)
    + <type of value> getValue()
}
class Order<type of value>{
    + Order(<type of value> value);
    + equals()
}
class Reply<type of value>{
    + Reply(<type> value)
}
CommData <|- - Order
CommData <|- - Reply
' Done by: Reply<T> extends CommData<T>
class GameState<in server package> {
    + HashMap<PlayerLT, int Score>
    + GameState(HashMap<Player, int Score>)
      Conversion from Play to PlayerLT

}
@enduml

@startuml
class ServerPacket {
    + byte packetType 
      [PacketType]
    + Order<?> orderType 
      [Initialise, GameState, LoadScene]
    + Packet(packetType, orderType, orderValue)
    + getPacketType()
    + getOrderType()
    + getOrderObj()
}
class ClientPacket {
    + byte packetType
      [replying to order, or sending a game input]
    + Order replyingTo
    + Reply<?> reply
    + ClientPacket(packetType, replyingTo, reply)
    + ClientPacket(packetType, value)
    + getPacketType()

    
}
class PacketType{
    - INITIALISE = 0
    - ORDER = 1
    - ORDER_REPLY = 2
    - LoadScene = 3
    - LOAD_IMAGE = 4
    - GameInput = 5
    - GameState = 6
}
class LoadScene{
    - MATCHMAKING_SCENE = 1
    - GAME_SCENE = 2
    - WINNER_SCENE = 3
    - LOSER_SCENE = 4
}
class OrderTypeLookupTable{
    + Initialise = 0
    + GameState = 1
    + LoadScene = 3
    + LoadImage = 4
}
class CommData<type of value>{
    # <type of value> value
    + CommData(<type> value)
    + <type of value> getValue()
}
class Order<type of value>{
    + Order(<type of value> value);
    + equals()
}
class Reply<type of value>{
    + Reply(<type> value)
}
CommData <|- - Order
CommData <|- - Reply
class GameState<in server package> {
    + HashMap<PlayerLT, int Score>
    + GameState(HashMap<Player, int Score>)
      Conversion from Play to PlayerLT

}
@enduml

PlantUML version 1.2021.9beta2(Unknown compile time)
(GPL source distribution)
Java Runtime: Java(TM) SE Runtime Environment
JVM: Java HotSpot(TM) 64-Bit Server VM
Default Encoding: UTF-8
Language: en
Country: US
--></g></svg>