<?xml version="1.0" encoding="UTF-8" standalone="no"?><svg xmlns="http://www.w3.org/2000/svg" xmlns:xlink="http://www.w3.org/1999/xlink" contentScriptType="application/ecmascript" contentStyleType="text/css" height="330px" preserveAspectRatio="none" style="width:1225px;height:330px;background:#FFFFFF;" version="1.1" viewBox="0 0 1225 330" width="1225px" zoomAndPan="magnify"><defs><filter height="300%" id="fz9ei8m4bzb91" width="300%" x="-1" y="-1"><feGaussianBlur result="blurOut" stdDeviation="2.0"/><feColorMatrix in="blurOut" result="blurOut2" type="matrix" values="0 0 0 0 0 0 0 0 0 0 0 0 0 0 0 0 0 0 .4 0"/><feOffset dx="4.0" dy="4.0" in="blurOut2" result="blurOut3"/><feBlend in="SourceGraphic" in2="blurOut3" mode="normal"/></filter></defs><g><!--MD5=[55057eaf137c0defb4243fa4a606c629]
class ServerPacket--><rect codeLine="1" fill="#FEFECE" filter="url(#fz9ei8m4bzb91)" height="150.4375" id="ServerPacket" style="stroke:#A80036;stroke-width:1.5;" width="274" x="7" y="7"/><ellipse cx="99.75" cy="23" fill="#ADD1B2" rx="11" ry="11" style="stroke:#A80036;stroke-width:1.0;"/><path d="M102.0938,18.6719 C101.1563,18.2344 100.5625,18.0938 99.6875,18.0938 C97.0625,18.0938 95.0625,20.1719 95.0625,22.8906 L95.0625,24.0156 C95.0625,26.5938 97.1719,28.4844 100.0625,28.4844 C101.2813,28.4844 102.4375,28.1875 103.1875,27.6406 C103.7656,27.2344 104.0938,26.7813 104.0938,26.3906 C104.0938,25.9375 103.7031,25.5469 103.2344,25.5469 C103.0156,25.5469 102.8125,25.625 102.625,25.8125 C102.1719,26.2969 102.1719,26.2969 101.9844,26.3906 C101.5625,26.6563 100.875,26.7813 100.1094,26.7813 C98.0625,26.7813 96.7656,25.6875 96.7656,23.9844 L96.7656,22.8906 C96.7656,21.1094 98.0156,19.7969 99.75,19.7969 C100.3281,19.7969 100.9375,19.9531 101.4063,20.2031 C101.8906,20.4844 102.0625,20.7031 102.1563,21.1094 C102.2188,21.5156 102.25,21.6406 102.3906,21.7656 C102.5313,21.9063 102.7656,22.0156 102.9844,22.0156 C103.25,22.0156 103.5156,21.875 103.6875,21.6563 C103.7969,21.5 103.8281,21.3125 103.8281,20.8906 L103.8281,19.4688 C103.8281,19.0313 103.8125,18.9063 103.7188,18.75 C103.5625,18.4844 103.2813,18.3438 102.9844,18.3438 C102.6875,18.3438 102.4844,18.4375 102.2656,18.75 L102.0938,18.6719 Z " fill="#000000"/><text fill="#000000" font-family="sans-serif" font-size="12" lengthAdjust="spacing" textLength="80" x="120.25" y="27.1543">ServerPacket</text><line style="stroke:#A80036;stroke-width:1.5;" x1="8" x2="280" y1="39" y2="39"/><ellipse cx="18" cy="50" rx="3" ry="3" style="stroke:#038048;stroke-width:1.0;fill:none;"/><text fill="#000000" font-family="sans-serif" font-size="11" lengthAdjust="spacing" textLength="97" x="27" y="53.2104">byte packetType</text><text fill="#000000" font-family="sans-serif" font-size="11" lengthAdjust="spacing" textLength="74" x="27" y="66.0151">[PacketType]</text><ellipse cx="18" cy="75.6094" rx="3" ry="3" style="stroke:#038048;stroke-width:1.0;fill:none;"/><text fill="#000000" font-family="sans-serif" font-size="11" lengthAdjust="spacing" textLength="119" x="27" y="78.8198">Order&lt;?&gt; orderType</text><text fill="#000000" font-family="sans-serif" font-size="11" lengthAdjust="spacing" textLength="199" x="27" y="91.6245">[Initialise, GameState, LoadScene]</text><line style="stroke:#A80036;stroke-width:1.5;" x1="8" x2="280" y1="98.2188" y2="98.2188"/><ellipse cx="18" cy="109.2188" fill="#84BE84" rx="3" ry="3" style="stroke:#038048;stroke-width:1.0;"/><text fill="#000000" font-family="sans-serif" font-size="11" lengthAdjust="spacing" textLength="248" x="27" y="112.4292">Packet(packetType, orderType, orderValue)</text><ellipse cx="18" cy="122.0234" fill="#84BE84" rx="3" ry="3" style="stroke:#038048;stroke-width:1.0;"/><text fill="#000000" font-family="sans-serif" font-size="11" lengthAdjust="spacing" textLength="93" x="27" y="125.2339">getPacketType()</text><ellipse cx="18" cy="134.8281" fill="#84BE84" rx="3" ry="3" style="stroke:#038048;stroke-width:1.0;"/><text fill="#000000" font-family="sans-serif" font-size="11" lengthAdjust="spacing" textLength="88" x="27" y="138.0386">getOrderType()</text><ellipse cx="18" cy="147.6328" fill="#84BE84" rx="3" ry="3" style="stroke:#038048;stroke-width:1.0;"/><text fill="#000000" font-family="sans-serif" font-size="11" lengthAdjust="spacing" textLength="78" x="27" y="150.8433">getOrderObj()</text><!--MD5=[2c444d4f3c0d565efd475698377c7e89]
class ClientPacket--><rect codeLine="11" fill="#FEFECE" filter="url(#fz9ei8m4bzb91)" height="137.6328" id="ClientPacket" style="stroke:#A80036;stroke-width:1.5;" width="274" x="316" y="13"/><ellipse cx="412.75" cy="29" fill="#ADD1B2" rx="11" ry="11" style="stroke:#A80036;stroke-width:1.0;"/><path d="M415.0938,24.6719 C414.1563,24.2344 413.5625,24.0938 412.6875,24.0938 C410.0625,24.0938 408.0625,26.1719 408.0625,28.8906 L408.0625,30.0156 C408.0625,32.5938 410.1719,34.4844 413.0625,34.4844 C414.2813,34.4844 415.4375,34.1875 416.1875,33.6406 C416.7656,33.2344 417.0938,32.7813 417.0938,32.3906 C417.0938,31.9375 416.7031,31.5469 416.2344,31.5469 C416.0156,31.5469 415.8125,31.625 415.625,31.8125 C415.1719,32.2969 415.1719,32.2969 414.9844,32.3906 C414.5625,32.6563 413.875,32.7813 413.1094,32.7813 C411.0625,32.7813 409.7656,31.6875 409.7656,29.9844 L409.7656,28.8906 C409.7656,27.1094 411.0156,25.7969 412.75,25.7969 C413.3281,25.7969 413.9375,25.9531 414.4063,26.2031 C414.8906,26.4844 415.0625,26.7031 415.1563,27.1094 C415.2188,27.5156 415.25,27.6406 415.3906,27.7656 C415.5313,27.9063 415.7656,28.0156 415.9844,28.0156 C416.25,28.0156 416.5156,27.875 416.6875,27.6563 C416.7969,27.5 416.8281,27.3125 416.8281,26.8906 L416.8281,25.4688 C416.8281,25.0313 416.8125,24.9063 416.7188,24.75 C416.5625,24.4844 416.2813,24.3438 415.9844,24.3438 C415.6875,24.3438 415.4844,24.4375 415.2656,24.75 L415.0938,24.6719 Z " fill="#000000"/><text fill="#000000" font-family="sans-serif" font-size="12" lengthAdjust="spacing" textLength="72" x="433.25" y="33.1543">ClientPacket</text><line style="stroke:#A80036;stroke-width:1.5;" x1="317" x2="589" y1="45" y2="45"/><ellipse cx="327" cy="56" rx="3" ry="3" style="stroke:#038048;stroke-width:1.0;fill:none;"/><text fill="#000000" font-family="sans-serif" font-size="11" lengthAdjust="spacing" textLength="97" x="336" y="59.2104">byte packetType</text><text fill="#000000" font-family="sans-serif" font-size="11" lengthAdjust="spacing" textLength="246" x="336" y="72.0151">[replying to order, or sending a gameinput]</text><ellipse cx="327" cy="81.6094" rx="3" ry="3" style="stroke:#038048;stroke-width:1.0;fill:none;"/><text fill="#000000" font-family="sans-serif" font-size="11" lengthAdjust="spacing" textLength="96" x="336" y="84.8198">Order replyingTo</text><ellipse cx="327" cy="94.4141" rx="3" ry="3" style="stroke:#038048;stroke-width:1.0;fill:none;"/><text fill="#000000" font-family="sans-serif" font-size="11" lengthAdjust="spacing" textLength="89" x="336" y="97.6245">Reply&lt;?&gt; reply</text><line style="stroke:#A80036;stroke-width:1.5;" x1="317" x2="589" y1="104.2188" y2="104.2188"/><ellipse cx="327" cy="115.2188" fill="#84BE84" rx="3" ry="3" style="stroke:#038048;stroke-width:1.0;"/><text fill="#000000" font-family="sans-serif" font-size="11" lengthAdjust="spacing" textLength="248" x="336" y="118.4292">ClientPacket(packetType, replyingTo, reply)</text><ellipse cx="327" cy="128.0234" fill="#84BE84" rx="3" ry="3" style="stroke:#038048;stroke-width:1.0;"/><text fill="#000000" font-family="sans-serif" font-size="11" lengthAdjust="spacing" textLength="184" x="336" y="131.2339">ClientPacket(packetType, value)</text><ellipse cx="327" cy="140.8281" fill="#84BE84" rx="3" ry="3" style="stroke:#038048;stroke-width:1.0;"/><text fill="#000000" font-family="sans-serif" font-size="11" lengthAdjust="spacing" textLength="93" x="336" y="144.0386">getPacketType()</text><!--MD5=[979e0f49fe01282a98e1c005054f5cf7]
class PacketType--><rect codeLine="22" fill="#FEFECE" filter="url(#fz9ei8m4bzb91)" height="137.6328" id="PacketType" style="stroke:#A80036;stroke-width:1.5;" width="128" x="625" y="13"/><ellipse cx="652.15" cy="29" fill="#ADD1B2" rx="11" ry="11" style="stroke:#A80036;stroke-width:1.0;"/><path d="M654.4938,24.6719 C653.5563,24.2344 652.9625,24.0938 652.0875,24.0938 C649.4625,24.0938 647.4625,26.1719 647.4625,28.8906 L647.4625,30.0156 C647.4625,32.5938 649.5719,34.4844 652.4625,34.4844 C653.6813,34.4844 654.8375,34.1875 655.5875,33.6406 C656.1656,33.2344 656.4938,32.7813 656.4938,32.3906 C656.4938,31.9375 656.1031,31.5469 655.6344,31.5469 C655.4156,31.5469 655.2125,31.625 655.025,31.8125 C654.5719,32.2969 654.5719,32.2969 654.3844,32.3906 C653.9625,32.6563 653.275,32.7813 652.5094,32.7813 C650.4625,32.7813 649.1656,31.6875 649.1656,29.9844 L649.1656,28.8906 C649.1656,27.1094 650.4156,25.7969 652.15,25.7969 C652.7281,25.7969 653.3375,25.9531 653.8063,26.2031 C654.2906,26.4844 654.4625,26.7031 654.5563,27.1094 C654.6188,27.5156 654.65,27.6406 654.7906,27.7656 C654.9313,27.9063 655.1656,28.0156 655.3844,28.0156 C655.65,28.0156 655.9156,27.875 656.0875,27.6563 C656.1969,27.5 656.2281,27.3125 656.2281,26.8906 L656.2281,25.4688 C656.2281,25.0313 656.2125,24.9063 656.1188,24.75 C655.9625,24.4844 655.6813,24.3438 655.3844,24.3438 C655.0875,24.3438 654.8844,24.4375 654.6656,24.75 L654.4938,24.6719 Z " fill="#000000"/><text fill="#000000" font-family="sans-serif" font-size="12" lengthAdjust="spacing" textLength="69" x="668.85" y="33.1543">PacketType</text><line style="stroke:#A80036;stroke-width:1.5;" x1="626" x2="752" y1="45" y2="45"/><rect fill="none" height="6" style="stroke:#C82930;stroke-width:1.0;" width="6" x="633" y="53"/><text fill="#000000" font-family="sans-serif" font-size="11" lengthAdjust="spacing" textLength="80" x="645" y="59.2104">INITIALISE = 0</text><rect fill="none" height="6" style="stroke:#C82930;stroke-width:1.0;" width="6" x="633" y="65.8047"/><text fill="#000000" font-family="sans-serif" font-size="11" lengthAdjust="spacing" textLength="63" x="645" y="72.0151">ORDER = 1</text><rect fill="none" height="6" style="stroke:#C82930;stroke-width:1.0;" width="6" x="633" y="78.6094"/><text fill="#000000" font-family="sans-serif" font-size="11" lengthAdjust="spacing" textLength="102" x="645" y="84.8198">ORDER_REPLY = 2</text><rect fill="none" height="6" style="stroke:#C82930;stroke-width:1.0;" width="6" x="633" y="91.4141"/><text fill="#000000" font-family="sans-serif" font-size="11" lengthAdjust="spacing" textLength="88" x="645" y="97.6245">LoadScene = 3</text><rect fill="none" height="6" style="stroke:#C82930;stroke-width:1.0;" width="6" x="633" y="104.2188"/><text fill="#000000" font-family="sans-serif" font-size="11" lengthAdjust="spacing" textLength="98" x="645" y="110.4292">LOAD_IMAGE = 4</text><rect fill="none" height="6" style="stroke:#C82930;stroke-width:1.0;" width="6" x="633" y="117.0234"/><text fill="#000000" font-family="sans-serif" font-size="11" lengthAdjust="spacing" textLength="87" x="645" y="123.2339">GameInput = 5</text><rect fill="none" height="6" style="stroke:#C82930;stroke-width:1.0;" width="6" x="633" y="129.8281"/><text fill="#000000" font-family="sans-serif" font-size="11" lengthAdjust="spacing" textLength="90" x="645" y="136.0386">GameState = 6</text><line style="stroke:#A80036;stroke-width:1.5;" x1="626" x2="752" y1="142.6328" y2="142.6328"/><!--MD5=[f3fd2181b0c28e3ad6671cc6577ed764]
class LoadScene--><rect codeLine="31" fill="#FEFECE" filter="url(#fz9ei8m4bzb91)" height="99.2188" id="LoadScene" style="stroke:#A80036;stroke-width:1.5;" width="178" x="55" y="217"/><ellipse cx="106.25" cy="233" fill="#ADD1B2" rx="11" ry="11" style="stroke:#A80036;stroke-width:1.0;"/><path d="M108.5938,228.6719 C107.6563,228.2344 107.0625,228.0938 106.1875,228.0938 C103.5625,228.0938 101.5625,230.1719 101.5625,232.8906 L101.5625,234.0156 C101.5625,236.5938 103.6719,238.4844 106.5625,238.4844 C107.7813,238.4844 108.9375,238.1875 109.6875,237.6406 C110.2656,237.2344 110.5938,236.7813 110.5938,236.3906 C110.5938,235.9375 110.2031,235.5469 109.7344,235.5469 C109.5156,235.5469 109.3125,235.625 109.125,235.8125 C108.6719,236.2969 108.6719,236.2969 108.4844,236.3906 C108.0625,236.6563 107.375,236.7813 106.6094,236.7813 C104.5625,236.7813 103.2656,235.6875 103.2656,233.9844 L103.2656,232.8906 C103.2656,231.1094 104.5156,229.7969 106.25,229.7969 C106.8281,229.7969 107.4375,229.9531 107.9063,230.2031 C108.3906,230.4844 108.5625,230.7031 108.6563,231.1094 C108.7188,231.5156 108.75,231.6406 108.8906,231.7656 C109.0313,231.9063 109.2656,232.0156 109.4844,232.0156 C109.75,232.0156 110.0156,231.875 110.1875,231.6563 C110.2969,231.5 110.3281,231.3125 110.3281,230.8906 L110.3281,229.4688 C110.3281,229.0313 110.3125,228.9063 110.2188,228.75 C110.0625,228.4844 109.7813,228.3438 109.4844,228.3438 C109.1875,228.3438 108.9844,228.4375 108.7656,228.75 L108.5938,228.6719 Z " fill="#000000"/><text fill="#000000" font-family="sans-serif" font-size="12" lengthAdjust="spacing" textLength="67" x="126.75" y="237.1543">LoadScene</text><line style="stroke:#A80036;stroke-width:1.5;" x1="56" x2="232" y1="249" y2="249"/><rect fill="none" height="6" style="stroke:#C82930;stroke-width:1.0;" width="6" x="63" y="257"/><text fill="#000000" font-family="sans-serif" font-size="11" lengthAdjust="spacing" textLength="152" x="75" y="263.2104">MATCHMAKING_SCENE = 1</text><rect fill="none" height="6" style="stroke:#C82930;stroke-width:1.0;" width="6" x="63" y="269.8047"/><text fill="#000000" font-family="sans-serif" font-size="11" lengthAdjust="spacing" textLength="101" x="75" y="276.0151">GAME_SCENE = 2</text><rect fill="none" height="6" style="stroke:#C82930;stroke-width:1.0;" width="6" x="63" y="282.6094"/><text fill="#000000" font-family="sans-serif" font-size="11" lengthAdjust="spacing" textLength="112" x="75" y="288.8198">WINNER_SCENE = 3</text><rect fill="none" height="6" style="stroke:#C82930;stroke-width:1.0;" width="6" x="63" y="295.4141"/><text fill="#000000" font-family="sans-serif" font-size="11" lengthAdjust="spacing" textLength="105" x="75" y="301.6245">LOSER_SCENE = 4</text><line style="stroke:#A80036;stroke-width:1.5;" x1="56" x2="232" y1="308.2188" y2="308.2188"/><!--MD5=[3540325f36fb5dff783f7b37f3cd0b7c]
class OrderTypeLookupTable--><rect codeLine="37" fill="#FEFECE" filter="url(#fz9ei8m4bzb91)" height="86.4141" id="OrderTypeLookupTable" style="stroke:#A80036;stroke-width:1.5;" width="175" x="268.5" y="223.5"/><ellipse cx="283.5" cy="239.5" fill="#ADD1B2" rx="11" ry="11" style="stroke:#A80036;stroke-width:1.0;"/><path d="M285.8438,235.1719 C284.9063,234.7344 284.3125,234.5938 283.4375,234.5938 C280.8125,234.5938 278.8125,236.6719 278.8125,239.3906 L278.8125,240.5156 C278.8125,243.0938 280.9219,244.9844 283.8125,244.9844 C285.0313,244.9844 286.1875,244.6875 286.9375,244.1406 C287.5156,243.7344 287.8438,243.2813 287.8438,242.8906 C287.8438,242.4375 287.4531,242.0469 286.9844,242.0469 C286.7656,242.0469 286.5625,242.125 286.375,242.3125 C285.9219,242.7969 285.9219,242.7969 285.7344,242.8906 C285.3125,243.1563 284.625,243.2813 283.8594,243.2813 C281.8125,243.2813 280.5156,242.1875 280.5156,240.4844 L280.5156,239.3906 C280.5156,237.6094 281.7656,236.2969 283.5,236.2969 C284.0781,236.2969 284.6875,236.4531 285.1563,236.7031 C285.6406,236.9844 285.8125,237.2031 285.9063,237.6094 C285.9688,238.0156 286,238.1406 286.1406,238.2656 C286.2813,238.4063 286.5156,238.5156 286.7344,238.5156 C287,238.5156 287.2656,238.375 287.4375,238.1563 C287.5469,238 287.5781,237.8125 287.5781,237.3906 L287.5781,235.9688 C287.5781,235.5313 287.5625,235.4063 287.4688,235.25 C287.3125,234.9844 287.0313,234.8438 286.7344,234.8438 C286.4375,234.8438 286.2344,234.9375 286.0156,235.25 L285.8438,235.1719 Z " fill="#000000"/><text fill="#000000" font-family="sans-serif" font-size="12" lengthAdjust="spacing" textLength="143" x="297.5" y="243.6543">OrderTypeLookupTable</text><line style="stroke:#A80036;stroke-width:1.5;" x1="269.5" x2="442.5" y1="255.5" y2="255.5"/><ellipse cx="279.5" cy="266.5" rx="3" ry="3" style="stroke:#038048;stroke-width:1.0;fill:none;"/><text fill="#000000" font-family="sans-serif" font-size="11" lengthAdjust="spacing" textLength="71" x="288.5" y="269.7104">Initialise = 0</text><ellipse cx="279.5" cy="279.3047" rx="3" ry="3" style="stroke:#038048;stroke-width:1.0;fill:none;"/><text fill="#000000" font-family="sans-serif" font-size="11" lengthAdjust="spacing" textLength="90" x="288.5" y="282.5151">GameState = 1</text><ellipse cx="279.5" cy="292.1094" rx="3" ry="3" style="stroke:#038048;stroke-width:1.0;fill:none;"/><text fill="#000000" font-family="sans-serif" font-size="11" lengthAdjust="spacing" textLength="88" x="288.5" y="295.3198">LoadScene = 3</text><line style="stroke:#A80036;stroke-width:1.5;" x1="269.5" x2="442.5" y1="301.9141" y2="301.9141"/><!--MD5=[9944769981053e43239e30a25ad703bf]
class CommData--><rect codeLine="42" fill="#FEFECE" filter="url(#fz9ei8m4bzb91)" height="86.4141" id="CommData" style="stroke:#A80036;stroke-width:1.5;" width="185" x="890.5" y="39"/><ellipse cx="908.2" cy="55" fill="#ADD1B2" rx="11" ry="11" style="stroke:#A80036;stroke-width:1.0;"/><path d="M910.5438,50.6719 C909.6063,50.2344 909.0125,50.0938 908.1375,50.0938 C905.5125,50.0938 903.5125,52.1719 903.5125,54.8906 L903.5125,56.0156 C903.5125,58.5938 905.6219,60.4844 908.5125,60.4844 C909.7313,60.4844 910.8875,60.1875 911.6375,59.6406 C912.2156,59.2344 912.5438,58.7813 912.5438,58.3906 C912.5438,57.9375 912.1531,57.5469 911.6844,57.5469 C911.4656,57.5469 911.2625,57.625 911.075,57.8125 C910.6219,58.2969 910.6219,58.2969 910.4344,58.3906 C910.0125,58.6563 909.325,58.7813 908.5594,58.7813 C906.5125,58.7813 905.2156,57.6875 905.2156,55.9844 L905.2156,54.8906 C905.2156,53.1094 906.4656,51.7969 908.2,51.7969 C908.7781,51.7969 909.3875,51.9531 909.8563,52.2031 C910.3406,52.4844 910.5125,52.7031 910.6063,53.1094 C910.6688,53.5156 910.7,53.6406 910.8406,53.7656 C910.9813,53.9063 911.2156,54.0156 911.4344,54.0156 C911.7,54.0156 911.9656,53.875 912.1375,53.6563 C912.2469,53.5 912.2781,53.3125 912.2781,52.8906 L912.2781,51.4688 C912.2781,51.0313 912.2625,50.9063 912.1688,50.75 C912.0125,50.4844 911.7313,50.3438 911.4344,50.3438 C911.1375,50.3438 910.9344,50.4375 910.7156,50.75 L910.5438,50.6719 Z " fill="#000000"/><text fill="#000000" font-family="sans-serif" font-size="12" lengthAdjust="spacing" textLength="65" x="922.8" y="59.1543">CommData</text><rect fill="#FFFFFF" height="15.9688" style="stroke:#000000;stroke-width:1.0;stroke-dasharray:2.0,2.0;" width="80" x="998.5" y="36"/><text fill="#000000" font-family="sans-serif" font-size="12" font-style="italic" lengthAdjust="spacing" textLength="78" x="999.5" y="48.1387">type of value</text><line style="stroke:#A80036;stroke-width:1.5;" x1="891.5" x2="1074.5" y1="71" y2="71"/><polygon fill="none" points="901.5,77,905.5,81,901.5,85,897.5,81" style="stroke:#B38D22;stroke-width:1.0;"/><text fill="#000000" font-family="sans-serif" font-size="11" lengthAdjust="spacing" textLength="131" x="910.5" y="85.2104">&lt;type of value&gt; value</text><line style="stroke:#A80036;stroke-width:1.5;" x1="891.5" x2="1074.5" y1="91.8047" y2="91.8047"/><ellipse cx="901.5" cy="102.8047" fill="#84BE84" rx="3" ry="3" style="stroke:#038048;stroke-width:1.0;"/><text fill="#000000" font-family="sans-serif" font-size="11" lengthAdjust="spacing" textLength="152" x="910.5" y="106.0151">CommData(&lt;type&gt; value)</text><ellipse cx="901.5" cy="115.6094" fill="#84BE84" rx="3" ry="3" style="stroke:#038048;stroke-width:1.0;"/><text fill="#000000" font-family="sans-serif" font-size="11" lengthAdjust="spacing" textLength="159" x="910.5" y="118.8198">&lt;type of value&gt; getValue()</text><!--MD5=[cf4d6237fcae255cd2e1656cf84a30e2]
class Order--><rect codeLine="47" fill="#FEFECE" filter="url(#fz9ei8m4bzb91)" height="73.6094" id="Order" style="stroke:#A80036;stroke-width:1.5;" width="200" x="829" y="229.5"/><ellipse cx="866.5" cy="245.5" fill="#ADD1B2" rx="11" ry="11" style="stroke:#A80036;stroke-width:1.0;"/><path d="M868.8438,241.1719 C867.9063,240.7344 867.3125,240.5938 866.4375,240.5938 C863.8125,240.5938 861.8125,242.6719 861.8125,245.3906 L861.8125,246.5156 C861.8125,249.0938 863.9219,250.9844 866.8125,250.9844 C868.0313,250.9844 869.1875,250.6875 869.9375,250.1406 C870.5156,249.7344 870.8438,249.2813 870.8438,248.8906 C870.8438,248.4375 870.4531,248.0469 869.9844,248.0469 C869.7656,248.0469 869.5625,248.125 869.375,248.3125 C868.9219,248.7969 868.9219,248.7969 868.7344,248.8906 C868.3125,249.1563 867.625,249.2813 866.8594,249.2813 C864.8125,249.2813 863.5156,248.1875 863.5156,246.4844 L863.5156,245.3906 C863.5156,243.6094 864.7656,242.2969 866.5,242.2969 C867.0781,242.2969 867.6875,242.4531 868.1563,242.7031 C868.6406,242.9844 868.8125,243.2031 868.9063,243.6094 C868.9688,244.0156 869,244.1406 869.1406,244.2656 C869.2813,244.4063 869.5156,244.5156 869.7344,244.5156 C870,244.5156 870.2656,244.375 870.4375,244.1563 C870.5469,244 870.5781,243.8125 870.5781,243.3906 L870.5781,241.9688 C870.5781,241.5313 870.5625,241.4063 870.4688,241.25 C870.3125,240.9844 870.0313,240.8438 869.7344,240.8438 C869.4375,240.8438 869.2344,240.9375 869.0156,241.25 L868.8438,241.1719 Z " fill="#000000"/><text fill="#000000" font-family="sans-serif" font-size="12" lengthAdjust="spacing" textLength="36" x="885.5" y="249.6543">Order</text><rect fill="#FFFFFF" height="15.9688" style="stroke:#000000;stroke-width:1.0;stroke-dasharray:2.0,2.0;" width="80" x="952" y="226.5"/><text fill="#000000" font-family="sans-serif" font-size="12" font-style="italic" lengthAdjust="spacing" textLength="78" x="953" y="238.6387">type of value</text><line style="stroke:#A80036;stroke-width:1.5;" x1="830" x2="1028" y1="261.5" y2="261.5"/><line style="stroke:#A80036;stroke-width:1.5;" x1="830" x2="1028" y1="269.5" y2="269.5"/><ellipse cx="840" cy="280.5" fill="#84BE84" rx="3" ry="3" style="stroke:#038048;stroke-width:1.0;"/><text fill="#000000" font-family="sans-serif" font-size="11" lengthAdjust="spacing" textLength="174" x="849" y="283.7104">Order(&lt;type of value&gt; value);</text><ellipse cx="840" cy="293.3047" fill="#84BE84" rx="3" ry="3" style="stroke:#038048;stroke-width:1.0;"/><text fill="#000000" font-family="sans-serif" font-size="11" lengthAdjust="spacing" textLength="46" x="849" y="296.5151">equals()</text><!--MD5=[cb90de322b018cbf647714665a308163]
class Reply--><rect codeLine="51" fill="#FEFECE" filter="url(#fz9ei8m4bzb91)" height="60.8047" id="Reply" style="stroke:#A80036;stroke-width:1.5;" width="147" x="1064.5" y="236"/><ellipse cx="1079.5" cy="252" fill="#ADD1B2" rx="11" ry="11" style="stroke:#A80036;stroke-width:1.0;"/><path d="M1081.8438,247.6719 C1080.9063,247.2344 1080.3125,247.0938 1079.4375,247.0938 C1076.8125,247.0938 1074.8125,249.1719 1074.8125,251.8906 L1074.8125,253.0156 C1074.8125,255.5938 1076.9219,257.4844 1079.8125,257.4844 C1081.0313,257.4844 1082.1875,257.1875 1082.9375,256.6406 C1083.5156,256.2344 1083.8438,255.7813 1083.8438,255.3906 C1083.8438,254.9375 1083.4531,254.5469 1082.9844,254.5469 C1082.7656,254.5469 1082.5625,254.625 1082.375,254.8125 C1081.9219,255.2969 1081.9219,255.2969 1081.7344,255.3906 C1081.3125,255.6563 1080.625,255.7813 1079.8594,255.7813 C1077.8125,255.7813 1076.5156,254.6875 1076.5156,252.9844 L1076.5156,251.8906 C1076.5156,250.1094 1077.7656,248.7969 1079.5,248.7969 C1080.0781,248.7969 1080.6875,248.9531 1081.1563,249.2031 C1081.6406,249.4844 1081.8125,249.7031 1081.9063,250.1094 C1081.9688,250.5156 1082,250.6406 1082.1406,250.7656 C1082.2813,250.9063 1082.5156,251.0156 1082.7344,251.0156 C1083,251.0156 1083.2656,250.875 1083.4375,250.6563 C1083.5469,250.5 1083.5781,250.3125 1083.5781,249.8906 L1083.5781,248.4688 C1083.5781,248.0313 1083.5625,247.9063 1083.4688,247.75 C1083.3125,247.4844 1083.0313,247.3438 1082.7344,247.3438 C1082.4375,247.3438 1082.2344,247.4375 1082.0156,247.75 L1081.8438,247.6719 Z " fill="#000000"/><text fill="#000000" font-family="sans-serif" font-size="12" lengthAdjust="spacing" textLength="33" x="1093.5" y="256.1543">Reply</text><rect fill="#FFFFFF" height="15.9688" style="stroke:#000000;stroke-width:1.0;stroke-dasharray:2.0,2.0;" width="80" x="1134.5" y="233"/><text fill="#000000" font-family="sans-serif" font-size="12" font-style="italic" lengthAdjust="spacing" textLength="78" x="1135.5" y="245.1387">type of value</text><line style="stroke:#A80036;stroke-width:1.5;" x1="1065.5" x2="1210.5" y1="268" y2="268"/><line style="stroke:#A80036;stroke-width:1.5;" x1="1065.5" x2="1210.5" y1="276" y2="276"/><ellipse cx="1075.5" cy="287" fill="#84BE84" rx="3" ry="3" style="stroke:#038048;stroke-width:1.0;"/><text fill="#000000" font-family="sans-serif" font-size="11" lengthAdjust="spacing" textLength="120" x="1084.5" y="290.2104">Reply(&lt;type&gt; value)</text><!--MD5=[48e88c162c5505361c629eb6ff3812a8]
class GameState--><rect codeLine="57" fill="#FEFECE" filter="url(#fz9ei8m4bzb91)" height="86.4141" id="GameState" style="stroke:#A80036;stroke-width:1.5;" width="262" x="479" y="223.5"/><ellipse cx="517.85" cy="239.5" fill="#ADD1B2" rx="11" ry="11" style="stroke:#A80036;stroke-width:1.0;"/><path d="M520.1938,235.1719 C519.2563,234.7344 518.6625,234.5938 517.7875,234.5938 C515.1625,234.5938 513.1625,236.6719 513.1625,239.3906 L513.1625,240.5156 C513.1625,243.0938 515.2719,244.9844 518.1625,244.9844 C519.3813,244.9844 520.5375,244.6875 521.2875,244.1406 C521.8656,243.7344 522.1938,243.2813 522.1938,242.8906 C522.1938,242.4375 521.8031,242.0469 521.3344,242.0469 C521.1156,242.0469 520.9125,242.125 520.725,242.3125 C520.2719,242.7969 520.2719,242.7969 520.0844,242.8906 C519.6625,243.1563 518.975,243.2813 518.2094,243.2813 C516.1625,243.2813 514.8656,242.1875 514.8656,240.4844 L514.8656,239.3906 C514.8656,237.6094 516.1156,236.2969 517.85,236.2969 C518.4281,236.2969 519.0375,236.4531 519.5063,236.7031 C519.9906,236.9844 520.1625,237.2031 520.2563,237.6094 C520.3188,238.0156 520.35,238.1406 520.4906,238.2656 C520.6313,238.4063 520.8656,238.5156 521.0844,238.5156 C521.35,238.5156 521.6156,238.375 521.7875,238.1563 C521.8969,238 521.9281,237.8125 521.9281,237.3906 L521.9281,235.9688 C521.9281,235.5313 521.9125,235.4063 521.8188,235.25 C521.6625,234.9844 521.3813,234.8438 521.0844,234.8438 C520.7875,234.8438 520.5844,234.9375 520.3656,235.25 L520.1938,235.1719 Z " fill="#000000"/><text fill="#000000" font-family="sans-serif" font-size="12" lengthAdjust="spacing" textLength="66" x="537.15" y="243.6543">GameState</text><rect fill="#FFFFFF" height="15.9688" style="stroke:#000000;stroke-width:1.0;stroke-dasharray:2.0,2.0;" width="109" x="635" y="220.5"/><text fill="#000000" font-family="sans-serif" font-size="12" font-style="italic" lengthAdjust="spacing" textLength="107" x="636" y="232.6387">in server package</text><line style="stroke:#A80036;stroke-width:1.5;" x1="480" x2="740" y1="255.5" y2="255.5"/><ellipse cx="490" cy="266.5" rx="3" ry="3" style="stroke:#038048;stroke-width:1.0;fill:none;"/><text fill="#000000" font-family="sans-serif" font-size="11" lengthAdjust="spacing" textLength="175" x="499" y="269.7104">HashMap&lt;PlayerLT, int Score&gt;</text><text fill="#000000" font-family="sans-serif" font-size="11" lengthAdjust="spacing" textLength="188" x="499" y="282.5151">Conversion from Play to PlayerLT</text><line style="stroke:#A80036;stroke-width:1.5;" x1="480" x2="740" y1="289.1094" y2="289.1094"/><ellipse cx="490" cy="300.1094" fill="#84BE84" rx="3" ry="3" style="stroke:#038048;stroke-width:1.0;"/><text fill="#000000" font-family="sans-serif" font-size="11" lengthAdjust="spacing" textLength="236" x="499" y="303.3198">GameState(HashMap&lt;Player, int Score&gt;)</text><!--MD5=[68b397a6cc0db00cadb510cf20615fe4]
reverse link CommData to Order--><path codeLine="54" d="M964.696,144.862 C956.388,172.939 946.85,205.172 939.725,229.253 " fill="none" id="CommData-backto-Order" style="stroke:#A80036;stroke-width:1.0;"/><polygon fill="none" points="958.089,142.52,970.476,125.328,971.513,146.492,958.089,142.52" style="stroke:#A80036;stroke-width:1.0;"/><!--MD5=[86e6a6ba0b91dfc2ef550b7e503361ab]
reverse link CommData to Reply--><path codeLine="55" d="M1032.04,140.742 C1058.92,172.384 1091.09,210.268 1112.88,235.9246 " fill="none" id="CommData-backto-Reply" style="stroke:#A80036;stroke-width:1.0;"/><polygon fill="none" points="1026.56,145.103,1018.95,125.328,1037.23,136.04,1026.56,145.103" style="stroke:#A80036;stroke-width:1.0;"/><!--MD5=[2bd7d743195d84e931bfa2f7cd7def77]
link ServerPacket to ClientPacket--><!--MD5=[069f6402e9f878fd3b72feafdcfa45c8]
link ClientPacket to PacketType--><!--MD5=[a6fd693ad8490fed36c545205a2cca3c]
link ServerPacket to LoadScene--><!--MD5=[88e23f697478f99288e8a56b0df52fb8]
link LoadScene to OrderTypeLookupTable--><!--MD5=[157cb7287fd0dbaddd02e465b50b62de]
link OrderTypeLookupTable to GameState--><!--MD5=[81b9c9982fa9fe0a30f375f0b3a97b45]
@startuml
class ServerPacket {
    + byte packetType 
      [PacketType]
    + Order<?> orderType 
      [Initialise, GameState, LoadScene]
    + Packet(packetType, orderType, orderValue)
    + getPacketType()
    + getOrderType()
    + getOrderObj()
}
class ClientPacket {
    + byte packetType
      [replying to order, or sending a gameinput]
    + Order replyingTo
    + Reply<?> reply
    + ClientPacket(packetType, replyingTo, reply)
    + ClientPacket(packetType, value)
    + getPacketType()

    
}
class PacketType{
    - INITIALISE = 0
    - ORDER = 1
    - ORDER_REPLY = 2
    - LoadScene = 3
    - LOAD_IMAGE = 4
    - GameInput = 5
    - GameState = 6
}
class LoadScene{
    - MATCHMAKING_SCENE = 1
    - GAME_SCENE = 2
    - WINNER_SCENE = 3
    - LOSER_SCENE = 4
}
class OrderTypeLookupTable{
    + Initialise = 0
    + GameState = 1
    + LoadScene = 3
}
class CommData<type of value>{
    # <type of value> value
    + CommData(<type> value)
    + <type of value> getValue()
}
class Order<type of value>{
    + Order(<type of value> value);
    + equals()
}
class Reply<type of value>{
    + Reply(<type> value)
}
CommData <|- - Order
CommData <|- - Reply
' Done by: Reply<T> extends CommData<T>
class GameState<in server package> {
    + HashMap<PlayerLT, int Score>
    + GameState(HashMap<Player, int Score>)
      Conversion from Play to PlayerLT

}
@enduml

@startuml
class ServerPacket {
    + byte packetType 
      [PacketType]
    + Order<?> orderType 
      [Initialise, GameState, LoadScene]
    + Packet(packetType, orderType, orderValue)
    + getPacketType()
    + getOrderType()
    + getOrderObj()
}
class ClientPacket {
    + byte packetType
      [replying to order, or sending a gameinput]
    + Order replyingTo
    + Reply<?> reply
    + ClientPacket(packetType, replyingTo, reply)
    + ClientPacket(packetType, value)
    + getPacketType()

    
}
class PacketType{
    - INITIALISE = 0
    - ORDER = 1
    - ORDER_REPLY = 2
    - LoadScene = 3
    - LOAD_IMAGE = 4
    - GameInput = 5
    - GameState = 6
}
class LoadScene{
    - MATCHMAKING_SCENE = 1
    - GAME_SCENE = 2
    - WINNER_SCENE = 3
    - LOSER_SCENE = 4
}
class OrderTypeLookupTable{
    + Initialise = 0
    + GameState = 1
    + LoadScene = 3
}
class CommData<type of value>{
    # <type of value> value
    + CommData(<type> value)
    + <type of value> getValue()
}
class Order<type of value>{
    + Order(<type of value> value);
    + equals()
}
class Reply<type of value>{
    + Reply(<type> value)
}
CommData <|- - Order
CommData <|- - Reply
class GameState<in server package> {
    + HashMap<PlayerLT, int Score>
    + GameState(HashMap<Player, int Score>)
      Conversion from Play to PlayerLT

}
@enduml

PlantUML version 1.2021.9beta2(Unknown compile time)
(GPL source distribution)
Java Runtime: Java(TM) SE Runtime Environment
JVM: Java HotSpot(TM) 64-Bit Server VM
Default Encoding: UTF-8
Language: en
Country: US
--></g></svg>