<?xml version="1.0" encoding="UTF-8" standalone="no"?><svg xmlns="http://www.w3.org/2000/svg" xmlns:xlink="http://www.w3.org/1999/xlink" contentScriptType="application/ecmascript" contentStyleType="text/css" height="338px" preserveAspectRatio="none" style="width:556px;height:338px;background:#FFFFFF;" version="1.1" viewBox="0 0 556 338" width="556px" zoomAndPan="magnify"><defs><filter height="300%" id="f1kl9we2y3vfl8" width="300%" x="-1" y="-1"><feGaussianBlur result="blurOut" stdDeviation="2.0"/><feColorMatrix in="blurOut" result="blurOut2" type="matrix" values="0 0 0 0 0 0 0 0 0 0 0 0 0 0 0 0 0 0 .4 0"/><feOffset dx="4.0" dy="4.0" in="blurOut2" result="blurOut3"/><feBlend in="SourceGraphic" in2="blurOut3" mode="normal"/></filter></defs><g><line style="stroke:#A80036;stroke-width:1.0;stroke-dasharray:5.0,5.0;" x1="29" x2="29" y1="88.2969" y2="253.9609"/><line style="stroke:#A80036;stroke-width:1.0;stroke-dasharray:5.0,5.0;" x1="331" x2="331" y1="88.2969" y2="253.9609"/><line style="stroke:#A80036;stroke-width:1.0;stroke-dasharray:5.0,5.0;" x1="398" x2="398" y1="88.2969" y2="253.9609"/><line style="stroke:#A80036;stroke-width:1.0;stroke-dasharray:5.0,5.0;" x1="503" x2="503" y1="88.2969" y2="253.9609"/><text fill="#000000" font-family="sans-serif" font-size="14" lengthAdjust="spacing" textLength="43" x="5" y="84.9951">Client</text><ellipse cx="29.5" cy="15" fill="#FEFECE" filter="url(#f1kl9we2y3vfl8)" rx="8" ry="8" style="stroke:#A80036;stroke-width:2.0;"/><path d="M29.5,23 L29.5,50 M16.5,31 L42.5,31 M29.5,50 L16.5,65 M29.5,50 L42.5,65 " fill="none" filter="url(#f1kl9we2y3vfl8)" style="stroke:#A80036;stroke-width:2.0;"/><text fill="#000000" font-family="sans-serif" font-size="14" lengthAdjust="spacing" textLength="43" x="5" y="265.9561">Client</text><ellipse cx="29.5" cy="279.2578" fill="#FEFECE" filter="url(#f1kl9we2y3vfl8)" rx="8" ry="8" style="stroke:#A80036;stroke-width:2.0;"/><path d="M29.5,287.2578 L29.5,314.2578 M16.5,295.2578 L42.5,295.2578 M29.5,314.2578 L16.5,329.2578 M29.5,314.2578 L42.5,329.2578 " fill="none" filter="url(#f1kl9we2y3vfl8)" style="stroke:#A80036;stroke-width:2.0;"/><rect fill="#FEFECE" filter="url(#f1kl9we2y3vfl8)" height="30.2969" style="stroke:#A80036;stroke-width:1.5;" width="61" x="299" y="53"/><text fill="#000000" font-family="sans-serif" font-size="14" lengthAdjust="spacing" textLength="47" x="306" y="72.9951">Server</text><rect fill="#FEFECE" filter="url(#f1kl9we2y3vfl8)" height="30.2969" style="stroke:#A80036;stroke-width:1.5;" width="61" x="299" y="252.9609"/><text fill="#000000" font-family="sans-serif" font-size="14" lengthAdjust="spacing" textLength="47" x="306" y="272.9561">Server</text><text fill="#000000" font-family="sans-serif" font-size="14" lengthAdjust="spacing" textLength="42" x="374" y="84.9951">Room</text><path d="M380,36 C380,26 398,26 398,26 C398,26 416,26 416,36 L416,62 C416,72 398,72 398,72 C398,72 380,72 380,62 L380,36 " fill="#FEFECE" filter="url(#f1kl9we2y3vfl8)" style="stroke:#000000;stroke-width:1.5;"/><path d="M380,36 C380,46 398,46 398,46 C398,46 416,46 416,36 " fill="none" style="stroke:#000000;stroke-width:1.5;"/><text fill="#000000" font-family="sans-serif" font-size="14" lengthAdjust="spacing" textLength="42" x="374" y="265.9561">Room</text><path d="M380,279.2578 C380,269.2578 398,269.2578 398,269.2578 C398,269.2578 416,269.2578 416,279.2578 L416,305.2578 C416,315.2578 398,315.2578 398,315.2578 C398,315.2578 380,315.2578 380,305.2578 L380,279.2578 " fill="#FEFECE" filter="url(#f1kl9we2y3vfl8)" style="stroke:#000000;stroke-width:1.5;"/><path d="M380,279.2578 C380,289.2578 398,289.2578 398,289.2578 C398,289.2578 416,289.2578 416,279.2578 " fill="none" style="stroke:#000000;stroke-width:1.5;"/><rect fill="#FEFECE" filter="url(#f1kl9we2y3vfl8)" height="30.2969" style="stroke:#A80036;stroke-width:1.5;" width="82" x="460" y="53"/><text fill="#000000" font-family="sans-serif" font-size="14" lengthAdjust="spacing" textLength="68" x="467" y="72.9951">AllClients</text><rect fill="#FEFECE" filter="url(#f1kl9we2y3vfl8)" height="30.2969" style="stroke:#A80036;stroke-width:1.5;" width="82" x="460" y="252.9609"/><text fill="#000000" font-family="sans-serif" font-size="14" lengthAdjust="spacing" textLength="68" x="467" y="272.9561">AllClients</text><polygon fill="#A80036" points="319.5,115.4297,329.5,119.4297,319.5,123.4297,323.5,119.4297" style="stroke:#A80036;stroke-width:1.0;"/><line style="stroke:#A80036;stroke-width:1.0;" x1="29.5" x2="325.5" y1="119.4297" y2="119.4297"/><text fill="#000000" font-family="sans-serif" font-size="13" lengthAdjust="spacing" textLength="53" x="36.5" y="114.3638">Connect</text><polygon fill="#A80036" points="40.5,144.5625,30.5,148.5625,40.5,152.5625,36.5,148.5625" style="stroke:#A80036;stroke-width:1.0;"/><line style="stroke:#A80036;stroke-width:1.0;" x1="34.5" x2="330.5" y1="148.5625" y2="148.5625"/><text fill="#000000" font-family="sans-serif" font-size="13" lengthAdjust="spacing" textLength="278" x="46.5" y="143.4966">Connection Accepted; connect to this room</text><polygon fill="#A80036" points="386,173.6953,396,177.6953,386,181.6953,390,177.6953" style="stroke:#A80036;stroke-width:1.0;"/><line style="stroke:#A80036;stroke-width:1.0;" x1="29.5" x2="392" y1="177.6953" y2="177.6953"/><text fill="#000000" font-family="sans-serif" font-size="13" lengthAdjust="spacing" textLength="178" x="36.5" y="172.6294">Client connects to the room</text><polygon fill="#A80036" points="40.5,202.8281,30.5,206.8281,40.5,210.8281,36.5,206.8281" style="stroke:#A80036;stroke-width:1.0;"/><line style="stroke:#A80036;stroke-width:1.0;" x1="34.5" x2="397" y1="206.8281" y2="206.8281"/><text fill="#000000" font-family="sans-serif" font-size="13" lengthAdjust="spacing" textLength="138" x="46.5" y="201.7622">Load this Hash image</text><polygon fill="#A80036" points="491,231.9609,501,235.9609,491,239.9609,495,235.9609" style="stroke:#A80036;stroke-width:1.0;"/><line style="stroke:#A80036;stroke-width:1.0;" x1="398" x2="497" y1="235.9609" y2="235.9609"/><text fill="#000000" font-family="sans-serif" font-size="13" lengthAdjust="spacing" textLength="81" x="405" y="230.895">Starts Game</text><!--MD5=[f368f71d54e79993cc08cea3b41014d5]
@startuml
actor Client as Client
participant Server as Server
database Room as Room
Client ->Server : Connect
Server -> Client : Connection Accepted; connect to this room
Client -> Room : Client connects to the room

Room -> Client : Load this Hash image
Room -> AllClients : Starts Game
@enduml

PlantUML version 1.2021.9beta2(Unknown compile time)
(GPL source distribution)
Java Runtime: Java(TM) SE Runtime Environment
JVM: Java HotSpot(TM) 64-Bit Server VM
Default Encoding: UTF-8
Language: en
Country: US
--></g></svg>