<?xml version="1.0" encoding="UTF-8" standalone="no"?><svg xmlns="http://www.w3.org/2000/svg" xmlns:xlink="http://www.w3.org/1999/xlink" contentScriptType="application/ecmascript" contentStyleType="text/css" height="279px" preserveAspectRatio="none" style="width:178px;height:279px;background:#FFFFFF;" version="1.1" viewBox="0 0 178 279" width="178px" zoomAndPan="magnify"><defs><filter height="300%" id="f13tn0a6e33hgj" width="300%" x="-1" y="-1"><feGaussianBlur result="blurOut" stdDeviation="2.0"/><feColorMatrix in="blurOut" result="blurOut2" type="matrix" values="0 0 0 0 0 0 0 0 0 0 0 0 0 0 0 0 0 0 .4 0"/><feOffset dx="4.0" dy="4.0" in="blurOut2" result="blurOut3"/><feBlend in="SourceGraphic" in2="blurOut3" mode="normal"/></filter></defs><g><!--MD5=[5eb2ac03d0c371fca296cb0d00e756e3]
class GameMode--><rect codeLine="1" fill="#FEFECE" filter="url(#f13tn0a6e33hgj)" height="137.6328" id="GameMode" style="stroke:#A80036;stroke-width:1.5;" width="157" x="7" y="7"/><ellipse cx="48.1" cy="23" fill="#A9DCDF" rx="11" ry="11" style="stroke:#A80036;stroke-width:1.0;"/><path d="M50.1781,24.8125 L50.5688,25.7969 L50.1781,25.7969 C49.725,25.7969 49.6156,25.8125 49.4594,25.9219 C49.2094,26.0781 49.0531,26.3594 49.0531,26.6563 C49.0531,26.9219 49.1938,27.1719 49.4125,27.3281 C49.5531,27.4531 49.7563,27.5 50.1781,27.5 L52.5375,27.5 C52.8969,27.5 53.1156,27.4688 53.2563,27.375 C53.5063,27.2344 53.6625,26.9375 53.6625,26.6563 C53.6625,26.375 53.5219,26.125 53.3031,25.9688 C53.1313,25.8281 52.975,25.7969 52.5063,25.7969 L49.1156,17.5938 L45.4438,17.5938 C44.9906,17.5938 44.8656,17.6094 44.7094,17.7031 C44.4594,17.875 44.3031,18.1563 44.3031,18.4375 C44.3031,18.7188 44.4438,18.9688 44.6625,19.1406 C44.8344,19.25 45.0063,19.2813 45.4438,19.2813 L46.5219,19.2813 L43.8813,25.7969 C43.4594,25.7969 43.3031,25.8125 43.1469,25.9219 C42.8969,26.0781 42.7406,26.3594 42.7406,26.6563 C42.7406,27.2188 43.1156,27.5 43.8656,27.5 L46.1313,27.5 C46.4906,27.5 46.7094,27.4688 46.8344,27.375 C47.1,27.2344 47.2406,26.9375 47.2406,26.6563 C47.2406,26.375 47.1156,26.125 46.8969,25.9531 C46.725,25.8281 46.5844,25.7969 46.1313,25.7969 L45.7406,25.7969 L46.1313,24.8125 L50.1781,24.8125 Z M49.475,23.1094 L46.8031,23.1094 L48.1469,19.8438 L49.475,23.1094 Z " fill="#000000"/><text fill="#000000" font-family="sans-serif" font-size="12" font-style="italic" lengthAdjust="spacing" textLength="67" x="67.9" y="27.1543">GameMode</text><line style="stroke:#A80036;stroke-width:1.5;" x1="8" x2="163" y1="39" y2="39"/><rect fill="none" height="6" style="stroke:#C82930;stroke-width:1.0;" width="6" x="15" y="47"/><text fill="#000000" font-family="sans-serif" font-size="11" lengthAdjust="spacing" textLength="81" x="27" y="53.2104">answer: String</text><rect fill="none" height="6" style="stroke:#C82930;stroke-width:1.0;" width="6" x="15" y="59.8047"/><text fill="#000000" font-family="sans-serif" font-size="11" lengthAdjust="spacing" textLength="131" x="27" y="66.0151">changeImage: boolean</text><line style="stroke:#A80036;stroke-width:1.5;" x1="8" x2="163" y1="72.6094" y2="72.6094"/><ellipse cx="18" cy="83.6094" fill="#84BE84" rx="3" ry="3" style="stroke:#038048;stroke-width:1.0;"/><text fill="#000000" font-family="sans-serif" font-size="11" lengthAdjust="spacing" textLength="115" x="27" y="86.8198">GameMode(answer)</text><ellipse cx="18" cy="96.4141" fill="#84BE84" rx="3" ry="3" style="stroke:#038048;stroke-width:1.0;"/><text fill="#000000" font-family="sans-serif" font-size="11" lengthAdjust="spacing" textLength="57" x="27" y="99.6245">playTurn()</text><ellipse cx="18" cy="109.2188" fill="#84BE84" rx="3" ry="3" style="stroke:#038048;stroke-width:1.0;"/><text fill="#000000" font-family="sans-serif" font-size="11" lengthAdjust="spacing" textLength="130" x="27" y="112.4292">setChangeImage(bool)</text><ellipse cx="18" cy="122.0234" fill="#84BE84" rx="3" ry="3" style="stroke:#038048;stroke-width:1.0;"/><text fill="#000000" font-family="sans-serif" font-size="11" lengthAdjust="spacing" textLength="125" x="27" y="125.2339">shouldChangeImage()</text><ellipse cx="18" cy="134.8281" fill="#84BE84" rx="3" ry="3" style="stroke:#038048;stroke-width:1.0;"/><text fill="#000000" font-family="sans-serif" font-size="11" lengthAdjust="spacing" textLength="131" x="27" y="138.0386">updateAnswer(answer)</text><!--MD5=[ede2cea515e0948a5306402e461f5151]
class Classic--><rect codeLine="10" fill="#FEFECE" filter="url(#f13tn0a6e33hgj)" height="60.8047" id="Classic" style="stroke:#A80036;stroke-width:1.5;" width="74" x="48.5" y="205"/><ellipse cx="63.5" cy="221" fill="#ADD1B2" rx="11" ry="11" style="stroke:#A80036;stroke-width:1.0;"/><path d="M65.8438,216.6719 C64.9063,216.2344 64.3125,216.0938 63.4375,216.0938 C60.8125,216.0938 58.8125,218.1719 58.8125,220.8906 L58.8125,222.0156 C58.8125,224.5938 60.9219,226.4844 63.8125,226.4844 C65.0313,226.4844 66.1875,226.1875 66.9375,225.6406 C67.5156,225.2344 67.8438,224.7813 67.8438,224.3906 C67.8438,223.9375 67.4531,223.5469 66.9844,223.5469 C66.7656,223.5469 66.5625,223.625 66.375,223.8125 C65.9219,224.2969 65.9219,224.2969 65.7344,224.3906 C65.3125,224.6563 64.625,224.7813 63.8594,224.7813 C61.8125,224.7813 60.5156,223.6875 60.5156,221.9844 L60.5156,220.8906 C60.5156,219.1094 61.7656,217.7969 63.5,217.7969 C64.0781,217.7969 64.6875,217.9531 65.1563,218.2031 C65.6406,218.4844 65.8125,218.7031 65.9063,219.1094 C65.9688,219.5156 66,219.6406 66.1406,219.7656 C66.2813,219.9063 66.5156,220.0156 66.7344,220.0156 C67,220.0156 67.2656,219.875 67.4375,219.6563 C67.5469,219.5 67.5781,219.3125 67.5781,218.8906 L67.5781,217.4688 C67.5781,217.0313 67.5625,216.9063 67.4688,216.75 C67.3125,216.4844 67.0313,216.3438 66.7344,216.3438 C66.4375,216.3438 66.2344,216.4375 66.0156,216.75 L65.8438,216.6719 Z " fill="#000000"/><text fill="#000000" font-family="sans-serif" font-size="12" lengthAdjust="spacing" textLength="42" x="77.5" y="225.1543">Classic</text><line style="stroke:#A80036;stroke-width:1.5;" x1="49.5" x2="121.5" y1="237" y2="237"/><line style="stroke:#A80036;stroke-width:1.5;" x1="49.5" x2="121.5" y1="245" y2="245"/><ellipse cx="59.5" cy="256" fill="#84BE84" rx="3" ry="3" style="stroke:#038048;stroke-width:1.0;"/><text fill="#000000" font-family="sans-serif" font-size="11" lengthAdjust="spacing" textLength="32" x="68.5" y="259.2104">play()</text><!--MD5=[25b9922ffed2ac5bb223d0d912b703c1]
reverse link GameMode to Classic--><path codeLine="13" d="M85.5,165.412 C85.5,179.6708 85.5,193.501 85.5,204.9939 " fill="none" id="GameMode-backto-Classic" style="stroke:#A80036;stroke-width:1.0;"/><polygon fill="none" points="78.5001,165.166,85.5,145.166,92.5001,165.166,78.5001,165.166" style="stroke:#A80036;stroke-width:1.0;"/><!--MD5=[5e9ccc85fc81abdf33ea5b2fe52677ec]
@startuml
abstract class GameMode{
    - answer: String
    - changeImage: boolean
    + GameMode(answer)
    + playTurn()
    + setChangeImage(bool)
    + shouldChangeImage()
    + updateAnswer(answer)
}
class Classic {
    + play()
}
GameMode <|- - Classic
@enduml

PlantUML version 1.2021.9beta2(Unknown compile time)
(GPL source distribution)
Java Runtime: Java(TM) SE Runtime Environment
JVM: Java HotSpot(TM) 64-Bit Server VM
Default Encoding: UTF-8
Language: en
Country: US
--></g></svg>