<?xml version="1.0" encoding="UTF-8" standalone="no"?><svg xmlns="http://www.w3.org/2000/svg" xmlns:xlink="http://www.w3.org/1999/xlink" contentScriptType="application/ecmascript" contentStyleType="text/css" height="792px" preserveAspectRatio="none" style="width:437px;height:792px;background:#FFFFFF;" version="1.1" viewBox="0 0 437 792" width="437px" zoomAndPan="magnify"><defs><filter height="300%" id="f131m1yg2hik0i" width="300%" x="-1" y="-1"><feGaussianBlur result="blurOut" stdDeviation="2.0"/><feColorMatrix in="blurOut" result="blurOut2" type="matrix" values="0 0 0 0 0 0 0 0 0 0 0 0 0 0 0 0 0 0 .4 0"/><feOffset dx="4.0" dy="4.0" in="blurOut2" result="blurOut3"/><feBlend in="SourceGraphic" in2="blurOut3" mode="normal"/></filter></defs><g><ellipse cx="244.75" cy="20" fill="#000000" filter="url(#f131m1yg2hik0i)" rx="10" ry="10" style="stroke:none;stroke-width:1.0;"/><rect fill="#FEFECE" filter="url(#f131m1yg2hik0i)" height="33.9688" rx="12.5" ry="12.5" style="stroke:#A80036;stroke-width:1.5;" width="250" x="119.75" y="50"/><text fill="#000000" font-family="sans-serif" font-size="12" lengthAdjust="spacing" textLength="230" x="129.75" y="71.1387">Socket Establishment -&gt; Chat Enabled</text><rect fill="#FEFECE" filter="url(#f131m1yg2hik0i)" height="33.9688" rx="12.5" ry="12.5" style="stroke:#A80036;stroke-width:1.5;" width="186" x="151.75" y="103.9688"/><text fill="#000000" font-family="sans-serif" font-size="12" lengthAdjust="spacing" textLength="166" x="161.75" y="125.1074">Redirect All Clients to Room</text><rect fill="#FEFECE" filter="url(#f131m1yg2hik0i)" height="33.9688" rx="12.5" ry="12.5" style="stroke:#A80036;stroke-width:1.5;" width="117" x="186.25" y="213.6479"/><text fill="#000000" font-family="sans-serif" font-size="12" lengthAdjust="spacing" textLength="97" x="196.25" y="234.7866">getImageHash()</text><polygon fill="#FEFECE" filter="url(#f131m1yg2hik0i)" points="200.25,157.9375,289.25,157.9375,301.25,169.9375,289.25,181.9375,200.25,181.9375,188.25,169.9375,200.25,157.9375" style="stroke:#A80036;stroke-width:1.5;"/><text fill="#000000" font-family="sans-serif" font-size="11" lengthAdjust="spacing" textLength="15" x="248.75" y="192.1479">No</text><text fill="#000000" font-family="sans-serif" font-size="11" lengthAdjust="spacing" textLength="89" x="200.25" y="173.7456">Is Hash Visible?</text><text fill="#000000" font-family="sans-serif" font-size="11" lengthAdjust="spacing" textLength="21" x="167.25" y="167.3433">Yes</text><rect fill="#FEFECE" filter="url(#f131m1yg2hik0i)" height="33.9688" rx="12.5" ry="12.5" style="stroke:#A80036;stroke-width:1.5;" width="95" x="197.25" y="289.6167"/><text fill="#000000" font-family="sans-serif" font-size="12" lengthAdjust="spacing" textLength="75" x="207.25" y="310.7554">Game.start()</text><polygon fill="#FEFECE" filter="url(#f131m1yg2hik0i)" points="194.25,399.2959,295.25,399.2959,307.25,411.2959,295.25,423.2959,194.25,423.2959,182.25,411.2959,194.25,399.2959" style="stroke:#A80036;stroke-width:1.5;"/><text fill="#000000" font-family="sans-serif" font-size="11" lengthAdjust="spacing" textLength="101" x="194.25" y="415.104">input == answer?</text><text fill="#000000" font-family="sans-serif" font-size="11" lengthAdjust="spacing" textLength="21" x="161.25" y="408.7017">yes</text><text fill="#000000" font-family="sans-serif" font-size="11" lengthAdjust="spacing" textLength="15" x="307.25" y="408.7017">No</text><rect fill="#FEFECE" filter="url(#f131m1yg2hik0i)" height="33.9688" rx="12.5" ry="12.5" style="stroke:#A80036;stroke-width:1.5;" width="224" x="38" y="433.2959"/><text fill="#000000" font-family="sans-serif" font-size="12" lengthAdjust="spacing" textLength="204" x="48" y="454.4346">Chat.print("{user} has guessed!")</text><rect fill="#FEFECE" filter="url(#f131m1yg2hik0i)" height="33.9688" rx="12.5" ry="12.5" style="stroke:#A80036;stroke-width:1.5;" width="134" x="83" y="487.2646"/><text fill="#000000" font-family="sans-serif" font-size="12" lengthAdjust="spacing" textLength="114" x="93" y="508.4033">{user}.score += 1</text><rect fill="#FEFECE" filter="url(#f131m1yg2hik0i)" height="33.9688" rx="12.5" ry="12.5" style="stroke:#A80036;stroke-width:1.5;" width="194" x="53" y="541.2334"/><text fill="#000000" font-family="sans-serif" font-size="12" lengthAdjust="spacing" textLength="174" x="63" y="562.3721">Client.Give(New Image Hash)</text><rect fill="#FEFECE" filter="url(#f131m1yg2hik0i)" height="33.9688" rx="12.5" ry="12.5" style="stroke:#A80036;stroke-width:1.5;" width="115" x="282" y="433.2959"/><text fill="#000000" font-family="sans-serif" font-size="12" lengthAdjust="spacing" textLength="95" x="292" y="454.4346">Chat.print(input)</text><rect fill="#FEFECE" filter="url(#f131m1yg2hik0i)" height="33.9688" rx="12.5" ry="12.5" style="stroke:#A80036;stroke-width:1.5;" width="71" x="304" y="487.2646"/><text fill="#000000" font-family="sans-serif" font-size="12" lengthAdjust="spacing" textLength="51" x="314" y="508.4033">continue</text><polygon fill="#FEFECE" filter="url(#f131m1yg2hik0i)" points="244.75,581.2021,256.75,593.2021,244.75,605.2021,232.75,593.2021,244.75,581.2021" style="stroke:#A80036;stroke-width:1.5;"/><polygon fill="#FEFECE" filter="url(#f131m1yg2hik0i)" points="143.75,343.5854,345.75,343.5854,357.75,355.5854,345.75,367.5854,143.75,367.5854,131.75,355.5854,143.75,343.5854" style="stroke:#A80036;stroke-width:1.5;"/><text fill="#000000" font-family="sans-serif" font-size="11" lengthAdjust="spacing" textLength="15" x="248.75" y="377.7959">No</text><text fill="#000000" font-family="sans-serif" font-size="11" lengthAdjust="spacing" textLength="202" x="143.75" y="359.3936">time.ended() or All Image Guessed</text><text fill="#000000" font-family="sans-serif" font-size="11" lengthAdjust="spacing" textLength="21" x="110.75" y="352.9912">Yes</text><rect fill="#FEFECE" filter="url(#f131m1yg2hik0i)" height="33.9688" rx="12.5" ry="12.5" style="stroke:#A80036;stroke-width:1.5;" width="191" x="149.25" y="647.2021"/><text fill="#000000" font-family="sans-serif" font-size="12" lengthAdjust="spacing" textLength="171" x="159.25" y="668.3408">Declare Winner and Lossers</text><rect fill="#FEFECE" filter="url(#f131m1yg2hik0i)" height="33.9688" rx="12.5" ry="12.5" style="stroke:#A80036;stroke-width:1.5;" width="234" x="127.75" y="701.1709"/><text fill="#000000" font-family="sans-serif" font-size="12" lengthAdjust="spacing" textLength="214" x="137.75" y="722.3096">Show Scenes as per requirememnt</text><ellipse cx="244.75" cy="765.1396" fill="#FFFFFF" filter="url(#f131m1yg2hik0i)" rx="10" ry="10" style="stroke:#000000;stroke-width:1.5;"/><line style="stroke:#000000;stroke-width:2.5;" x1="238.5628" x2="250.9372" y1="758.9525" y2="771.3268"/><line style="stroke:#000000;stroke-width:2.5;" x1="250.9372" x2="238.5628" y1="758.9525" y2="771.3268"/><line style="stroke:#A80036;stroke-width:1.5;" x1="244.75" x2="244.75" y1="30" y2="50"/><polygon fill="#A80036" points="240.75,40,244.75,50,248.75,40,244.75,44" style="stroke:#A80036;stroke-width:1.0;"/><line style="stroke:#A80036;stroke-width:1.5;" x1="244.75" x2="244.75" y1="83.9688" y2="103.9688"/><polygon fill="#A80036" points="240.75,93.9688,244.75,103.9688,248.75,93.9688,244.75,97.9688" style="stroke:#A80036;stroke-width:1.0;"/><line style="stroke:#A80036;stroke-width:1.5;" x1="244.75" x2="244.75" y1="181.9375" y2="213.6479"/><polygon fill="#A80036" points="240.75,203.6479,244.75,213.6479,248.75,203.6479,244.75,207.6479" style="stroke:#A80036;stroke-width:1.0;"/><line style="stroke:#A80036;stroke-width:1.5;" x1="244.75" x2="244.75" y1="247.6167" y2="257.6167"/><line style="stroke:#A80036;stroke-width:1.5;" x1="244.75" x2="315.25" y1="257.6167" y2="257.6167"/><polygon fill="#A80036" points="311.25,222.23,315.25,212.23,319.25,222.23,315.25,218.23" style="stroke:#A80036;stroke-width:1.5;"/><line style="stroke:#A80036;stroke-width:1.5;" x1="315.25" x2="315.25" y1="169.9375" y2="257.6167"/><line style="stroke:#A80036;stroke-width:1.5;" x1="315.25" x2="301.25" y1="169.9375" y2="169.9375"/><polygon fill="#A80036" points="311.25,165.9375,301.25,169.9375,311.25,173.9375,307.25,169.9375" style="stroke:#A80036;stroke-width:1.0;"/><line style="stroke:#A80036;stroke-width:1.5;" x1="188.25" x2="174.25" y1="169.9375" y2="169.9375"/><polygon fill="#A80036" points="170.25,208.23,174.25,218.23,178.25,208.23,174.25,212.23" style="stroke:#A80036;stroke-width:1.5;"/><line style="stroke:#A80036;stroke-width:1.5;" x1="174.25" x2="174.25" y1="169.9375" y2="269.6167"/><line style="stroke:#A80036;stroke-width:1.5;" x1="174.25" x2="244.75" y1="269.6167" y2="269.6167"/><line style="stroke:#A80036;stroke-width:1.5;" x1="244.75" x2="244.75" y1="269.6167" y2="289.6167"/><polygon fill="#A80036" points="240.75,279.6167,244.75,289.6167,248.75,279.6167,244.75,283.6167" style="stroke:#A80036;stroke-width:1.0;"/><line style="stroke:#A80036;stroke-width:1.5;" x1="244.75" x2="244.75" y1="137.9375" y2="157.9375"/><polygon fill="#A80036" points="240.75,147.9375,244.75,157.9375,248.75,147.9375,244.75,151.9375" style="stroke:#A80036;stroke-width:1.0;"/><line style="stroke:#A80036;stroke-width:1.5;" x1="150" x2="150" y1="467.2646" y2="487.2646"/><polygon fill="#A80036" points="146,477.2646,150,487.2646,154,477.2646,150,481.2646" style="stroke:#A80036;stroke-width:1.0;"/><line style="stroke:#A80036;stroke-width:1.5;" x1="150" x2="150" y1="521.2334" y2="541.2334"/><polygon fill="#A80036" points="146,531.2334,150,541.2334,154,531.2334,150,535.2334" style="stroke:#A80036;stroke-width:1.0;"/><line style="stroke:#A80036;stroke-width:1.5;" x1="339.5" x2="339.5" y1="467.2646" y2="487.2646"/><polygon fill="#A80036" points="335.5,477.2646,339.5,487.2646,343.5,477.2646,339.5,481.2646" style="stroke:#A80036;stroke-width:1.0;"/><line style="stroke:#A80036;stroke-width:1.5;" x1="182.25" x2="150" y1="411.2959" y2="411.2959"/><line style="stroke:#A80036;stroke-width:1.5;" x1="150" x2="150" y1="411.2959" y2="433.2959"/><polygon fill="#A80036" points="146,423.2959,150,433.2959,154,423.2959,150,427.2959" style="stroke:#A80036;stroke-width:1.0;"/><line style="stroke:#A80036;stroke-width:1.5;" x1="307.25" x2="339.5" y1="411.2959" y2="411.2959"/><line style="stroke:#A80036;stroke-width:1.5;" x1="339.5" x2="339.5" y1="411.2959" y2="433.2959"/><polygon fill="#A80036" points="335.5,423.2959,339.5,433.2959,343.5,423.2959,339.5,427.2959" style="stroke:#A80036;stroke-width:1.0;"/><line style="stroke:#A80036;stroke-width:1.5;" x1="150" x2="150" y1="575.2021" y2="593.2021"/><line style="stroke:#A80036;stroke-width:1.5;" x1="150" x2="232.75" y1="593.2021" y2="593.2021"/><polygon fill="#A80036" points="222.75,589.2021,232.75,593.2021,222.75,597.2021,226.75,593.2021" style="stroke:#A80036;stroke-width:1.0;"/><line style="stroke:#A80036;stroke-width:1.5;" x1="339.5" x2="339.5" y1="521.2334" y2="593.2021"/><line style="stroke:#A80036;stroke-width:1.5;" x1="339.5" x2="256.75" y1="593.2021" y2="593.2021"/><polygon fill="#A80036" points="266.75,589.2021,256.75,593.2021,266.75,597.2021,262.75,593.2021" style="stroke:#A80036;stroke-width:1.0;"/><line style="stroke:#A80036;stroke-width:1.5;" x1="244.75" x2="244.75" y1="367.5854" y2="399.2959"/><polygon fill="#A80036" points="240.75,389.2959,244.75,399.2959,248.75,389.2959,244.75,393.2959" style="stroke:#A80036;stroke-width:1.0;"/><line style="stroke:#A80036;stroke-width:1.5;" x1="244.75" x2="244.75" y1="605.2021" y2="615.2021"/><line style="stroke:#A80036;stroke-width:1.5;" x1="244.75" x2="411" y1="615.2021" y2="615.2021"/><polygon fill="#A80036" points="407,493.8467,411,483.8467,415,493.8467,411,489.8467" style="stroke:#A80036;stroke-width:1.5;"/><line style="stroke:#A80036;stroke-width:1.5;" x1="411" x2="411" y1="355.5854" y2="615.2021"/><line style="stroke:#A80036;stroke-width:1.5;" x1="411" x2="357.75" y1="355.5854" y2="355.5854"/><polygon fill="#A80036" points="367.75,351.5854,357.75,355.5854,367.75,359.5854,363.75,355.5854" style="stroke:#A80036;stroke-width:1.0;"/><line style="stroke:#A80036;stroke-width:1.5;" x1="131.75" x2="24" y1="355.5854" y2="355.5854"/><polygon fill="#A80036" points="20,479.8467,24,489.8467,28,479.8467,24,483.8467" style="stroke:#A80036;stroke-width:1.5;"/><line style="stroke:#A80036;stroke-width:1.5;" x1="24" x2="24" y1="355.5854" y2="627.2021"/><line style="stroke:#A80036;stroke-width:1.5;" x1="24" x2="244.75" y1="627.2021" y2="627.2021"/><line style="stroke:#A80036;stroke-width:1.5;" x1="244.75" x2="244.75" y1="627.2021" y2="647.2021"/><polygon fill="#A80036" points="240.75,637.2021,244.75,647.2021,248.75,637.2021,244.75,641.2021" style="stroke:#A80036;stroke-width:1.0;"/><line style="stroke:#A80036;stroke-width:1.5;" x1="244.75" x2="244.75" y1="323.5854" y2="343.5854"/><polygon fill="#A80036" points="240.75,333.5854,244.75,343.5854,248.75,333.5854,244.75,337.5854" style="stroke:#A80036;stroke-width:1.0;"/><line style="stroke:#A80036;stroke-width:1.5;" x1="244.75" x2="244.75" y1="681.1709" y2="701.1709"/><polygon fill="#A80036" points="240.75,691.1709,244.75,701.1709,248.75,691.1709,244.75,695.1709" style="stroke:#A80036;stroke-width:1.0;"/><line style="stroke:#A80036;stroke-width:1.5;" x1="244.75" x2="244.75" y1="735.1396" y2="755.1396"/><polygon fill="#A80036" points="240.75,745.1396,244.75,755.1396,248.75,745.1396,244.75,749.1396" style="stroke:#A80036;stroke-width:1.0;"/><!--MD5=[d5373b9d893e4d6e6ed64a1c9e469adf]
@startuml
start

:Socket Establishment -> Chat Enabled;
:Redirect All Clients to Room;

while(Is Hash Visible?) is (No)

:getImageHash();

endwhile(Yes)

:Game.start();

while(time.ended() or All Image Guessed) is (No) 

if (input == answer?) then (yes)

:Chat.print("{user} has guessed!");

:{user}.score += 1;    

:Client.Give(New Image Hash);

else (No)

:Chat.print(input); 

:continue;

endif

endwhile(Yes)

:Declare Winner and Lossers;
:Show Scenes as per requirememnt;
end
@enduml

PlantUML version 1.2021.9beta2(Unknown compile time)
(GPL source distribution)
Java Runtime: Java(TM) SE Runtime Environment
JVM: Java HotSpot(TM) 64-Bit Server VM
Default Encoding: UTF-8
Language: en
Country: US
--></g></svg>