<?xml version="1.0" encoding="UTF-8" standalone="no"?><svg xmlns="http://www.w3.org/2000/svg" xmlns:xlink="http://www.w3.org/1999/xlink" contentScriptType="application/ecmascript" contentStyleType="text/css" height="558px" preserveAspectRatio="none" style="width:616px;height:558px;background:#FFFFFF;" version="1.1" viewBox="0 0 616 558" width="616px" zoomAndPan="magnify"><defs><filter height="300%" id="f1nubl8vwuq3lc" width="300%" x="-1" y="-1"><feGaussianBlur result="blurOut" stdDeviation="2.0"/><feColorMatrix in="blurOut" result="blurOut2" type="matrix" values="0 0 0 0 0 0 0 0 0 0 0 0 0 0 0 0 0 0 .4 0"/><feOffset dx="4.0" dy="4.0" in="blurOut2" result="blurOut3"/><feBlend in="SourceGraphic" in2="blurOut3" mode="normal"/></filter></defs><g><ellipse cx="298.5" cy="20" fill="#000000" filter="url(#f1nubl8vwuq3lc)" rx="10" ry="10" style="stroke:none;stroke-width:1.0;"/><rect fill="#FEFECE" filter="url(#f1nubl8vwuq3lc)" height="33.9688" rx="12.5" ry="12.5" style="stroke:#A80036;stroke-width:1.5;" width="89" x="254" y="50"/><text fill="#000000" font-family="sans-serif" font-size="12" lengthAdjust="spacing" textLength="69" x="264" y="71.1387">GameMode</text><line style="stroke:#A80036;stroke-width:1.5;" x1="132" x2="420.5" y1="103.9688" y2="103.9688"/><rect fill="#FEFECE" filter="url(#f1nubl8vwuq3lc)" height="33.9688" rx="12.5" ry="12.5" style="stroke:#A80036;stroke-width:1.5;" width="205" x="29.5" y="123.9688"/><text fill="#000000" font-family="sans-serif" font-size="12" lengthAdjust="spacing" textLength="185" x="39.5" y="145.1074">GameMode.playTurn(ArrayList)</text><rect fill="#FEFECE" filter="url(#f1nubl8vwuq3lc)" height="33.9688" rx="12.5" ry="12.5" style="stroke:#A80036;stroke-width:1.5;" width="108" x="78" y="177.9375"/><text fill="#000000" font-family="sans-serif" font-size="12" lengthAdjust="spacing" textLength="88" x="88" y="199.0762">multiplier = 10</text><rect fill="#FEFECE" filter="url(#f1nubl8vwuq3lc)" height="33.9688" rx="12.5" ry="12.5" style="stroke:#A80036;stroke-width:1.5;" width="192" x="36" y="307.7109"/><text fill="#000000" font-family="sans-serif" font-size="12" lengthAdjust="spacing" textLength="172" x="46" y="328.8496">GameMode.play(PlayerInput)</text><rect fill="#FEFECE" filter="url(#f1nubl8vwuq3lc)" height="33.9688" rx="12.5" ry="12.5" style="stroke:#A80036;stroke-width:1.5;" width="105" x="79.5" y="376.6797"/><text fill="#000000" font-family="sans-serif" font-size="12" lengthAdjust="spacing" textLength="85" x="89.5" y="397.8184">multiplier /= 2</text><polygon fill="#FEFECE" filter="url(#f1nubl8vwuq3lc)" points="58.5,246.9063,205.5,246.9063,217.5,258.9063,205.5,270.9063,58.5,270.9063,46.5,258.9063,58.5,246.9063" style="stroke:#A80036;stroke-width:1.5;"/><text fill="#000000" font-family="sans-serif" font-size="11" lengthAdjust="spacing" textLength="64" x="136" y="281.1167">playerInput</text><text fill="#000000" font-family="sans-serif" font-size="11" lengthAdjust="spacing" textLength="147" x="58.5" y="262.7144">for PlayerInput in inputList</text><text fill="#000000" font-family="sans-serif" font-size="11" lengthAdjust="spacing" textLength="29" x="17.5" y="256.312">done</text><rect fill="#FEFECE" filter="url(#f1nubl8vwuq3lc)" height="33.9688" rx="12.5" ry="12.5" style="stroke:#A80036;stroke-width:1.5;" width="154" x="55" y="467.6484"/><text fill="#000000" font-family="sans-serif" font-size="12" lengthAdjust="spacing" textLength="134" x="65" y="488.7871">return this turn scores</text><ellipse cx="132" cy="531.6172" fill="#FFFFFF" filter="url(#f1nubl8vwuq3lc)" rx="10" ry="10" style="stroke:#000000;stroke-width:1.5;"/><line style="stroke:#000000;stroke-width:2.5;" x1="125.8128" x2="138.1872" y1="525.43" y2="537.8044"/><line style="stroke:#000000;stroke-width:2.5;" x1="138.1872" x2="125.8128" y1="525.43" y2="537.8044"/><rect fill="#FEFECE" filter="url(#f1nubl8vwuq3lc)" height="33.9688" rx="12.5" ry="12.5" style="stroke:#A80036;stroke-width:1.5;" width="192" x="324.5" y="206.4219"/><text fill="#000000" font-family="sans-serif" font-size="12" lengthAdjust="spacing" textLength="172" x="334.5" y="227.5605">GameMode.play(PlayerInput)</text><rect fill="#FEFECE" filter="url(#f1nubl8vwuq3lc)" height="33.9688" rx="12.5" ry="12.5" style="stroke:#A80036;stroke-width:1.5;" width="319" x="261" y="323.793"/><text fill="#000000" font-family="sans-serif" font-size="12" lengthAdjust="spacing" textLength="299" x="271" y="344.9316">HashMap&lt;Player, Integer&gt;.put(multiplier * score)</text><polygon fill="#FEFECE" filter="url(#f1nubl8vwuq3lc)" points="370,275.3906,471,275.3906,483,287.3906,471,299.3906,370,299.3906,358,287.3906,370,275.3906" style="stroke:#A80036;stroke-width:1.5;"/><text fill="#000000" font-family="sans-serif" font-size="11" lengthAdjust="spacing" textLength="75" x="424.5" y="309.6011">update score</text><text fill="#000000" font-family="sans-serif" font-size="11" lengthAdjust="spacing" textLength="101" x="370" y="291.1987">input == answer?</text><polygon fill="#FEFECE" filter="url(#f1nubl8vwuq3lc)" points="420.5,382.1641,432.5,394.1641,420.5,406.1641,408.5,394.1641,420.5,382.1641" style="stroke:#A80036;stroke-width:1.5;"/><ellipse cx="420.5" cy="449.1641" fill="#FFFFFF" filter="url(#f1nubl8vwuq3lc)" rx="10" ry="10" style="stroke:#000000;stroke-width:1.5;"/><line style="stroke:#000000;stroke-width:2.5;" x1="414.3128" x2="426.6872" y1="442.9769" y2="455.3512"/><line style="stroke:#000000;stroke-width:2.5;" x1="426.6872" x2="414.3128" y1="442.9769" y2="455.3512"/><line style="stroke:#A80036;stroke-width:1.5;" x1="298.5" x2="298.5" y1="30" y2="50"/><polygon fill="#A80036" points="294.5,40,298.5,50,302.5,40,298.5,44" style="stroke:#A80036;stroke-width:1.0;"/><line style="stroke:#A80036;stroke-width:1.5;" x1="132" x2="132" y1="157.9375" y2="177.9375"/><polygon fill="#A80036" points="128,167.9375,132,177.9375,136,167.9375,132,171.9375" style="stroke:#A80036;stroke-width:1.0;"/><line style="stroke:#A80036;stroke-width:1.5;" x1="132" x2="132" y1="341.6797" y2="376.6797"/><polygon fill="#A80036" points="128,366.6797,132,376.6797,136,366.6797,132,370.6797" style="stroke:#A80036;stroke-width:1.0;"/><line style="stroke:#A80036;stroke-width:1.5;" x1="132" x2="132" y1="270.9063" y2="307.7109"/><polygon fill="#A80036" points="128,297.7109,132,307.7109,136,297.7109,132,301.7109" style="stroke:#A80036;stroke-width:1.0;"/><line style="stroke:#A80036;stroke-width:1.5;" x1="132" x2="132" y1="410.6484" y2="420.6484"/><line style="stroke:#A80036;stroke-width:1.5;" x1="132" x2="240" y1="420.6484" y2="420.6484"/><polygon fill="#A80036" points="236,350.7773,240,340.7773,244,350.7773,240,346.7773" style="stroke:#A80036;stroke-width:1.5;"/><line style="stroke:#A80036;stroke-width:1.5;" x1="240" x2="240" y1="258.9063" y2="420.6484"/><line style="stroke:#A80036;stroke-width:1.5;" x1="240" x2="217.5" y1="258.9063" y2="258.9063"/><polygon fill="#A80036" points="227.5,254.9063,217.5,258.9063,227.5,262.9063,223.5,258.9063" style="stroke:#A80036;stroke-width:1.0;"/><line style="stroke:#A80036;stroke-width:1.5;" x1="46.5" x2="24" y1="258.9063" y2="258.9063"/><polygon fill="#A80036" points="20,336.7773,24,346.7773,28,336.7773,24,340.7773" style="stroke:#A80036;stroke-width:1.5;"/><line style="stroke:#A80036;stroke-width:1.5;" x1="24" x2="24" y1="258.9063" y2="432.6484"/><line style="stroke:#A80036;stroke-width:1.5;" x1="24" x2="132" y1="432.6484" y2="432.6484"/><line style="stroke:#A80036;stroke-width:1.5;" x1="132" x2="132" y1="432.6484" y2="467.6484"/><polygon fill="#A80036" points="128,457.6484,132,467.6484,136,457.6484,132,461.6484" style="stroke:#A80036;stroke-width:1.0;"/><line style="stroke:#A80036;stroke-width:1.5;" x1="132" x2="132" y1="211.9063" y2="246.9063"/><polygon fill="#A80036" points="128,236.9063,132,246.9063,136,236.9063,132,240.9063" style="stroke:#A80036;stroke-width:1.0;"/><line style="stroke:#A80036;stroke-width:1.5;" x1="132" x2="132" y1="501.6172" y2="521.6172"/><polygon fill="#A80036" points="128,511.6172,132,521.6172,136,511.6172,132,515.6172" style="stroke:#A80036;stroke-width:1.0;"/><line style="stroke:#A80036;stroke-width:1.5;" x1="420.5" x2="420.5" y1="299.3906" y2="323.793"/><polygon fill="#A80036" points="416.5,313.793,420.5,323.793,424.5,313.793,420.5,317.793" style="stroke:#A80036;stroke-width:1.0;"/><line style="stroke:#A80036;stroke-width:1.5;" x1="483" x2="590" y1="287.3906" y2="287.3906"/><polygon fill="#A80036" points="586,330.7773,590,340.7773,594,330.7773,590,334.7773" style="stroke:#A80036;stroke-width:1.5;"/><line style="stroke:#A80036;stroke-width:1.5;" x1="590" x2="590" y1="287.3906" y2="394.1641"/><line style="stroke:#A80036;stroke-width:1.5;" x1="590" x2="432.5" y1="394.1641" y2="394.1641"/><polygon fill="#A80036" points="442.5,390.1641,432.5,394.1641,442.5,398.1641,438.5,394.1641" style="stroke:#A80036;stroke-width:1.0;"/><line style="stroke:#A80036;stroke-width:1.5;" x1="420.5" x2="420.5" y1="357.7617" y2="382.1641"/><polygon fill="#A80036" points="416.5,372.1641,420.5,382.1641,424.5,372.1641,420.5,376.1641" style="stroke:#A80036;stroke-width:1.0;"/><line style="stroke:#A80036;stroke-width:1.5;" x1="420.5" x2="420.5" y1="240.3906" y2="275.3906"/><polygon fill="#A80036" points="416.5,265.3906,420.5,275.3906,424.5,265.3906,420.5,269.3906" style="stroke:#A80036;stroke-width:1.0;"/><line style="stroke:#A80036;stroke-width:1.5;" x1="420.5" x2="420.5" y1="406.1641" y2="439.1641"/><polygon fill="#A80036" points="416.5,429.1641,420.5,439.1641,424.5,429.1641,420.5,433.1641" style="stroke:#A80036;stroke-width:1.0;"/><line style="stroke:#A80036;stroke-width:1.5;" x1="132" x2="132" y1="105.4688" y2="123.9688"/><polygon fill="#A80036" points="128,113.9688,132,123.9688,136,113.9688,132,117.9688" style="stroke:#A80036;stroke-width:1.0;"/><line style="stroke:#A80036;stroke-width:1.5;" x1="420.5" x2="420.5" y1="105.4688" y2="206.4219"/><polygon fill="#A80036" points="416.5,196.4219,420.5,206.4219,424.5,196.4219,420.5,200.4219" style="stroke:#A80036;stroke-width:1.0;"/><line style="stroke:#A80036;stroke-width:1.5;" x1="298.5" x2="298.5" y1="83.9688" y2="103.9688"/><polygon fill="#A80036" points="294.5,93.9688,298.5,103.9688,302.5,93.9688,298.5,97.9688" style="stroke:#A80036;stroke-width:1.0;"/><!--MD5=[061b11e921c9f889ad7e9edb356e5eb0]
@startuml
start
:GameMode;
split
    :GameMode.playTurn(ArrayList);
    :multiplier = 10;
    while (for PlayerInput in inputList) is (playerInput)
        :GameMode.play(PlayerInput);
        :multiplier /= 2;
    endwhile (done) 
    :return this turn scores;
    end
split again
    :GameMode.play(PlayerInput);
    if (input == answer?) then (update score)
        :HashMap<Player, Integer>.put(multiplier * score);
    else 
    endif
    end
end split
@enduml

PlantUML version 1.2021.9beta2(Unknown compile time)
(GPL source distribution)
Java Runtime: Java(TM) SE Runtime Environment
JVM: Java HotSpot(TM) 64-Bit Server VM
Default Encoding: UTF-8
Language: en
Country: US
--></g></svg>