<?xml version="1.0" encoding="UTF-8" standalone="no"?><svg xmlns="http://www.w3.org/2000/svg" xmlns:xlink="http://www.w3.org/1999/xlink" contentScriptType="application/ecmascript" contentStyleType="text/css" height="340px" preserveAspectRatio="none" style="width:381px;height:340px;background:#FFFFFF;" version="1.1" viewBox="0 0 381 340" width="381px" zoomAndPan="magnify"><defs><filter height="300%" id="fzzfeklm2iqa3" width="300%" x="-1" y="-1"><feGaussianBlur result="blurOut" stdDeviation="2.0"/><feColorMatrix in="blurOut" result="blurOut2" type="matrix" values="0 0 0 0 0 0 0 0 0 0 0 0 0 0 0 0 0 0 .4 0"/><feOffset dx="4.0" dy="4.0" in="blurOut2" result="blurOut3"/><feBlend in="SourceGraphic" in2="blurOut3" mode="normal"/></filter></defs><g><ellipse cx="189.5" cy="20" fill="#000000" filter="url(#fzzfeklm2iqa3)" rx="10" ry="10" style="stroke:none;stroke-width:1.0;"/><rect fill="#FEFECE" filter="url(#fzzfeklm2iqa3)" height="33.9688" rx="12.5" ry="12.5" style="stroke:#A80036;stroke-width:1.5;" width="122" x="128.5" y="50"/><text fill="#000000" font-family="sans-serif" font-size="12" lengthAdjust="spacing" textLength="102" x="138.5" y="71.1387">set nextTickTime</text><rect fill="#FEFECE" filter="url(#fzzfeklm2iqa3)" height="33.9688" rx="12.5" ry="12.5" style="stroke:#A80036;stroke-width:1.5;" width="307" x="36" y="159.6792"/><text fill="#000000" font-family="sans-serif" font-size="12" lengthAdjust="spacing" textLength="287" x="46" y="180.8179">Accept data packets and store them in a queue</text><polygon fill="#FEFECE" filter="url(#fzzfeklm2iqa3)" points="100.5,103.9688,278.5,103.9688,290.5,115.9688,278.5,127.9688,100.5,127.9688,88.5,115.9688,100.5,103.9688" style="stroke:#A80036;stroke-width:1.5;"/><text fill="#000000" font-family="sans-serif" font-size="11" lengthAdjust="spacing" textLength="20" x="193.5" y="138.1792">no?</text><text fill="#000000" font-family="sans-serif" font-size="11" lengthAdjust="spacing" textLength="178" x="100.5" y="119.7769">currentTime == nextTickTime?</text><text fill="#000000" font-family="sans-serif" font-size="11" lengthAdjust="spacing" textLength="21" x="67.5" y="113.3745">yes</text><rect fill="#FEFECE" filter="url(#fzzfeklm2iqa3)" height="47.9375" rx="12.5" ry="12.5" style="stroke:#A80036;stroke-width:1.5;" width="201" x="89" y="235.6479"/><text fill="#000000" font-family="sans-serif" font-size="12" lengthAdjust="spacing" textLength="178" x="99" y="256.7866">process the remaining queue</text><text fill="#000000" font-family="sans-serif" font-size="12" lengthAdjust="spacing" textLength="181" x="99" y="270.7554">(run some function PlayTurn())</text><ellipse cx="189.5" cy="313.5854" fill="#FFFFFF" filter="url(#fzzfeklm2iqa3)" rx="10" ry="10" style="stroke:#000000;stroke-width:1.5;"/><line style="stroke:#000000;stroke-width:2.5;" x1="183.3128" x2="195.6872" y1="307.3983" y2="319.7726"/><line style="stroke:#000000;stroke-width:2.5;" x1="195.6872" x2="183.3128" y1="307.3983" y2="319.7726"/><line style="stroke:#A80036;stroke-width:1.5;" x1="189.5" x2="189.5" y1="30" y2="50"/><polygon fill="#A80036" points="185.5,40,189.5,50,193.5,40,189.5,44" style="stroke:#A80036;stroke-width:1.0;"/><line style="stroke:#A80036;stroke-width:1.5;" x1="189.5" x2="189.5" y1="127.9688" y2="159.6792"/><polygon fill="#A80036" points="185.5,149.6792,189.5,159.6792,193.5,149.6792,189.5,153.6792" style="stroke:#A80036;stroke-width:1.0;"/><line style="stroke:#A80036;stroke-width:1.5;" x1="189.5" x2="189.5" y1="193.6479" y2="203.6479"/><line style="stroke:#A80036;stroke-width:1.5;" x1="189.5" x2="355" y1="203.6479" y2="203.6479"/><polygon fill="#A80036" points="351,168.2612,355,158.2612,359,168.2612,355,164.2612" style="stroke:#A80036;stroke-width:1.5;"/><line style="stroke:#A80036;stroke-width:1.5;" x1="355" x2="355" y1="115.9688" y2="203.6479"/><line style="stroke:#A80036;stroke-width:1.5;" x1="355" x2="290.5" y1="115.9688" y2="115.9688"/><polygon fill="#A80036" points="300.5,111.9688,290.5,115.9688,300.5,119.9688,296.5,115.9688" style="stroke:#A80036;stroke-width:1.0;"/><line style="stroke:#A80036;stroke-width:1.5;" x1="88.5" x2="24" y1="115.9688" y2="115.9688"/><polygon fill="#A80036" points="20,154.2612,24,164.2612,28,154.2612,24,158.2612" style="stroke:#A80036;stroke-width:1.5;"/><line style="stroke:#A80036;stroke-width:1.5;" x1="24" x2="24" y1="115.9688" y2="215.6479"/><line style="stroke:#A80036;stroke-width:1.5;" x1="24" x2="189.5" y1="215.6479" y2="215.6479"/><line style="stroke:#A80036;stroke-width:1.5;" x1="189.5" x2="189.5" y1="215.6479" y2="235.6479"/><polygon fill="#A80036" points="185.5,225.6479,189.5,235.6479,193.5,225.6479,189.5,229.6479" style="stroke:#A80036;stroke-width:1.0;"/><line style="stroke:#A80036;stroke-width:1.5;" x1="189.5" x2="189.5" y1="83.9688" y2="103.9688"/><polygon fill="#A80036" points="185.5,93.9688,189.5,103.9688,193.5,93.9688,189.5,97.9688" style="stroke:#A80036;stroke-width:1.0;"/><line style="stroke:#A80036;stroke-width:1.5;" x1="189.5" x2="189.5" y1="283.5854" y2="303.5854"/><polygon fill="#A80036" points="185.5,293.5854,189.5,303.5854,193.5,293.5854,189.5,297.5854" style="stroke:#A80036;stroke-width:1.0;"/><!--MD5=[807028cf93677104d85dac9be5f82dbf]
@startuml
start
:set nextTickTime;
while (currentTime == nextTickTime?) is (no?)
    :Accept data packets and store them in a queue;
endwhile (yes) 
:process the remaining queue
(run some function PlayTurn());
end
@enduml

PlantUML version 1.2021.9beta2(Unknown compile time)
(GPL source distribution)
Java Runtime: Java(TM) SE Runtime Environment
JVM: Java HotSpot(TM) 64-Bit Server VM
Default Encoding: UTF-8
Language: en
Country: US
--></g></svg>