<?xml version="1.0" encoding="UTF-8" standalone="no"?><svg xmlns="http://www.w3.org/2000/svg" xmlns:xlink="http://www.w3.org/1999/xlink" contentScriptType="application/ecmascript" contentStyleType="text/css" height="877px" preserveAspectRatio="none" style="width:354px;height:877px;background:#FFFFFF;" version="1.1" viewBox="0 0 354 877" width="354px" zoomAndPan="magnify"><defs><filter height="300%" id="f6aj2vkcup5ml" width="300%" x="-1" y="-1"><feGaussianBlur result="blurOut" stdDeviation="2.0"/><feColorMatrix in="blurOut" result="blurOut2" type="matrix" values="0 0 0 0 0 0 0 0 0 0 0 0 0 0 0 0 0 0 .4 0"/><feOffset dx="4.0" dy="4.0" in="blurOut2" result="blurOut3"/><feBlend in="SourceGraphic" in2="blurOut3" mode="normal"/></filter></defs><g><ellipse cx="204" cy="20" fill="#000000" filter="url(#f6aj2vkcup5ml)" rx="10" ry="10" style="stroke:none;stroke-width:1.0;"/><rect fill="#FEFECE" filter="url(#f6aj2vkcup5ml)" height="33.9688" rx="12.5" ry="12.5" style="stroke:#A80036;stroke-width:1.5;" width="98" x="155" y="50"/><text fill="#000000" font-family="sans-serif" font-size="12" lengthAdjust="spacing" textLength="78" x="165" y="71.1387">Room Object</text><rect fill="#FEFECE" filter="url(#f6aj2vkcup5ml)" height="33.9688" rx="12.5" ry="12.5" style="stroke:#A80036;stroke-width:1.5;" width="93" x="157.5" y="103.9688"/><text fill="#000000" font-family="sans-serif" font-size="12" lengthAdjust="spacing" textLength="73" x="167.5" y="125.1074">Starts game</text><rect fill="#FEFECE" filter="url(#f6aj2vkcup5ml)" height="33.9688" rx="12.5" ry="12.5" style="stroke:#A80036;stroke-width:1.5;" width="135" x="136.5" y="157.9375"/><text fill="#000000" font-family="sans-serif" font-size="12" lengthAdjust="spacing" textLength="111" x="150.5" y="179.0762">Sends image hash</text><rect fill="#FEFECE" filter="url(#f6aj2vkcup5ml)" height="33.9688" rx="12.5" ry="12.5" style="stroke:#A80036;stroke-width:1.5;" width="44" x="182" y="267.6167"/><text fill="#000000" font-family="sans-serif" font-size="12" lengthAdjust="spacing" textLength="24" x="192" y="288.7554">wait</text><polygon fill="#FEFECE" filter="url(#f6aj2vkcup5ml)" points="104,211.9063,304,211.9063,316,223.9063,304,235.9063,104,235.9063,92,223.9063,104,211.9063" style="stroke:#A80036;stroke-width:1.5;"/><text fill="#000000" font-family="sans-serif" font-size="11" lengthAdjust="spacing" textLength="25" x="208" y="246.1167">no :/</text><text fill="#000000" font-family="sans-serif" font-size="11" lengthAdjust="spacing" textLength="200" x="104" y="227.7144">Have all clients loaded the image?</text><text fill="#000000" font-family="sans-serif" font-size="11" lengthAdjust="spacing" textLength="82" x="10" y="221.312">all loaded ^-^</text><rect fill="#FEFECE" filter="url(#f6aj2vkcup5ml)" height="33.9688" rx="12.5" ry="12.5" style="stroke:#A80036;stroke-width:1.5;" width="83" x="162.5" y="343.5854"/><text fill="#000000" font-family="sans-serif" font-size="12" lengthAdjust="spacing" textLength="63" x="172.5" y="364.7241">Start timer</text><rect fill="#FEFECE" filter="url(#f6aj2vkcup5ml)" height="33.9688" rx="12.5" ry="12.5" style="stroke:#A80036;stroke-width:1.5;" width="136" x="136" y="453.2646"/><text fill="#000000" font-family="sans-serif" font-size="12" lengthAdjust="spacing" textLength="116" x="146" y="474.4033">get input from user</text><rect fill="#FEFECE" filter="url(#f6aj2vkcup5ml)" height="47.9375" rx="12.5" ry="12.5" style="stroke:#A80036;stroke-width:1.5;" width="155" x="126.5" y="562.9438"/><text fill="#000000" font-family="sans-serif" font-size="12" lengthAdjust="spacing" textLength="95" x="136.5" y="584.0825">take more input</text><text fill="#000000" font-family="sans-serif" font-size="12" lengthAdjust="spacing" textLength="131" x="136.5" y="598.0513">show the input in chat</text><polygon fill="#FEFECE" filter="url(#f6aj2vkcup5ml)" points="169,507.2334,239,507.2334,251,519.2334,239,531.2334,169,531.2334,157,519.2334,169,507.2334" style="stroke:#A80036;stroke-width:1.5;"/><text fill="#000000" font-family="sans-serif" font-size="11" lengthAdjust="spacing" textLength="14" x="208" y="541.4438">no</text><text fill="#000000" font-family="sans-serif" font-size="11" lengthAdjust="spacing" textLength="70" x="169" y="523.0415">input is right</text><text fill="#000000" font-family="sans-serif" font-size="11" lengthAdjust="spacing" textLength="49" x="108" y="516.6392">guessed</text><rect fill="#FEFECE" filter="url(#f6aj2vkcup5ml)" height="61.9063" rx="12.5" ry="12.5" style="stroke:#A80036;stroke-width:1.5;" width="145" x="131.5" y="652.8813"/><text fill="#000000" font-family="sans-serif" font-size="12" lengthAdjust="spacing" textLength="122" x="141.5" y="674.02">Increment the score</text><text fill="#000000" font-family="sans-serif" font-size="12" lengthAdjust="spacing" textLength="99" x="141.5" y="687.9888">Hide the answer</text><text fill="#000000" font-family="sans-serif" font-size="12" lengthAdjust="spacing" textLength="125" x="141.5" y="701.9575">Announce in the chat</text><polygon fill="#FEFECE" filter="url(#f6aj2vkcup5ml)" points="150.5,397.5542,257.5,397.5542,269.5,409.5542,257.5,421.5542,150.5,421.5542,138.5,409.5542,150.5,397.5542" style="stroke:#A80036;stroke-width:1.5;"/><text fill="#000000" font-family="sans-serif" font-size="11" lengthAdjust="spacing" textLength="40" x="208" y="431.7646">started</text><text fill="#000000" font-family="sans-serif" font-size="11" lengthAdjust="spacing" textLength="107" x="150.5" y="413.3623">Start &#127775; game loop</text><text fill="#000000" font-family="sans-serif" font-size="11" lengthAdjust="spacing" textLength="37" x="101.5" y="406.96">ended</text><rect fill="#FEFECE" filter="url(#f6aj2vkcup5ml)" height="61.9063" rx="12.5" ry="12.5" style="stroke:#A80036;stroke-width:1.5;" width="222" x="93" y="756.7876"/><text fill="#000000" font-family="sans-serif" font-size="12" lengthAdjust="spacing" textLength="202" x="103" y="777.9263">Game Ends, Room Destroys itself</text><text fill="#000000" font-family="sans-serif" font-size="12" lengthAdjust="spacing" textLength="130" x="103" y="791.895">Losers get RickRolled</text><text fill="#000000" font-family="sans-serif" font-size="12" lengthAdjust="spacing" textLength="142" x="103" y="805.8638">Winner gets a ¯\_(ツ)_/¯</text><ellipse cx="204" cy="849.6938" fill="#FFFFFF" filter="url(#f6aj2vkcup5ml)" rx="11" ry="11" style="stroke:#000000;stroke-width:1.0;"/><ellipse cx="204" cy="849.6938" fill="#000000" rx="6" ry="6" style="stroke:#7F7F7F;stroke-width:1.0;"/><line style="stroke:#A80036;stroke-width:1.5;" x1="204" x2="204" y1="30" y2="50"/><polygon fill="#A80036" points="200,40,204,50,208,40,204,44" style="stroke:#A80036;stroke-width:1.0;"/><line style="stroke:#A80036;stroke-width:1.5;" x1="204" x2="204" y1="83.9688" y2="103.9688"/><polygon fill="#A80036" points="200,93.9688,204,103.9688,208,93.9688,204,97.9688" style="stroke:#A80036;stroke-width:1.0;"/><line style="stroke:#A80036;stroke-width:1.5;" x1="204" x2="204" y1="137.9375" y2="157.9375"/><polygon fill="#A80036" points="200,147.9375,204,157.9375,208,147.9375,204,151.9375" style="stroke:#A80036;stroke-width:1.0;"/><line style="stroke:#A80036;stroke-width:1.5;" x1="204" x2="204" y1="235.9063" y2="267.6167"/><polygon fill="#A80036" points="200,257.6167,204,267.6167,208,257.6167,204,261.6167" style="stroke:#A80036;stroke-width:1.0;"/><line style="stroke:#A80036;stroke-width:1.5;" x1="204" x2="204" y1="301.5854" y2="311.5854"/><line style="stroke:#A80036;stroke-width:1.5;" x1="204" x2="328" y1="311.5854" y2="311.5854"/><polygon fill="#A80036" points="324,276.1987,328,266.1987,332,276.1987,328,272.1987" style="stroke:#A80036;stroke-width:1.5;"/><line style="stroke:#A80036;stroke-width:1.5;" x1="328" x2="328" y1="223.9063" y2="311.5854"/><line style="stroke:#A80036;stroke-width:1.5;" x1="328" x2="316" y1="223.9063" y2="223.9063"/><polygon fill="#A80036" points="326,219.9063,316,223.9063,326,227.9063,322,223.9063" style="stroke:#A80036;stroke-width:1.0;"/><line style="stroke:#A80036;stroke-width:1.5;" x1="92" x2="80" y1="223.9063" y2="223.9063"/><polygon fill="#A80036" points="76,262.1987,80,272.1987,84,262.1987,80,266.1987" style="stroke:#A80036;stroke-width:1.5;"/><line style="stroke:#A80036;stroke-width:1.5;" x1="80" x2="80" y1="223.9063" y2="323.5854"/><line style="stroke:#A80036;stroke-width:1.5;" x1="80" x2="204" y1="323.5854" y2="323.5854"/><line style="stroke:#A80036;stroke-width:1.5;" x1="204" x2="204" y1="323.5854" y2="343.5854"/><polygon fill="#A80036" points="200,333.5854,204,343.5854,208,333.5854,204,337.5854" style="stroke:#A80036;stroke-width:1.0;"/><line style="stroke:#A80036;stroke-width:1.5;" x1="204" x2="204" y1="191.9063" y2="211.9063"/><polygon fill="#A80036" points="200,201.9063,204,211.9063,208,201.9063,204,205.9063" style="stroke:#A80036;stroke-width:1.0;"/><line style="stroke:#A80036;stroke-width:1.5;" x1="204" x2="204" y1="531.2334" y2="562.9438"/><polygon fill="#A80036" points="200,552.9438,204,562.9438,208,552.9438,204,556.9438" style="stroke:#A80036;stroke-width:1.0;"/><line style="stroke:#A80036;stroke-width:1.5;" x1="204" x2="204" y1="610.8813" y2="620.8813"/><line style="stroke:#A80036;stroke-width:1.5;" x1="204" x2="293.5" y1="620.8813" y2="620.8813"/><polygon fill="#A80036" points="289.5,578.5103,293.5,568.5103,297.5,578.5103,293.5,574.5103" style="stroke:#A80036;stroke-width:1.5;"/><line style="stroke:#A80036;stroke-width:1.5;" x1="293.5" x2="293.5" y1="519.2334" y2="620.8813"/><line style="stroke:#A80036;stroke-width:1.5;" x1="293.5" x2="251" y1="519.2334" y2="519.2334"/><polygon fill="#A80036" points="261,515.2334,251,519.2334,261,523.2334,257,519.2334" style="stroke:#A80036;stroke-width:1.0;"/><line style="stroke:#A80036;stroke-width:1.5;" x1="157" x2="114.5" y1="519.2334" y2="519.2334"/><polygon fill="#A80036" points="110.5,564.5103,114.5,574.5103,118.5,564.5103,114.5,568.5103" style="stroke:#A80036;stroke-width:1.5;"/><line style="stroke:#A80036;stroke-width:1.5;" x1="114.5" x2="114.5" y1="519.2334" y2="632.8813"/><line style="stroke:#A80036;stroke-width:1.5;" x1="114.5" x2="204" y1="632.8813" y2="632.8813"/><line style="stroke:#A80036;stroke-width:1.5;" x1="204" x2="204" y1="632.8813" y2="652.8813"/><polygon fill="#A80036" points="200,642.8813,204,652.8813,208,642.8813,204,646.8813" style="stroke:#A80036;stroke-width:1.0;"/><line style="stroke:#A80036;stroke-width:1.5;" x1="204" x2="204" y1="487.2334" y2="507.2334"/><polygon fill="#A80036" points="200,497.2334,204,507.2334,208,497.2334,204,501.2334" style="stroke:#A80036;stroke-width:1.0;"/><line style="stroke:#A80036;stroke-width:1.5;" x1="204" x2="204" y1="421.5542" y2="453.2646"/><polygon fill="#A80036" points="200,443.2646,204,453.2646,208,443.2646,204,447.2646" style="stroke:#A80036;stroke-width:1.0;"/><line style="stroke:#A80036;stroke-width:1.5;" x1="204" x2="204" y1="714.7876" y2="724.7876"/><line style="stroke:#A80036;stroke-width:1.5;" x1="204" x2="305.5" y1="724.7876" y2="724.7876"/><polygon fill="#A80036" points="301.5,574.0767,305.5,564.0767,309.5,574.0767,305.5,570.0767" style="stroke:#A80036;stroke-width:1.5;"/><line style="stroke:#A80036;stroke-width:1.5;" x1="305.5" x2="305.5" y1="409.5542" y2="724.7876"/><line style="stroke:#A80036;stroke-width:1.5;" x1="305.5" x2="269.5" y1="409.5542" y2="409.5542"/><polygon fill="#A80036" points="279.5,405.5542,269.5,409.5542,279.5,413.5542,275.5,409.5542" style="stroke:#A80036;stroke-width:1.0;"/><line style="stroke:#A80036;stroke-width:1.5;" x1="138.5" x2="90.5" y1="409.5542" y2="409.5542"/><polygon fill="#A80036" points="86.5,560.0767,90.5,570.0767,94.5,560.0767,90.5,564.0767" style="stroke:#A80036;stroke-width:1.5;"/><line style="stroke:#A80036;stroke-width:1.5;" x1="90.5" x2="90.5" y1="409.5542" y2="736.7876"/><line style="stroke:#A80036;stroke-width:1.5;" x1="90.5" x2="204" y1="736.7876" y2="736.7876"/><line style="stroke:#A80036;stroke-width:1.5;" x1="204" x2="204" y1="736.7876" y2="756.7876"/><polygon fill="#A80036" points="200,746.7876,204,756.7876,208,746.7876,204,750.7876" style="stroke:#A80036;stroke-width:1.0;"/><line style="stroke:#A80036;stroke-width:1.5;" x1="204" x2="204" y1="377.5542" y2="397.5542"/><polygon fill="#A80036" points="200,387.5542,204,397.5542,208,387.5542,204,391.5542" style="stroke:#A80036;stroke-width:1.0;"/><line style="stroke:#A80036;stroke-width:1.5;" x1="204" x2="204" y1="818.6938" y2="838.6938"/><polygon fill="#A80036" points="200,828.6938,204,838.6938,208,828.6938,204,832.6938" style="stroke:#A80036;stroke-width:1.0;"/><!--MD5=[4c2b8ee14217b77fece936a631a88d87]
@startuml
start
:Room Object;
:Starts game;
: Sends image hash;
while (Have all clients loaded the image?) is (no :/)
    :wait;
endwhile (all loaded ^-^)
:Start timer;
while (Start 🌟 game loop) is (started)
:get input from user;
while (input is right) is (no)
:take more input
show the input in chat ;
endwhile (guessed) 
:Increment the score
Hide the answer
Announce in the chat;

endwhile (ended)
:Game Ends, Room Destroys itself
Losers get RickRolled
Winner gets a ¯\_(ツ)_/¯;
stop
@enduml

PlantUML version 1.2021.9beta2(Unknown compile time)
(GPL source distribution)
Java Runtime: Java(TM) SE Runtime Environment
JVM: Java HotSpot(TM) 64-Bit Server VM
Default Encoding: UTF-8
Language: en
Country: US
--></g></svg>