<?xml version="1.0" encoding="UTF-8" standalone="no"?><svg xmlns="http://www.w3.org/2000/svg" xmlns:xlink="http://www.w3.org/1999/xlink" contentScriptType="application/ecmascript" contentStyleType="text/css" height="366px" preserveAspectRatio="none" style="width:1166px;height:366px;background:#FFFFFF;" version="1.1" viewBox="0 0 1166 366" width="1166px" zoomAndPan="magnify"><defs><filter height="300%" id="f1bmuin59iaxvv" width="300%" x="-1" y="-1"><feGaussianBlur result="blurOut" stdDeviation="2.0"/><feColorMatrix in="blurOut" result="blurOut2" type="matrix" values="0 0 0 0 0 0 0 0 0 0 0 0 0 0 0 0 0 0 .4 0"/><feOffset dx="4.0" dy="4.0" in="blurOut2" result="blurOut3"/><feBlend in="SourceGraphic" in2="blurOut3" mode="normal"/></filter></defs><g><ellipse cx="598" cy="20" fill="#000000" filter="url(#f1bmuin59iaxvv)" rx="10" ry="10" style="stroke:none;stroke-width:1.0;"/><rect fill="#FEFECE" filter="url(#f1bmuin59iaxvv)" height="33.9688" rx="12.5" ry="12.5" style="stroke:#A80036;stroke-width:1.5;" width="56" x="570" y="50"/><text fill="#000000" font-family="sans-serif" font-size="12" lengthAdjust="spacing" textLength="36" x="580" y="71.1387">Player</text><line style="stroke:#A80036;stroke-width:1.5;" x1="353" x2="1035" y1="103.9688" y2="103.9688"/><rect fill="#FEFECE" filter="url(#f1bmuin59iaxvv)" height="33.9688" rx="12.5" ry="12.5" style="stroke:#A80036;stroke-width:1.5;" width="97" x="304.5" y="123.9688"/><text fill="#000000" font-family="sans-serif" font-size="12" lengthAdjust="spacing" textLength="77" x="314.5" y="145.1074">Player.read()</text><polygon fill="#FEFECE" filter="url(#f1bmuin59iaxvv)" points="94,207.9883,242,207.9883,254,219.9883,242,231.9883,94,231.9883,82,219.9883,94,207.9883" style="stroke:#A80036;stroke-width:1.5;"/><text fill="#000000" font-family="sans-serif" font-size="11" lengthAdjust="spacing" textLength="21" x="172" y="242.1987">yes</text><text fill="#000000" font-family="sans-serif" font-size="11" lengthAdjust="spacing" textLength="148" x="94" y="223.7964">input == "1"?(order reply)</text><rect fill="#FEFECE" filter="url(#f1bmuin59iaxvv)" height="33.9688" rx="12.5" ry="12.5" style="stroke:#A80036;stroke-width:1.5;" width="314" x="11" y="264.793"/><text fill="#000000" font-family="sans-serif" font-size="12" lengthAdjust="spacing" textLength="294" x="21" y="285.9316">ArrayList&lt;OrderReply&gt;.add(Player.readObject())</text><polygon fill="#FEFECE" filter="url(#f1bmuin59iaxvv)" points="446.75,207.9883,595.75,207.9883,607.75,219.9883,595.75,231.9883,446.75,231.9883,434.75,219.9883,446.75,207.9883" style="stroke:#A80036;stroke-width:1.5;"/><text fill="#000000" font-family="sans-serif" font-size="11" lengthAdjust="spacing" textLength="21" x="525.25" y="242.1987">yes</text><text fill="#000000" font-family="sans-serif" font-size="11" lengthAdjust="spacing" textLength="149" x="446.75" y="223.7964">input == "2"?(string reply)</text><text fill="#000000" font-family="sans-serif" font-size="11" lengthAdjust="spacing" textLength="42" x="607.75" y="217.394">nothing</text><polygon fill="#FEFECE" filter="url(#f1bmuin59iaxvv)" points="489.75,264.793,552.75,264.793,564.75,276.793,552.75,288.793,489.75,288.793,477.75,276.793,489.75,264.793" style="stroke:#A80036;stroke-width:1.5;"/><text fill="#000000" font-family="sans-serif" font-size="11" lengthAdjust="spacing" textLength="63" x="489.75" y="280.6011">storeInput?</text><text fill="#000000" font-family="sans-serif" font-size="11" lengthAdjust="spacing" textLength="21" x="456.75" y="274.1987">yes</text><text fill="#000000" font-family="sans-serif" font-size="11" lengthAdjust="spacing" textLength="14" x="564.75" y="274.1987">no</text><rect fill="#FEFECE" filter="url(#f1bmuin59iaxvv)" height="33.9688" rx="12.5" ry="12.5" style="stroke:#A80036;stroke-width:1.5;" width="192" x="355" y="298.793"/><text fill="#000000" font-family="sans-serif" font-size="12" lengthAdjust="spacing" textLength="172" x="365" y="319.9316">Room.inputs.add(gameInput)</text><rect fill="#FEFECE" filter="url(#f1bmuin59iaxvv)" height="33.9688" rx="12.5" ry="12.5" style="stroke:#A80036;stroke-width:1.5;" width="49" x="567" y="298.793"/><text fill="#000000" font-family="sans-serif" font-size="12" lengthAdjust="spacing" textLength="29" x="577" y="319.9316">pass</text><rect fill="#FEFECE" filter="url(#f1bmuin59iaxvv)" height="33.9688" rx="12.5" ry="12.5" style="stroke:#A80036;stroke-width:1.5;" width="49" x="646" y="281.3906"/><text fill="#000000" font-family="sans-serif" font-size="12" lengthAdjust="spacing" textLength="29" x="656" y="302.5293">pass</text><rect fill="#FEFECE" filter="url(#f1bmuin59iaxvv)" height="33.9688" rx="12.5" ry="12.5" style="stroke:#A80036;stroke-width:1.5;" width="175" x="720.5" y="177.9375"/><text fill="#000000" font-family="sans-serif" font-size="12" lengthAdjust="spacing" textLength="155" x="730.5" y="199.0762">LoadScene.GAME_SCREEN</text><rect fill="#FEFECE" filter="url(#f1bmuin59iaxvv)" height="33.9688" rx="12.5" ry="12.5" style="stroke:#A80036;stroke-width:1.5;" width="162" x="727" y="246.9063"/><text fill="#000000" font-family="sans-serif" font-size="12" lengthAdjust="spacing" textLength="142" x="737" y="268.0449">Player.storeInput = true</text><rect fill="#FEFECE" filter="url(#f1bmuin59iaxvv)" height="33.9688" rx="12.5" ry="12.5" style="stroke:#A80036;stroke-width:1.5;" width="206" x="705" y="315.875"/><text fill="#000000" font-family="sans-serif" font-size="12" lengthAdjust="spacing" textLength="186" x="715" y="337.0137">Player.send(Order LoadScene)</text><rect fill="#FEFECE" filter="url(#f1bmuin59iaxvv)" height="33.9688" rx="12.5" ry="12.5" style="stroke:#A80036;stroke-width:1.5;" width="92" x="989" y="212.4219"/><text fill="#000000" font-family="sans-serif" font-size="12" lengthAdjust="spacing" textLength="72" x="999" y="233.5605">Player.add()</text><rect fill="#FEFECE" filter="url(#f1bmuin59iaxvv)" height="33.9688" rx="12.5" ry="12.5" style="stroke:#A80036;stroke-width:1.5;" width="228" x="921" y="281.3906"/><text fill="#000000" font-family="sans-serif" font-size="12" lengthAdjust="spacing" textLength="208" x="931" y="302.5293">Player.addUserInputTo(RoomInput)</text><line style="stroke:#A80036;stroke-width:1.5;" x1="598" x2="598" y1="30" y2="50"/><polygon fill="#A80036" points="594,40,598,50,602,40,598,44" style="stroke:#A80036;stroke-width:1.0;"/><line style="stroke:#A80036;stroke-width:1.5;" x1="477.75" x2="451" y1="276.793" y2="276.793"/><line style="stroke:#A80036;stroke-width:1.5;" x1="451" x2="451" y1="276.793" y2="298.793"/><polygon fill="#A80036" points="447,288.793,451,298.793,455,288.793,451,292.793" style="stroke:#A80036;stroke-width:1.0;"/><line style="stroke:#A80036;stroke-width:1.5;" x1="564.75" x2="591.5" y1="276.793" y2="276.793"/><line style="stroke:#A80036;stroke-width:1.5;" x1="591.5" x2="591.5" y1="276.793" y2="298.793"/><polygon fill="#A80036" points="587.5,288.793,591.5,298.793,595.5,288.793,591.5,292.793" style="stroke:#A80036;stroke-width:1.0;"/><line style="stroke:#A80036;stroke-width:1.5;" x1="168" x2="168" y1="231.9883" y2="264.793"/><polygon fill="#A80036" points="164,254.793,168,264.793,172,254.793,168,258.793" style="stroke:#A80036;stroke-width:1.0;"/><line style="stroke:#A80036;stroke-width:1.5;" x1="521.25" x2="521.25" y1="231.9883" y2="264.793"/><polygon fill="#A80036" points="517.25,254.793,521.25,264.793,525.25,254.793,521.25,258.793" style="stroke:#A80036;stroke-width:1.0;"/><line style="stroke:#A80036;stroke-width:1.5;" x1="254" x2="434.75" y1="219.9883" y2="219.9883"/><polygon fill="#A80036" points="424.75,215.9883,434.75,219.9883,424.75,223.9883,428.75,219.9883" style="stroke:#A80036;stroke-width:1.0;"/><line style="stroke:#A80036;stroke-width:1.5;" x1="353" x2="353" y1="157.9375" y2="182.9883"/><line style="stroke:#A80036;stroke-width:1.5;" x1="353" x2="168" y1="182.9883" y2="182.9883"/><line style="stroke:#A80036;stroke-width:1.5;" x1="168" x2="168" y1="182.9883" y2="207.9883"/><polygon fill="#A80036" points="164,197.9883,168,207.9883,172,197.9883,168,201.9883" style="stroke:#A80036;stroke-width:1.0;"/><line style="stroke:#A80036;stroke-width:1.5;" x1="607.75" x2="670.5" y1="219.9883" y2="219.9883"/><line style="stroke:#A80036;stroke-width:1.5;" x1="670.5" x2="670.5" y1="219.9883" y2="281.3906"/><polygon fill="#A80036" points="666.5,271.3906,670.5,281.3906,674.5,271.3906,670.5,275.3906" style="stroke:#A80036;stroke-width:1.0;"/><line style="stroke:#A80036;stroke-width:1.5;" x1="808" x2="808" y1="211.9063" y2="246.9063"/><polygon fill="#A80036" points="804,236.9063,808,246.9063,812,236.9063,808,240.9063" style="stroke:#A80036;stroke-width:1.0;"/><line style="stroke:#A80036;stroke-width:1.5;" x1="808" x2="808" y1="280.875" y2="315.875"/><polygon fill="#A80036" points="804,305.875,808,315.875,812,305.875,808,309.875" style="stroke:#A80036;stroke-width:1.0;"/><line style="stroke:#A80036;stroke-width:1.5;" x1="1035" x2="1035" y1="246.3906" y2="281.3906"/><polygon fill="#A80036" points="1031,271.3906,1035,281.3906,1039,271.3906,1035,275.3906" style="stroke:#A80036;stroke-width:1.0;"/><line style="stroke:#A80036;stroke-width:1.5;" x1="353" x2="353" y1="105.4688" y2="123.9688"/><polygon fill="#A80036" points="349,113.9688,353,123.9688,357,113.9688,353,117.9688" style="stroke:#A80036;stroke-width:1.0;"/><line style="stroke:#A80036;stroke-width:1.5;" x1="808" x2="808" y1="105.4688" y2="177.9375"/><polygon fill="#A80036" points="804,167.9375,808,177.9375,812,167.9375,808,171.9375" style="stroke:#A80036;stroke-width:1.0;"/><line style="stroke:#A80036;stroke-width:1.5;" x1="1035" x2="1035" y1="105.4688" y2="212.4219"/><polygon fill="#A80036" points="1031,202.4219,1035,212.4219,1039,202.4219,1035,206.4219" style="stroke:#A80036;stroke-width:1.0;"/><line style="stroke:#A80036;stroke-width:1.5;" x1="598" x2="598" y1="83.9688" y2="103.9688"/><polygon fill="#A80036" points="594,93.9688,598,103.9688,602,93.9688,598,97.9688" style="stroke:#A80036;stroke-width:1.0;"/><!--MD5=[4aa726c0f7cefaf904b1c10b4992df8d]
@startuml
start
:Player;
split
    :Player.read();
    if (input == "1"?(order reply)) then (yes)
        :ArrayList<OrderReply>.add(Player.readObject());
        detach
    elseif (input == "2"?(string reply)) then (yes)
        if (storeInput?) then (yes)
            :Room.inputs.add(gameInput);
            detach
        else (no)
            :pass;
            detach
        endif
    else (nothing)
        :pass;
    endif
    detach
split again
    :LoadScene.GAME_SCREEN;
    :Player.storeInput = true;
    :Player.send(Order LoadScene);
    detach
split again
    :Player.add();
    :Player.addUserInputTo(RoomInput);
    detach
end split
@enduml

PlantUML version 1.2021.9beta2(Unknown compile time)
(GPL source distribution)
Java Runtime: Java(TM) SE Runtime Environment
JVM: Java HotSpot(TM) 64-Bit Server VM
Default Encoding: UTF-8
Language: en
Country: US
--></g></svg>