<?xml version="1.0" encoding="UTF-8" standalone="no"?><svg xmlns="http://www.w3.org/2000/svg" xmlns:xlink="http://www.w3.org/1999/xlink" contentScriptType="application/ecmascript" contentStyleType="text/css" height="448px" preserveAspectRatio="none" style="width:1478px;height:448px;background:#FFFFFF;" version="1.1" viewBox="0 0 1478 448" width="1478px" zoomAndPan="magnify"><defs><filter height="300%" id="f1mtslsymqzcdq" width="300%" x="-1" y="-1"><feGaussianBlur result="blurOut" stdDeviation="2.0"/><feColorMatrix in="blurOut" result="blurOut2" type="matrix" values="0 0 0 0 0 0 0 0 0 0 0 0 0 0 0 0 0 0 .4 0"/><feOffset dx="4.0" dy="4.0" in="blurOut2" result="blurOut3"/><feBlend in="SourceGraphic" in2="blurOut3" mode="normal"/></filter></defs><g><ellipse cx="750" cy="20" fill="#000000" filter="url(#f1mtslsymqzcdq)" rx="10" ry="10" style="stroke:none;stroke-width:1.0;"/><rect fill="#FEFECE" filter="url(#f1mtslsymqzcdq)" height="33.9688" rx="12.5" ry="12.5" style="stroke:#A80036;stroke-width:1.5;" width="56" x="722" y="50"/><text fill="#000000" font-family="sans-serif" font-size="12" lengthAdjust="spacing" textLength="36" x="732" y="71.1387">Player</text><line style="stroke:#A80036;stroke-width:1.5;" x1="118" x2="1347" y1="103.9688" y2="103.9688"/><rect fill="#FEFECE" filter="url(#f1mtslsymqzcdq)" height="33.9688" rx="12.5" ry="12.5" style="stroke:#A80036;stroke-width:1.5;" width="194" x="21" y="241.8555"/><text fill="#000000" font-family="sans-serif" font-size="12" lengthAdjust="spacing" textLength="174" x="31" y="262.9941">Player.getOrderReply(Order)</text><rect fill="#FEFECE" filter="url(#f1mtslsymqzcdq)" height="33.9688" rx="12.5" ry="12.5" style="stroke:#A80036;stroke-width:1.5;" width="214" x="11" y="310.8242"/><text fill="#000000" font-family="sans-serif" font-size="12" lengthAdjust="spacing" textLength="194" x="21" y="331.9629">OrderReply.isReplyingTo(Order)</text><rect fill="#FEFECE" filter="url(#f1mtslsymqzcdq)" height="33.9688" rx="12.5" ry="12.5" style="stroke:#A80036;stroke-width:1.5;" width="97" x="577.5" y="123.9688"/><text fill="#000000" font-family="sans-serif" font-size="12" lengthAdjust="spacing" textLength="77" x="587.5" y="145.1074">Player.read()</text><rect fill="#FEFECE" filter="url(#f1mtslsymqzcdq)" height="33.9688" rx="12.5" ry="12.5" style="stroke:#A80036;stroke-width:1.5;" width="241" x="505.5" y="177.9375"/><text fill="#000000" font-family="sans-serif" font-size="12" lengthAdjust="spacing" textLength="221" x="515.5" y="199.0762">input = ClientPacket.getPacketType()</text><polygon fill="#FEFECE" filter="url(#f1mtslsymqzcdq)" points="318,271.9063,466,271.9063,478,283.9063,466,295.9063,318,295.9063,306,283.9063,318,271.9063" style="stroke:#A80036;stroke-width:1.5;"/><text fill="#000000" font-family="sans-serif" font-size="11" lengthAdjust="spacing" textLength="21" x="396" y="306.1167">yes</text><text fill="#000000" font-family="sans-serif" font-size="11" lengthAdjust="spacing" textLength="148" x="318" y="287.7144">input == "2"?(order reply)</text><rect fill="#FEFECE" filter="url(#f1mtslsymqzcdq)" height="33.9688" rx="12.5" ry="12.5" style="stroke:#A80036;stroke-width:1.5;" width="314" x="235" y="328.7109"/><text fill="#000000" font-family="sans-serif" font-size="12" lengthAdjust="spacing" textLength="294" x="245" y="349.8496">ArrayList&lt;OrderReply&gt;.add(Player.readObject())</text><polygon fill="#FEFECE" filter="url(#f1mtslsymqzcdq)" points="670.75,271.9063,819.75,271.9063,831.75,283.9063,819.75,295.9063,670.75,295.9063,658.75,283.9063,670.75,271.9063" style="stroke:#A80036;stroke-width:1.5;"/><text fill="#000000" font-family="sans-serif" font-size="11" lengthAdjust="spacing" textLength="21" x="749.25" y="306.1167">yes</text><text fill="#000000" font-family="sans-serif" font-size="11" lengthAdjust="spacing" textLength="149" x="670.75" y="287.7144">input == "5"?(string reply)</text><polygon fill="#FEFECE" filter="url(#f1mtslsymqzcdq)" points="713.75,328.7109,776.75,328.7109,788.75,340.7109,776.75,352.7109,713.75,352.7109,701.75,340.7109,713.75,328.7109" style="stroke:#A80036;stroke-width:1.5;"/><text fill="#000000" font-family="sans-serif" font-size="11" lengthAdjust="spacing" textLength="63" x="713.75" y="344.519">storeInput?</text><text fill="#000000" font-family="sans-serif" font-size="11" lengthAdjust="spacing" textLength="21" x="680.75" y="338.1167">yes</text><text fill="#000000" font-family="sans-serif" font-size="11" lengthAdjust="spacing" textLength="14" x="788.75" y="338.1167">no</text><rect fill="#FEFECE" filter="url(#f1mtslsymqzcdq)" height="33.9688" rx="12.5" ry="12.5" style="stroke:#A80036;stroke-width:1.5;" width="192" x="579" y="362.7109"/><text fill="#000000" font-family="sans-serif" font-size="12" lengthAdjust="spacing" textLength="172" x="589" y="383.8496">Room.inputs.add(gameInput)</text><rect fill="#FEFECE" filter="url(#f1mtslsymqzcdq)" height="33.9688" rx="12.5" ry="12.5" style="stroke:#A80036;stroke-width:1.5;" width="49" x="791" y="362.7109"/><text fill="#000000" font-family="sans-serif" font-size="12" lengthAdjust="spacing" textLength="29" x="801" y="383.8496">pass</text><polygon fill="#FEFECE" filter="url(#f1mtslsymqzcdq)" points="872,271.9063,926,271.9063,938,283.9063,926,295.9063,872,295.9063,860,283.9063,872,271.9063" style="stroke:#A80036;stroke-width:1.5;"/><text fill="#000000" font-family="sans-serif" font-size="11" lengthAdjust="spacing" textLength="50" x="872" y="287.7144">input ==</text><text fill="#000000" font-family="sans-serif" font-size="11" lengthAdjust="spacing" textLength="42" x="938" y="281.312">nothing</text><rect fill="#FEFECE" filter="url(#f1mtslsymqzcdq)" height="33.9688" rx="12.5" ry="12.5" style="stroke:#A80036;stroke-width:1.5;" width="49" x="958" y="345.3086"/><text fill="#000000" font-family="sans-serif" font-size="12" lengthAdjust="spacing" textLength="29" x="968" y="366.4473">pass</text><rect fill="#FEFECE" filter="url(#f1mtslsymqzcdq)" height="33.9688" rx="12.5" ry="12.5" style="stroke:#A80036;stroke-width:1.5;" width="175" x="1032.5" y="207.3711"/><text fill="#000000" font-family="sans-serif" font-size="12" lengthAdjust="spacing" textLength="155" x="1042.5" y="228.5098">LoadScene.GAME_SCREEN</text><rect fill="#FEFECE" filter="url(#f1mtslsymqzcdq)" height="33.9688" rx="12.5" ry="12.5" style="stroke:#A80036;stroke-width:1.5;" width="162" x="1039" y="276.3398"/><text fill="#000000" font-family="sans-serif" font-size="12" lengthAdjust="spacing" textLength="142" x="1049" y="297.4785">Player.storeInput = true</text><rect fill="#FEFECE" filter="url(#f1mtslsymqzcdq)" height="33.9688" rx="12.5" ry="12.5" style="stroke:#A80036;stroke-width:1.5;" width="206" x="1017" y="345.3086"/><text fill="#000000" font-family="sans-serif" font-size="12" lengthAdjust="spacing" textLength="186" x="1027" y="366.4473">Player.send(Order LoadScene)</text><rect fill="#FEFECE" filter="url(#f1mtslsymqzcdq)" height="33.9688" rx="12.5" ry="12.5" style="stroke:#A80036;stroke-width:1.5;" width="92" x="1301" y="241.8555"/><text fill="#000000" font-family="sans-serif" font-size="12" lengthAdjust="spacing" textLength="72" x="1311" y="262.9941">Player.add()</text><rect fill="#FEFECE" filter="url(#f1mtslsymqzcdq)" height="33.9688" rx="12.5" ry="12.5" style="stroke:#A80036;stroke-width:1.5;" width="228" x="1233" y="310.8242"/><text fill="#000000" font-family="sans-serif" font-size="12" lengthAdjust="spacing" textLength="208" x="1243" y="331.9629">Player.addUserInputTo(RoomInput)</text><line style="stroke:#A80036;stroke-width:1.5;" x1="626" x2="750" y1="436.6797" y2="436.6797"/><line style="stroke:#A80036;stroke-width:1.5;" x1="750" x2="750" y1="30" y2="50"/><polygon fill="#A80036" points="746,40,750,50,754,40,750,44" style="stroke:#A80036;stroke-width:1.0;"/><line style="stroke:#A80036;stroke-width:1.5;" x1="118" x2="118" y1="275.8242" y2="310.8242"/><polygon fill="#A80036" points="114,300.8242,118,310.8242,122,300.8242,118,304.8242" style="stroke:#A80036;stroke-width:1.0;"/><line style="stroke:#A80036;stroke-width:1.5;" x1="626" x2="626" y1="157.9375" y2="177.9375"/><polygon fill="#A80036" points="622,167.9375,626,177.9375,630,167.9375,626,171.9375" style="stroke:#A80036;stroke-width:1.0;"/><line style="stroke:#A80036;stroke-width:1.5;" x1="701.75" x2="675" y1="340.7109" y2="340.7109"/><line style="stroke:#A80036;stroke-width:1.5;" x1="675" x2="675" y1="340.7109" y2="362.7109"/><polygon fill="#A80036" points="671,352.7109,675,362.7109,679,352.7109,675,356.7109" style="stroke:#A80036;stroke-width:1.0;"/><line style="stroke:#A80036;stroke-width:1.5;" x1="788.75" x2="815.5" y1="340.7109" y2="340.7109"/><line style="stroke:#A80036;stroke-width:1.5;" x1="815.5" x2="815.5" y1="340.7109" y2="362.7109"/><polygon fill="#A80036" points="811.5,352.7109,815.5,362.7109,819.5,352.7109,815.5,356.7109" style="stroke:#A80036;stroke-width:1.0;"/><line style="stroke:#A80036;stroke-width:1.5;" x1="392" x2="392" y1="295.9063" y2="328.7109"/><polygon fill="#A80036" points="388,318.7109,392,328.7109,396,318.7109,392,322.7109" style="stroke:#A80036;stroke-width:1.0;"/><line style="stroke:#A80036;stroke-width:1.5;" x1="745.25" x2="745.25" y1="295.9063" y2="328.7109"/><polygon fill="#A80036" points="741.25,318.7109,745.25,328.7109,749.25,318.7109,745.25,322.7109" style="stroke:#A80036;stroke-width:1.0;"/><line style="stroke:#A80036;stroke-width:1.5;" x1="899" x2="899" y1="295.9063" y2="416.6797"/><polygon fill="#A80036" points="895,406.6797,899,416.6797,903,406.6797,899,410.6797" style="stroke:#A80036;stroke-width:1.0;"/><line style="stroke:#A80036;stroke-width:1.5;" x1="478" x2="658.75" y1="283.9063" y2="283.9063"/><polygon fill="#A80036" points="648.75,279.9063,658.75,283.9063,648.75,287.9063,652.75,283.9063" style="stroke:#A80036;stroke-width:1.0;"/><line style="stroke:#A80036;stroke-width:1.5;" x1="831.75" x2="860" y1="283.9063" y2="283.9063"/><polygon fill="#A80036" points="850,279.9063,860,283.9063,850,287.9063,854,283.9063" style="stroke:#A80036;stroke-width:1.0;"/><line style="stroke:#A80036;stroke-width:1.5;" x1="626" x2="626" y1="211.9063" y2="246.9063"/><line style="stroke:#A80036;stroke-width:1.5;" x1="626" x2="392" y1="246.9063" y2="246.9063"/><line style="stroke:#A80036;stroke-width:1.5;" x1="392" x2="392" y1="246.9063" y2="271.9063"/><polygon fill="#A80036" points="388,261.9063,392,271.9063,396,261.9063,392,265.9063" style="stroke:#A80036;stroke-width:1.0;"/><line style="stroke:#A80036;stroke-width:1.5;" x1="938" x2="982.5" y1="283.9063" y2="283.9063"/><line style="stroke:#A80036;stroke-width:1.5;" x1="982.5" x2="982.5" y1="283.9063" y2="345.3086"/><polygon fill="#A80036" points="978.5,335.3086,982.5,345.3086,986.5,335.3086,982.5,339.3086" style="stroke:#A80036;stroke-width:1.0;"/><line style="stroke:#A80036;stroke-width:1.5;" x1="626" x2="899" y1="416.6797" y2="416.6797"/><line style="stroke:#A80036;stroke-width:1.5;" x1="1120" x2="1120" y1="241.3398" y2="276.3398"/><polygon fill="#A80036" points="1116,266.3398,1120,276.3398,1124,266.3398,1120,270.3398" style="stroke:#A80036;stroke-width:1.0;"/><line style="stroke:#A80036;stroke-width:1.5;" x1="1120" x2="1120" y1="310.3086" y2="345.3086"/><polygon fill="#A80036" points="1116,335.3086,1120,345.3086,1124,335.3086,1120,339.3086" style="stroke:#A80036;stroke-width:1.0;"/><line style="stroke:#A80036;stroke-width:1.5;" x1="1347" x2="1347" y1="275.8242" y2="310.8242"/><polygon fill="#A80036" points="1343,300.8242,1347,310.8242,1351,300.8242,1347,304.8242" style="stroke:#A80036;stroke-width:1.0;"/><line style="stroke:#A80036;stroke-width:1.5;" x1="118" x2="118" y1="105.4688" y2="241.8555"/><polygon fill="#A80036" points="114,231.8555,118,241.8555,122,231.8555,118,235.8555" style="stroke:#A80036;stroke-width:1.0;"/><line style="stroke:#A80036;stroke-width:1.5;" x1="626" x2="626" y1="105.4688" y2="123.9688"/><polygon fill="#A80036" points="622,113.9688,626,123.9688,630,113.9688,626,117.9688" style="stroke:#A80036;stroke-width:1.0;"/><line style="stroke:#A80036;stroke-width:1.5;" x1="1120" x2="1120" y1="105.4688" y2="207.3711"/><polygon fill="#A80036" points="1116,197.3711,1120,207.3711,1124,197.3711,1120,201.3711" style="stroke:#A80036;stroke-width:1.0;"/><line style="stroke:#A80036;stroke-width:1.5;" x1="1347" x2="1347" y1="105.4688" y2="241.8555"/><polygon fill="#A80036" points="1343,231.8555,1347,241.8555,1351,231.8555,1347,235.8555" style="stroke:#A80036;stroke-width:1.0;"/><line style="stroke:#A80036;stroke-width:1.5;" x1="626" x2="626" y1="416.6797" y2="436.6797"/><polygon fill="#A80036" points="622,426.6797,626,436.6797,630,426.6797,626,430.6797" style="stroke:#A80036;stroke-width:1.0;"/><line style="stroke:#A80036;stroke-width:1.5;" x1="750" x2="750" y1="83.9688" y2="103.9688"/><polygon fill="#A80036" points="746,93.9688,750,103.9688,754,93.9688,750,97.9688" style="stroke:#A80036;stroke-width:1.0;"/><!--MD5=[46c843db5fcc45d6746a92dca4918bf6]
@startuml
start
:Player;
split
    :Player.getOrderReply(Order);   
    :OrderReply.isReplyingTo(Order);
    
    detach 
split again
    :Player.read();
    :input = ClientPacket.getPacketType();
    if (input == "2"?(order reply)) then (yes)
        :ArrayList<OrderReply>.add(Player.readObject());
        detach
    elseif (input == "5"?(string reply)) then (yes)
        if (storeInput?) then (yes)
            :Room.inputs.add(gameInput);
            detach
        else (no)
            :pass;
            detach
        endif
    elseif (input == )
    else (nothing)
        :pass;
    endif
    detach
split again
    :LoadScene.GAME_SCREEN;
    :Player.storeInput = true;
    :Player.send(Order LoadScene);
    detach
split again
    :Player.add();
    :Player.addUserInputTo(RoomInput);
    detach
end split
@enduml

PlantUML version 1.2021.9beta2(Unknown compile time)
(GPL source distribution)
Java Runtime: Java(TM) SE Runtime Environment
JVM: Java HotSpot(TM) 64-Bit Server VM
Default Encoding: UTF-8
Language: en
Country: US
--></g></svg>