<?xml version="1.0" encoding="UTF-8" standalone="no"?><svg xmlns="http://www.w3.org/2000/svg" xmlns:xlink="http://www.w3.org/1999/xlink" contentScriptType="application/ecmascript" contentStyleType="text/css" height="627px" preserveAspectRatio="none" style="width:2849px;height:627px;background:#FFFFFF;" version="1.1" viewBox="0 0 2849 627" width="2849px" zoomAndPan="magnify"><defs><filter height="300%" id="f1jayc4via3qg5" width="300%" x="-1" y="-1"><feGaussianBlur result="blurOut" stdDeviation="2.0"/><feColorMatrix in="blurOut" result="blurOut2" type="matrix" values="0 0 0 0 0 0 0 0 0 0 0 0 0 0 0 0 0 0 .4 0"/><feOffset dx="4.0" dy="4.0" in="blurOut2" result="blurOut3"/><feBlend in="SourceGraphic" in2="blurOut3" mode="normal"/></filter></defs><g><ellipse cx="1443.5" cy="20" fill="#000000" filter="url(#f1jayc4via3qg5)" rx="10" ry="10" style="stroke:none;stroke-width:1.0;"/><rect fill="#FEFECE" filter="url(#f1jayc4via3qg5)" height="33.9688" rx="12.5" ry="12.5" style="stroke:#A80036;stroke-width:1.5;" width="56" x="1415.5" y="50"/><text fill="#000000" font-family="sans-serif" font-size="12" lengthAdjust="spacing" textLength="36" x="1425.5" y="71.1387">Player</text><line style="stroke:#A80036;stroke-width:1.5;" x1="118" x2="2720" y1="103.9688" y2="103.9688"/><rect fill="#FEFECE" filter="url(#f1jayc4via3qg5)" height="33.9688" rx="12.5" ry="12.5" style="stroke:#A80036;stroke-width:1.5;" width="194" x="21" y="362.6167"/><text fill="#000000" font-family="sans-serif" font-size="12" lengthAdjust="spacing" textLength="174" x="31" y="383.7554">Player.getOrderReply(Order)</text><rect fill="#FEFECE" filter="url(#f1jayc4via3qg5)" height="33.9688" rx="12.5" ry="12.5" style="stroke:#A80036;stroke-width:1.5;" width="214" x="11" y="431.5854"/><text fill="#000000" font-family="sans-serif" font-size="12" lengthAdjust="spacing" textLength="194" x="21" y="452.7241">OrderReply.isReplyingTo(Order)</text><rect fill="#FEFECE" filter="url(#f1jayc4via3qg5)" height="33.9688" rx="12.5" ry="12.5" style="stroke:#A80036;stroke-width:1.5;" width="97" x="932.5" y="123.9688"/><text fill="#000000" font-family="sans-serif" font-size="12" lengthAdjust="spacing" textLength="77" x="942.5" y="145.1074">Player.read()</text><rect fill="#FEFECE" filter="url(#f1jayc4via3qg5)" height="33.9688" rx="12.5" ry="12.5" style="stroke:#A80036;stroke-width:1.5;" width="241" x="860.5" y="177.9375"/><text fill="#000000" font-family="sans-serif" font-size="12" lengthAdjust="spacing" textLength="221" x="870.5" y="199.0762">input = ClientPacket.getPacketType()</text><polygon fill="#FEFECE" filter="url(#f1jayc4via3qg5)" points="722,231.9063,870,231.9063,882,243.9063,870,255.9063,722,255.9063,710,243.9063,722,231.9063" style="stroke:#A80036;stroke-width:1.5;"/><text fill="#000000" font-family="sans-serif" font-size="11" lengthAdjust="spacing" textLength="21" x="800" y="266.1167">yes</text><text fill="#000000" font-family="sans-serif" font-size="11" lengthAdjust="spacing" textLength="148" x="722" y="247.7144">input == "2"?(order reply)</text><rect fill="#FEFECE" filter="url(#f1jayc4via3qg5)" height="33.9688" rx="12.5" ry="12.5" style="stroke:#A80036;stroke-width:1.5;" width="263" x="664.5" y="287.6167"/><text fill="#000000" font-family="sans-serif" font-size="12" lengthAdjust="spacing" textLength="243" x="674.5" y="308.7554">orderType = ClientPacket.getOrderType</text><rect fill="#FEFECE" filter="url(#f1jayc4via3qg5)" height="33.9688" rx="12.5" ry="12.5" style="stroke:#A80036;stroke-width:1.5;" width="218" x="687" y="356.5854"/><text fill="#000000" font-family="sans-serif" font-size="12" lengthAdjust="spacing" textLength="198" x="697" y="377.7241">replyObj = ClientPacket.getReply</text><polygon fill="#FEFECE" filter="url(#f1jayc4via3qg5)" points="387,450.5542,485,450.5542,497,462.5542,485,474.5542,387,474.5542,375,462.5542,387,450.5542" style="stroke:#A80036;stroke-width:1.5;"/><text fill="#000000" font-family="sans-serif" font-size="11" lengthAdjust="spacing" textLength="47" x="440" y="484.7646">initialise</text><text fill="#000000" font-family="sans-serif" font-size="11" lengthAdjust="spacing" textLength="98" x="387" y="466.3623">orderType == 0?</text><rect fill="#FEFECE" filter="url(#f1jayc4via3qg5)" height="33.9688" rx="12.5" ry="12.5" style="stroke:#A80036;stroke-width:1.5;" width="312" x="280" y="507.3589"/><text fill="#000000" font-family="sans-serif" font-size="12" lengthAdjust="spacing" textLength="292" x="290" y="528.4976">init = (Reply&lt;Initialise&gt;) ClientPacker.getOrder()</text><rect fill="#FEFECE" filter="url(#f1jayc4via3qg5)" height="33.9688" rx="12.5" ry="12.5" style="stroke:#A80036;stroke-width:1.5;" width="402" x="235" y="576.3276"/><text fill="#000000" font-family="sans-serif" font-size="12" lengthAdjust="spacing" textLength="382" x="245" y="597.4663">this.pendingReplies.put(ClientPacker.getReplyingToOrder(), init)</text><polygon fill="#FEFECE" filter="url(#f1jayc4via3qg5)" points="710.5,450.5542,800.5,450.5542,812.5,462.5542,800.5,474.5542,710.5,474.5542,698.5,462.5542,710.5,450.5542" style="stroke:#A80036;stroke-width:1.5;"/><text fill="#000000" font-family="sans-serif" font-size="11" lengthAdjust="spacing" textLength="64" x="759.5" y="484.7646">LoadScene</text><text fill="#000000" font-family="sans-serif" font-size="11" lengthAdjust="spacing" textLength="90" x="710.5" y="466.3623">orderType==3?</text><rect fill="#FEFECE" filter="url(#f1jayc4via3qg5)" height="33.9688" rx="12.5" ry="12.5" style="stroke:#A80036;stroke-width:1.5;" width="217" x="647" y="507.3589"/><text fill="#000000" font-family="sans-serif" font-size="12" lengthAdjust="spacing" textLength="197" x="657" y="528.4976">init = (Reply&lt;Integer&gt;) replyObj</text><rect fill="#FEFECE" filter="url(#f1jayc4via3qg5)" height="33.9688" rx="12.5" ry="12.5" style="stroke:#A80036;stroke-width:1.5;" width="69" x="721" y="576.3276"/><text fill="#000000" font-family="sans-serif" font-size="12" lengthAdjust="spacing" textLength="49" x="731" y="597.4663">init.put()</text><polygon fill="#FEFECE" filter="url(#f1jayc4via3qg5)" points="896,450.5542,986,450.5542,998,462.5542,986,474.5542,896,474.5542,884,462.5542,896,450.5542" style="stroke:#A80036;stroke-width:1.5;"/><text fill="#000000" font-family="sans-serif" font-size="11" lengthAdjust="spacing" textLength="74" x="945" y="484.7646">LOAD_IMAGE</text><text fill="#000000" font-family="sans-serif" font-size="11" lengthAdjust="spacing" textLength="90" x="896" y="466.3623">orderType==4?</text><rect fill="#FEFECE" filter="url(#f1jayc4via3qg5)" height="33.9688" rx="12.5" ry="12.5" style="stroke:#A80036;stroke-width:1.5;" width="47" x="917.5" y="507.3589"/><text fill="#000000" font-family="sans-serif" font-size="12" lengthAdjust="spacing" textLength="27" x="927.5" y="528.4976">TOO</text><polygon fill="#FEFECE" filter="url(#f1jayc4via3qg5)" points="1047,450.5542,1137,450.5542,1149,462.5542,1137,474.5542,1047,474.5542,1035,462.5542,1047,450.5542" style="stroke:#A80036;stroke-width:1.5;"/><text fill="#000000" font-family="sans-serif" font-size="11" lengthAdjust="spacing" textLength="63" x="1096" y="484.7646">GameInput</text><text fill="#000000" font-family="sans-serif" font-size="11" lengthAdjust="spacing" textLength="90" x="1047" y="466.3623">orderType==5?</text><rect fill="#FEFECE" filter="url(#f1jayc4via3qg5)" height="33.9688" rx="12.5" ry="12.5" style="stroke:#A80036;stroke-width:1.5;" width="53" x="1065.5" y="507.3589"/><text fill="#000000" font-family="sans-serif" font-size="12" lengthAdjust="spacing" textLength="33" x="1075.5" y="528.4976">TIRED</text><polygon fill="#FEFECE" filter="url(#f1jayc4via3qg5)" points="1187,450.5542,1277,450.5542,1289,462.5542,1277,474.5542,1187,474.5542,1175,462.5542,1187,450.5542" style="stroke:#A80036;stroke-width:1.5;"/><text fill="#000000" font-family="sans-serif" font-size="11" lengthAdjust="spacing" textLength="66" x="1236" y="484.7646">GameState</text><text fill="#000000" font-family="sans-serif" font-size="11" lengthAdjust="spacing" textLength="90" x="1187" y="466.3623">orderType==6?</text><text fill="#000000" font-family="sans-serif" font-size="11" lengthAdjust="spacing" textLength="117" x="1289" y="459.96">no known orderType</text><rect fill="#FEFECE" filter="url(#f1jayc4via3qg5)" height="33.9688" rx="12.5" ry="12.5" style="stroke:#A80036;stroke-width:1.5;" width="75" x="1194.5" y="507.3589"/><text fill="#000000" font-family="sans-serif" font-size="12" lengthAdjust="spacing" textLength="55" x="1204.5" y="528.4976">FOR THIS</text><rect fill="#FEFECE" filter="url(#f1jayc4via3qg5)" height="33.9688" rx="12.5" ry="12.5" style="stroke:#A80036;stroke-width:1.5;" width="49" x="1318" y="538.4409"/><text fill="#000000" font-family="sans-serif" font-size="12" lengthAdjust="spacing" textLength="29" x="1328" y="559.5796">pass</text><polygon fill="#FEFECE" filter="url(#f1jayc4via3qg5)" points="1487.25,231.9063,1639.25,231.9063,1651.25,243.9063,1639.25,255.9063,1487.25,255.9063,1475.25,243.9063,1487.25,231.9063" style="stroke:#A80036;stroke-width:1.5;"/><text fill="#000000" font-family="sans-serif" font-size="11" lengthAdjust="spacing" textLength="21" x="1567.25" y="266.1167">yes</text><text fill="#000000" font-family="sans-serif" font-size="11" lengthAdjust="spacing" textLength="152" x="1487.25" y="247.7144">input == "5"?(Game input)</text><text fill="#000000" font-family="sans-serif" font-size="11" lengthAdjust="spacing" textLength="42" x="1651.25" y="241.312">nothing</text><polygon fill="#FEFECE" filter="url(#f1jayc4via3qg5)" points="1531.75,287.6167,1594.75,287.6167,1606.75,299.6167,1594.75,311.6167,1531.75,311.6167,1519.75,299.6167,1531.75,287.6167" style="stroke:#A80036;stroke-width:1.5;"/><text fill="#000000" font-family="sans-serif" font-size="11" lengthAdjust="spacing" textLength="63" x="1531.75" y="303.4248">storeInput?</text><text fill="#000000" font-family="sans-serif" font-size="11" lengthAdjust="spacing" textLength="21" x="1498.75" y="297.0225">yes</text><text fill="#000000" font-family="sans-serif" font-size="11" lengthAdjust="spacing" textLength="14" x="1606.75" y="297.0225">no</text><rect fill="#FEFECE" filter="url(#f1jayc4via3qg5)" height="33.9688" rx="12.5" ry="12.5" style="stroke:#A80036;stroke-width:1.5;" width="192" x="1397" y="321.6167"/><text fill="#000000" font-family="sans-serif" font-size="12" lengthAdjust="spacing" textLength="172" x="1407" y="342.7554">Room.inputs.add(gameInput)</text><rect fill="#FEFECE" filter="url(#f1jayc4via3qg5)" height="33.9688" rx="12.5" ry="12.5" style="stroke:#A80036;stroke-width:1.5;" width="49" x="1609" y="321.6167"/><text fill="#000000" font-family="sans-serif" font-size="12" lengthAdjust="spacing" textLength="29" x="1619" y="342.7554">pass</text><rect fill="#FEFECE" filter="url(#f1jayc4via3qg5)" height="33.9688" rx="12.5" ry="12.5" style="stroke:#A80036;stroke-width:1.5;" width="49" x="1688" y="466.0698"/><text fill="#000000" font-family="sans-serif" font-size="12" lengthAdjust="spacing" textLength="29" x="1698" y="487.2085">pass</text><rect fill="#FEFECE" filter="url(#f1jayc4via3qg5)" height="33.9688" rx="12.5" ry="12.5" style="stroke:#A80036;stroke-width:1.5;" width="175" x="1762.5" y="328.1323"/><text fill="#000000" font-family="sans-serif" font-size="12" lengthAdjust="spacing" textLength="155" x="1772.5" y="349.271">LoadScene.GAME_SCREEN</text><rect fill="#FEFECE" filter="url(#f1jayc4via3qg5)" height="33.9688" rx="12.5" ry="12.5" style="stroke:#A80036;stroke-width:1.5;" width="162" x="1769" y="397.1011"/><text fill="#000000" font-family="sans-serif" font-size="12" lengthAdjust="spacing" textLength="142" x="1779" y="418.2397">Player.storeInput = true</text><rect fill="#FEFECE" filter="url(#f1jayc4via3qg5)" height="33.9688" rx="12.5" ry="12.5" style="stroke:#A80036;stroke-width:1.5;" width="206" x="1747" y="466.0698"/><text fill="#000000" font-family="sans-serif" font-size="12" lengthAdjust="spacing" textLength="186" x="1757" y="487.2085">Player.send(Order LoadScene)</text><rect fill="#FEFECE" filter="url(#f1jayc4via3qg5)" height="33.9688" rx="12.5" ry="12.5" style="stroke:#A80036;stroke-width:1.5;" width="92" x="2031" y="362.6167"/><text fill="#000000" font-family="sans-serif" font-size="12" lengthAdjust="spacing" textLength="72" x="2041" y="383.7554">Player.add()</text><rect fill="#FEFECE" filter="url(#f1jayc4via3qg5)" height="33.9688" rx="12.5" ry="12.5" style="stroke:#A80036;stroke-width:1.5;" width="228" x="1963" y="431.5854"/><text fill="#000000" font-family="sans-serif" font-size="12" lengthAdjust="spacing" textLength="208" x="1973" y="452.7241">Player.addUserInputTo(RoomInput)</text><rect fill="#FEFECE" filter="url(#f1jayc4via3qg5)" height="33.9688" rx="12.5" ry="12.5" style="stroke:#A80036;stroke-width:1.5;" width="150" x="2324.5" y="328.1323"/><text fill="#000000" font-family="sans-serif" font-size="12" lengthAdjust="spacing" textLength="130" x="2334.5" y="349.271">order = Order(value)</text><rect fill="#FEFECE" filter="url(#f1jayc4via3qg5)" height="33.9688" rx="12.5" ry="12.5" style="stroke:#A80036;stroke-width:1.5;" width="397" x="2201" y="397.1011"/><text fill="#000000" font-family="sans-serif" font-size="12" lengthAdjust="spacing" textLength="377" x="2211" y="418.2397">Player.send(int PacketType, int OrderTypeLookupTable, order)</text><rect fill="#FEFECE" filter="url(#f1jayc4via3qg5)" height="33.9688" rx="12.5" ry="12.5" style="stroke:#A80036;stroke-width:1.5;" width="245" x="2277" y="466.0698"/><text fill="#000000" font-family="sans-serif" font-size="12" lengthAdjust="spacing" textLength="225" x="2287" y="487.2085">Player.get(order) -&gt; Reply.getValue()</text><rect fill="#FEFECE" filter="url(#f1jayc4via3qg5)" height="33.9688" rx="12.5" ry="12.5" style="stroke:#A80036;stroke-width:1.5;" width="224" x="2608" y="397.1011"/><text fill="#000000" font-family="sans-serif" font-size="12" lengthAdjust="spacing" textLength="204" x="2618" y="418.2397">Player.sendChatMessage("string")</text><line style="stroke:#A80036;stroke-width:1.5;" x1="1443.5" x2="1443.5" y1="30" y2="50"/><polygon fill="#A80036" points="1439.5,40,1443.5,50,1447.5,40,1443.5,44" style="stroke:#A80036;stroke-width:1.0;"/><line style="stroke:#A80036;stroke-width:1.5;" x1="118" x2="118" y1="396.5854" y2="431.5854"/><polygon fill="#A80036" points="114,421.5854,118,431.5854,122,421.5854,118,425.5854" style="stroke:#A80036;stroke-width:1.0;"/><line style="stroke:#A80036;stroke-width:1.5;" x1="981" x2="981" y1="157.9375" y2="177.9375"/><polygon fill="#A80036" points="977,167.9375,981,177.9375,985,167.9375,981,171.9375" style="stroke:#A80036;stroke-width:1.0;"/><line style="stroke:#A80036;stroke-width:1.5;" x1="796" x2="796" y1="321.5854" y2="356.5854"/><polygon fill="#A80036" points="792,346.5854,796,356.5854,800,346.5854,796,350.5854" style="stroke:#A80036;stroke-width:1.0;"/><line style="stroke:#A80036;stroke-width:1.5;" x1="436" x2="436" y1="541.3276" y2="576.3276"/><polygon fill="#A80036" points="432,566.3276,436,576.3276,440,566.3276,436,570.3276" style="stroke:#A80036;stroke-width:1.0;"/><line style="stroke:#A80036;stroke-width:1.5;" x1="755.5" x2="755.5" y1="541.3276" y2="576.3276"/><polygon fill="#A80036" points="751.5,566.3276,755.5,576.3276,759.5,566.3276,755.5,570.3276" style="stroke:#A80036;stroke-width:1.0;"/><line style="stroke:#A80036;stroke-width:1.5;" x1="436" x2="436" y1="474.5542" y2="507.3589"/><polygon fill="#A80036" points="432,497.3589,436,507.3589,440,497.3589,436,501.3589" style="stroke:#A80036;stroke-width:1.0;"/><line style="stroke:#A80036;stroke-width:1.5;" x1="755.5" x2="755.5" y1="474.5542" y2="507.3589"/><polygon fill="#A80036" points="751.5,497.3589,755.5,507.3589,759.5,497.3589,755.5,501.3589" style="stroke:#A80036;stroke-width:1.0;"/><line style="stroke:#A80036;stroke-width:1.5;" x1="941" x2="941" y1="474.5542" y2="507.3589"/><polygon fill="#A80036" points="937,497.3589,941,507.3589,945,497.3589,941,501.3589" style="stroke:#A80036;stroke-width:1.0;"/><line style="stroke:#A80036;stroke-width:1.5;" x1="1092" x2="1092" y1="474.5542" y2="507.3589"/><polygon fill="#A80036" points="1088,497.3589,1092,507.3589,1096,497.3589,1092,501.3589" style="stroke:#A80036;stroke-width:1.0;"/><line style="stroke:#A80036;stroke-width:1.5;" x1="1232" x2="1232" y1="474.5542" y2="507.3589"/><polygon fill="#A80036" points="1228,497.3589,1232,507.3589,1236,497.3589,1232,501.3589" style="stroke:#A80036;stroke-width:1.0;"/><line style="stroke:#A80036;stroke-width:1.5;" x1="497" x2="698.5" y1="462.5542" y2="462.5542"/><polygon fill="#A80036" points="688.5,458.5542,698.5,462.5542,688.5,466.5542,692.5,462.5542" style="stroke:#A80036;stroke-width:1.0;"/><line style="stroke:#A80036;stroke-width:1.5;" x1="812.5" x2="884" y1="462.5542" y2="462.5542"/><polygon fill="#A80036" points="874,458.5542,884,462.5542,874,466.5542,878,462.5542" style="stroke:#A80036;stroke-width:1.0;"/><line style="stroke:#A80036;stroke-width:1.5;" x1="998" x2="1035" y1="462.5542" y2="462.5542"/><polygon fill="#A80036" points="1025,458.5542,1035,462.5542,1025,466.5542,1029,462.5542" style="stroke:#A80036;stroke-width:1.0;"/><line style="stroke:#A80036;stroke-width:1.5;" x1="1149" x2="1175" y1="462.5542" y2="462.5542"/><polygon fill="#A80036" points="1165,458.5542,1175,462.5542,1165,466.5542,1169,462.5542" style="stroke:#A80036;stroke-width:1.0;"/><line style="stroke:#A80036;stroke-width:1.5;" x1="796" x2="796" y1="390.5542" y2="425.5542"/><line style="stroke:#A80036;stroke-width:1.5;" x1="796" x2="436" y1="425.5542" y2="425.5542"/><line style="stroke:#A80036;stroke-width:1.5;" x1="436" x2="436" y1="425.5542" y2="450.5542"/><polygon fill="#A80036" points="432,440.5542,436,450.5542,440,440.5542,436,444.5542" style="stroke:#A80036;stroke-width:1.0;"/><line style="stroke:#A80036;stroke-width:1.5;" x1="1289" x2="1342.5" y1="462.5542" y2="462.5542"/><line style="stroke:#A80036;stroke-width:1.5;" x1="1342.5" x2="1342.5" y1="462.5542" y2="538.4409"/><polygon fill="#A80036" points="1338.5,528.4409,1342.5,538.4409,1346.5,528.4409,1342.5,532.4409" style="stroke:#A80036;stroke-width:1.0;"/><line style="stroke:#A80036;stroke-width:1.5;" x1="1519.75" x2="1493" y1="299.6167" y2="299.6167"/><line style="stroke:#A80036;stroke-width:1.5;" x1="1493" x2="1493" y1="299.6167" y2="321.6167"/><polygon fill="#A80036" points="1489,311.6167,1493,321.6167,1497,311.6167,1493,315.6167" style="stroke:#A80036;stroke-width:1.0;"/><line style="stroke:#A80036;stroke-width:1.5;" x1="1606.75" x2="1633.5" y1="299.6167" y2="299.6167"/><line style="stroke:#A80036;stroke-width:1.5;" x1="1633.5" x2="1633.5" y1="299.6167" y2="321.6167"/><polygon fill="#A80036" points="1629.5,311.6167,1633.5,321.6167,1637.5,311.6167,1633.5,315.6167" style="stroke:#A80036;stroke-width:1.0;"/><line style="stroke:#A80036;stroke-width:1.5;" x1="796" x2="796" y1="255.9063" y2="287.6167"/><polygon fill="#A80036" points="792,277.6167,796,287.6167,800,277.6167,796,281.6167" style="stroke:#A80036;stroke-width:1.0;"/><line style="stroke:#A80036;stroke-width:1.5;" x1="1563.25" x2="1563.25" y1="255.9063" y2="287.6167"/><polygon fill="#A80036" points="1559.25,277.6167,1563.25,287.6167,1567.25,277.6167,1563.25,281.6167" style="stroke:#A80036;stroke-width:1.0;"/><line style="stroke:#A80036;stroke-width:1.5;" x1="882" x2="1475.25" y1="243.9063" y2="243.9063"/><polygon fill="#A80036" points="1465.25,239.9063,1475.25,243.9063,1465.25,247.9063,1469.25,243.9063" style="stroke:#A80036;stroke-width:1.0;"/><line style="stroke:#A80036;stroke-width:1.5;" x1="981" x2="981" y1="211.9063" y2="216.9063"/><line style="stroke:#A80036;stroke-width:1.5;" x1="981" x2="796" y1="216.9063" y2="216.9063"/><line style="stroke:#A80036;stroke-width:1.5;" x1="796" x2="796" y1="216.9063" y2="231.9063"/><polygon fill="#A80036" points="792,221.9063,796,231.9063,800,221.9063,796,225.9063" style="stroke:#A80036;stroke-width:1.0;"/><line style="stroke:#A80036;stroke-width:1.5;" x1="1651.25" x2="1712.5" y1="243.9063" y2="243.9063"/><line style="stroke:#A80036;stroke-width:1.5;" x1="1712.5" x2="1712.5" y1="243.9063" y2="466.0698"/><polygon fill="#A80036" points="1708.5,456.0698,1712.5,466.0698,1716.5,456.0698,1712.5,460.0698" style="stroke:#A80036;stroke-width:1.0;"/><line style="stroke:#A80036;stroke-width:1.5;" x1="1850" x2="1850" y1="362.1011" y2="397.1011"/><polygon fill="#A80036" points="1846,387.1011,1850,397.1011,1854,387.1011,1850,391.1011" style="stroke:#A80036;stroke-width:1.0;"/><line style="stroke:#A80036;stroke-width:1.5;" x1="1850" x2="1850" y1="431.0698" y2="466.0698"/><polygon fill="#A80036" points="1846,456.0698,1850,466.0698,1854,456.0698,1850,460.0698" style="stroke:#A80036;stroke-width:1.0;"/><line style="stroke:#A80036;stroke-width:1.5;" x1="2077" x2="2077" y1="396.5854" y2="431.5854"/><polygon fill="#A80036" points="2073,421.5854,2077,431.5854,2081,421.5854,2077,425.5854" style="stroke:#A80036;stroke-width:1.0;"/><line style="stroke:#A80036;stroke-width:1.5;" x1="2399.5" x2="2399.5" y1="362.1011" y2="397.1011"/><polygon fill="#A80036" points="2395.5,387.1011,2399.5,397.1011,2403.5,387.1011,2399.5,391.1011" style="stroke:#A80036;stroke-width:1.0;"/><line style="stroke:#A80036;stroke-width:1.5;" x1="2399.5" x2="2399.5" y1="431.0698" y2="466.0698"/><polygon fill="#A80036" points="2395.5,456.0698,2399.5,466.0698,2403.5,456.0698,2399.5,460.0698" style="stroke:#A80036;stroke-width:1.0;"/><line style="stroke:#A80036;stroke-width:1.5;" x1="118" x2="118" y1="105.4688" y2="362.6167"/><polygon fill="#A80036" points="114,352.6167,118,362.6167,122,352.6167,118,356.6167" style="stroke:#A80036;stroke-width:1.0;"/><line style="stroke:#A80036;stroke-width:1.5;" x1="981" x2="981" y1="105.4688" y2="123.9688"/><polygon fill="#A80036" points="977,113.9688,981,123.9688,985,113.9688,981,117.9688" style="stroke:#A80036;stroke-width:1.0;"/><line style="stroke:#A80036;stroke-width:1.5;" x1="1850" x2="1850" y1="105.4688" y2="328.1323"/><polygon fill="#A80036" points="1846,318.1323,1850,328.1323,1854,318.1323,1850,322.1323" style="stroke:#A80036;stroke-width:1.0;"/><line style="stroke:#A80036;stroke-width:1.5;" x1="2077" x2="2077" y1="105.4688" y2="362.6167"/><polygon fill="#A80036" points="2073,352.6167,2077,362.6167,2081,352.6167,2077,356.6167" style="stroke:#A80036;stroke-width:1.0;"/><line style="stroke:#A80036;stroke-width:1.5;" x1="2399.5" x2="2399.5" y1="105.4688" y2="328.1323"/><polygon fill="#A80036" points="2395.5,318.1323,2399.5,328.1323,2403.5,318.1323,2399.5,322.1323" style="stroke:#A80036;stroke-width:1.0;"/><line style="stroke:#A80036;stroke-width:1.5;" x1="2720" x2="2720" y1="105.4688" y2="397.1011"/><polygon fill="#A80036" points="2716,387.1011,2720,397.1011,2724,387.1011,2720,391.1011" style="stroke:#A80036;stroke-width:1.0;"/><line style="stroke:#A80036;stroke-width:1.5;" x1="1443.5" x2="1443.5" y1="83.9688" y2="103.9688"/><polygon fill="#A80036" points="1439.5,93.9688,1443.5,103.9688,1447.5,93.9688,1443.5,97.9688" style="stroke:#A80036;stroke-width:1.0;"/><!--MD5=[455ce27425dab7bbbe74045deedd0561]
@startuml
start
:Player;
split
    :Player.getOrderReply(Order);   
    :OrderReply.isReplyingTo(Order);
    
    detach 
split again
    :Player.read();
    :input = ClientPacket.getPacketType();
    if (input == "2"?(order reply)) then (yes)
        :orderType = ClientPacket.getOrderType;
        :replyObj = ClientPacket.getReply;
        if (orderType == 0?) then (initialise)
            :init = (Reply<Initialise>) ClientPacker.getOrder();
            :this.pendingReplies.put(ClientPacker.getReplyingToOrder(), init);
        elseif (orderType==3?) then (LoadScene)
            :init = (Reply<Integer>) replyObj;
            :init.put();
            detach
        elseif (orderType==4?) then (LOAD_IMAGE)
            :TOO;
            detach
        elseif (orderType==5?) then (GameInput)
            :TIRED;
            detach
        elseif (orderType==6?) then (GameState)
            :FOR THIS;
            detach
        else (no known orderType)
            :pass;
            detach
        endif
        detach
    elseif (input == "5"?(Game input)) then (yes)
        if (storeInput?) then (yes)
            :Room.inputs.add(gameInput);
            detach
        else (no)
            :pass;
            detach
        endif
    else (nothing)
        :pass;
    endif
    detach
split again
    :LoadScene.GAME_SCREEN;
    :Player.storeInput = true;
    :Player.send(Order LoadScene);
    detach
split again
    :Player.add();
    :Player.addUserInputTo(RoomInput);
    detach
split again
    :order = Order(value);
    :Player.send(int PacketType, int OrderTypeLookupTable, order);
    :Player.get(order) -> Reply.getValue();
    detach
split again
    :Player.sendChatMessage("string");

    detach
end split
@enduml

PlantUML version 1.2021.9beta2(Unknown compile time)
(GPL source distribution)
Java Runtime: Java(TM) SE Runtime Environment
JVM: Java HotSpot(TM) 64-Bit Server VM
Default Encoding: UTF-8
Language: en
Country: US
--></g></svg>