<?xml version="1.0" encoding="UTF-8" standalone="no"?><svg xmlns="http://www.w3.org/2000/svg" xmlns:xlink="http://www.w3.org/1999/xlink" contentScriptType="application/ecmascript" contentStyleType="text/css" height="970px" preserveAspectRatio="none" style="width:595px;height:970px;background:#FFFFFF;" version="1.1" viewBox="0 0 595 970" width="595px" zoomAndPan="magnify"><defs><filter height="300%" id="f1wz4diqx7h309" width="300%" x="-1" y="-1"><feGaussianBlur result="blurOut" stdDeviation="2.0"/><feColorMatrix in="blurOut" result="blurOut2" type="matrix" values="0 0 0 0 0 0 0 0 0 0 0 0 0 0 0 0 0 0 .4 0"/><feOffset dx="4.0" dy="4.0" in="blurOut2" result="blurOut3"/><feBlend in="SourceGraphic" in2="blurOut3" mode="normal"/></filter></defs><g><ellipse cx="280.25" cy="20" fill="#000000" filter="url(#f1wz4diqx7h309)" rx="10" ry="10" style="stroke:none;stroke-width:1.0;"/><rect fill="#FEFECE" filter="url(#f1wz4diqx7h309)" height="33.9688" rx="12.5" ry="12.5" style="stroke:#A80036;stroke-width:1.5;" width="289" x="135.75" y="50"/><text fill="#000000" font-family="sans-serif" font-size="12" lengthAdjust="spacing" textLength="269" x="145.75" y="71.1387">Send all clients show GameScreen message</text><rect fill="#FEFECE" filter="url(#f1wz4diqx7h309)" height="33.9688" rx="12.5" ry="12.5" style="stroke:#A80036;stroke-width:1.5;" width="224" x="168.25" y="103.9688"/><text fill="#000000" font-family="sans-serif" font-size="12" lengthAdjust="spacing" textLength="200" x="182.25" y="125.1074">Sends instruction to LOAD_IMAGE</text><rect fill="#FEFECE" filter="url(#f1wz4diqx7h309)" height="33.9688" rx="12.5" ry="12.5" style="stroke:#A80036;stroke-width:1.5;" width="129" x="215.75" y="157.9375"/><text fill="#000000" font-family="sans-serif" font-size="12" lengthAdjust="spacing" textLength="109" x="225.75" y="179.0762">Room.startSetup()</text><rect fill="#000000" filter="url(#f1wz4diqx7h309)" height="6" rx="2.5" ry="2.5" style="stroke:#000000;stroke-width:1.0;" width="505.25" x="29.75" y="211.9063"/><polygon fill="#FEFECE" filter="url(#f1wz4diqx7h309)" points="167,293.6167,413,293.6167,425,305.6167,413,317.6167,167,317.6167,155,305.6167,167,293.6167" style="stroke:#A80036;stroke-width:1.5;"/><text fill="#000000" font-family="sans-serif" font-size="11" lengthAdjust="spacing" textLength="246" x="167" y="309.4248">clientRequestsSomething (prolly in String?)</text><rect fill="#FEFECE" filter="url(#f1wz4diqx7h309)" height="47.9375" rx="12.5" ry="12.5" style="stroke:#A80036;stroke-width:1.5;" width="153" x="63.5" y="340.4214"/><text fill="#000000" font-family="sans-serif" font-size="12" lengthAdjust="spacing" textLength="133" x="73.5" y="361.5601">client sends message</text><text fill="#000000" font-family="sans-serif" font-size="12" lengthAdjust="spacing" textLength="131" x="73.5" y="375.5288">asking for imageHash</text><rect fill="#FEFECE" filter="url(#f1wz4diqx7h309)" height="33.9688" rx="12.5" ry="12.5" style="stroke:#A80036;stroke-width:1.5;" width="121" x="79.5" y="408.3589"/><text fill="#000000" font-family="sans-serif" font-size="12" lengthAdjust="spacing" textLength="101" x="89.5" y="429.4976">send imageHash</text><rect fill="#FEFECE" filter="url(#f1wz4diqx7h309)" height="47.9375" rx="12.5" ry="12.5" style="stroke:#A80036;stroke-width:1.5;" width="138" x="371" y="340.4214"/><text fill="#000000" font-family="sans-serif" font-size="12" lengthAdjust="spacing" textLength="118" x="381" y="361.5601">update that Player's</text><text fill="#000000" font-family="sans-serif" font-size="12" lengthAdjust="spacing" textLength="97" x="381" y="375.5288">isLoaded = true</text><polygon fill="#FEFECE" filter="url(#f1wz4diqx7h309)" points="290,452.3276,290,452.3276,302,464.3276,290,476.3276,290,476.3276,278,464.3276,290,452.3276" style="stroke:#A80036;stroke-width:1.5;"/><polygon fill="#FEFECE" filter="url(#f1wz4diqx7h309)" points="190,237.9063,390,237.9063,402,249.9063,390,261.9063,190,261.9063,178,249.9063,190,237.9063" style="stroke:#A80036;stroke-width:1.5;"/><text fill="#000000" font-family="sans-serif" font-size="11" lengthAdjust="spacing" textLength="25" x="294" y="272.1167">no :/</text><text fill="#000000" font-family="sans-serif" font-size="11" lengthAdjust="spacing" textLength="200" x="190" y="253.7144">Have all clients loaded the image?</text><text fill="#000000" font-family="sans-serif" font-size="11" lengthAdjust="spacing" textLength="82" x="96" y="247.312">all loaded ^-^</text><rect fill="#000000" filter="url(#f1wz4diqx7h309)" height="6" rx="2.5" ry="2.5" style="stroke:#000000;stroke-width:1.0;" width="505.25" x="29.75" y="518.3276"/><rect fill="#FEFECE" filter="url(#f1wz4diqx7h309)" height="33.9688" rx="12.5" ry="12.5" style="stroke:#A80036;stroke-width:1.5;" width="134" x="213.25" y="544.3276"/><text fill="#000000" font-family="sans-serif" font-size="12" lengthAdjust="spacing" textLength="114" x="223.25" y="565.4663">send GamesScene</text><rect fill="#FEFECE" filter="url(#f1wz4diqx7h309)" height="33.9688" rx="12.5" ry="12.5" style="stroke:#A80036;stroke-width:1.5;" width="109" x="225.75" y="598.2964"/><text fill="#000000" font-family="sans-serif" font-size="12" lengthAdjust="spacing" textLength="89" x="235.75" y="619.4351">start tick count</text><polygon fill="#FEFECE" filter="url(#f1wz4diqx7h309)" points="239.75,696.2651,320.75,696.2651,332.75,708.2651,320.75,720.2651,239.75,720.2651,227.75,708.2651,239.75,696.2651" style="stroke:#A80036;stroke-width:1.5;"/><text fill="#000000" font-family="sans-serif" font-size="11" lengthAdjust="spacing" textLength="81" x="239.75" y="712.0732">tick &lt; tickRate</text><text fill="#000000" font-family="sans-serif" font-size="11" lengthAdjust="spacing" textLength="21" x="206.75" y="705.6709">yes</text><text fill="#000000" font-family="sans-serif" font-size="11" lengthAdjust="spacing" textLength="14" x="332.75" y="705.6709">no</text><rect fill="#FEFECE" filter="url(#f1wz4diqx7h309)" height="47.9375" rx="12.5" ry="12.5" style="stroke:#A80036;stroke-width:1.5;" width="200" x="48.75" y="730.2651"/><text fill="#000000" font-family="sans-serif" font-size="12" lengthAdjust="spacing" textLength="180" x="58.75" y="751.4038">collect and verify and sanitise</text><text fill="#000000" font-family="sans-serif" font-size="12" lengthAdjust="spacing" textLength="60" x="58.75" y="765.3726">user input</text><rect fill="#FEFECE" filter="url(#f1wz4diqx7h309)" height="33.9688" rx="12.5" ry="12.5" style="stroke:#A80036;stroke-width:1.5;" width="214" x="41.75" y="813.2026"/><text fill="#000000" font-family="sans-serif" font-size="12" lengthAdjust="spacing" textLength="194" x="51.75" y="834.3413">tick = time.now() - tickStartTime</text><rect fill="#FEFECE" filter="url(#f1wz4diqx7h309)" height="33.9688" rx="12.5" ry="12.5" style="stroke:#A80036;stroke-width:1.5;" width="180" x="321.75" y="730.2651"/><text fill="#000000" font-family="sans-serif" font-size="12" lengthAdjust="spacing" textLength="160" x="331.75" y="751.4038">tickStartTime = time.now()</text><rect fill="#FEFECE" filter="url(#f1wz4diqx7h309)" height="33.9688" rx="12.5" ry="12.5" style="stroke:#A80036;stroke-width:1.5;" width="272" x="275.75" y="799.2339"/><text fill="#000000" font-family="sans-serif" font-size="12" lengthAdjust="spacing" textLength="252" x="285.75" y="820.3726">GameMode.playTurn(userInput dictionary)</text><polygon fill="#FEFECE" filter="url(#f1wz4diqx7h309)" points="280.25,853.1714,292.25,865.1714,280.25,877.1714,268.25,865.1714,280.25,853.1714" style="stroke:#A80036;stroke-width:1.5;"/><polygon fill="#FEFECE" filter="url(#f1wz4diqx7h309)" points="200.75,652.2651,359.75,652.2651,371.75,664.2651,359.75,676.2651,200.75,676.2651,188.75,664.2651,200.75,652.2651" style="stroke:#A80036;stroke-width:1.5;"/><text fill="#000000" font-family="sans-serif" font-size="11" lengthAdjust="spacing" textLength="159" x="200.75" y="668.0732">GameMode.ended() != true</text><rect fill="#FEFECE" filter="url(#f1wz4diqx7h309)" height="33.9688" rx="12.5" ry="12.5" style="stroke:#A80036;stroke-width:1.5;" width="207" x="176.75" y="919.1714"/><text fill="#000000" font-family="sans-serif" font-size="12" lengthAdjust="spacing" textLength="187" x="186.75" y="940.3101">game ends (Room.endGame())</text><line style="stroke:#A80036;stroke-width:1.5;" x1="280.25" x2="280.25" y1="30" y2="50"/><polygon fill="#A80036" points="276.25,40,280.25,50,284.25,40,280.25,44" style="stroke:#A80036;stroke-width:1.0;"/><line style="stroke:#A80036;stroke-width:1.5;" x1="280.25" x2="280.25" y1="83.9688" y2="103.9688"/><polygon fill="#A80036" points="276.25,93.9688,280.25,103.9688,284.25,93.9688,280.25,97.9688" style="stroke:#A80036;stroke-width:1.0;"/><line style="stroke:#A80036;stroke-width:1.5;" x1="280.25" x2="280.25" y1="137.9375" y2="157.9375"/><polygon fill="#A80036" points="276.25,147.9375,280.25,157.9375,284.25,147.9375,280.25,151.9375" style="stroke:#A80036;stroke-width:1.0;"/><line style="stroke:#A80036;stroke-width:1.5;" x1="140" x2="140" y1="388.3589" y2="408.3589"/><polygon fill="#A80036" points="136,398.3589,140,408.3589,144,398.3589,140,402.3589" style="stroke:#A80036;stroke-width:1.0;"/><line style="stroke:#A80036;stroke-width:1.5;" x1="155" x2="140" y1="305.6167" y2="305.6167"/><line style="stroke:#A80036;stroke-width:1.5;" x1="140" x2="140" y1="305.6167" y2="340.4214"/><polygon fill="#A80036" points="136,330.4214,140,340.4214,144,330.4214,140,334.4214" style="stroke:#A80036;stroke-width:1.0;"/><text fill="#000000" font-family="sans-serif" font-size="11" lengthAdjust="spacing" textLength="99" x="140" y="326.8271">send image hash</text><line style="stroke:#A80036;stroke-width:1.5;" x1="425" x2="440" y1="305.6167" y2="305.6167"/><line style="stroke:#A80036;stroke-width:1.5;" x1="440" x2="440" y1="305.6167" y2="340.4214"/><polygon fill="#A80036" points="436,330.4214,440,340.4214,444,330.4214,440,334.4214" style="stroke:#A80036;stroke-width:1.0;"/><text fill="#000000" font-family="sans-serif" font-size="11" lengthAdjust="spacing" textLength="119" x="440" y="326.8271">i have loaded image</text><line style="stroke:#A80036;stroke-width:1.5;" x1="140" x2="140" y1="442.3276" y2="464.3276"/><line style="stroke:#A80036;stroke-width:1.5;" x1="140" x2="278" y1="464.3276" y2="464.3276"/><polygon fill="#A80036" points="268,460.3276,278,464.3276,268,468.3276,272,464.3276" style="stroke:#A80036;stroke-width:1.0;"/><line style="stroke:#A80036;stroke-width:1.5;" x1="440" x2="440" y1="388.3589" y2="464.3276"/><line style="stroke:#A80036;stroke-width:1.5;" x1="440" x2="302" y1="464.3276" y2="464.3276"/><polygon fill="#A80036" points="312,460.3276,302,464.3276,312,468.3276,308,464.3276" style="stroke:#A80036;stroke-width:1.0;"/><line style="stroke:#A80036;stroke-width:1.5;" x1="290" x2="290" y1="261.9063" y2="293.6167"/><polygon fill="#A80036" points="286,283.6167,290,293.6167,294,283.6167,290,287.6167" style="stroke:#A80036;stroke-width:1.0;"/><line style="stroke:#A80036;stroke-width:1.5;" x1="290" x2="290" y1="476.3276" y2="486.3276"/><line style="stroke:#A80036;stroke-width:1.5;" x1="290" x2="521" y1="486.3276" y2="486.3276"/><polygon fill="#A80036" points="517,419.0698,521,409.0698,525,419.0698,521,415.0698" style="stroke:#A80036;stroke-width:1.5;"/><line style="stroke:#A80036;stroke-width:1.5;" x1="521" x2="521" y1="249.9063" y2="486.3276"/><line style="stroke:#A80036;stroke-width:1.5;" x1="521" x2="402" y1="249.9063" y2="249.9063"/><polygon fill="#A80036" points="412,245.9063,402,249.9063,412,253.9063,408,249.9063" style="stroke:#A80036;stroke-width:1.0;"/><line style="stroke:#A80036;stroke-width:1.5;" x1="178" x2="51.5" y1="249.9063" y2="249.9063"/><polygon fill="#A80036" points="47.5,405.0698,51.5,415.0698,55.5,405.0698,51.5,409.0698" style="stroke:#A80036;stroke-width:1.5;"/><line style="stroke:#A80036;stroke-width:1.5;" x1="51.5" x2="51.5" y1="249.9063" y2="498.3276"/><line style="stroke:#A80036;stroke-width:1.5;" x1="51.5" x2="290" y1="498.3276" y2="498.3276"/><line style="stroke:#A80036;stroke-width:1.5;" x1="290" x2="290" y1="498.3276" y2="518.3276"/><polygon fill="#A80036" points="286,508.3276,290,518.3276,294,508.3276,290,512.3276" style="stroke:#A80036;stroke-width:1.0;"/><line style="stroke:#A80036;stroke-width:1.5;" x1="290" x2="290" y1="217.9063" y2="237.9063"/><polygon fill="#A80036" points="286,227.9063,290,237.9063,294,227.9063,290,231.9063" style="stroke:#A80036;stroke-width:1.0;"/><line style="stroke:#A80036;stroke-width:1.5;" x1="280.25" x2="280.25" y1="191.9063" y2="211.9063"/><polygon fill="#A80036" points="276.25,201.9063,280.25,211.9063,284.25,201.9063,280.25,205.9063" style="stroke:#A80036;stroke-width:1.0;"/><line style="stroke:#A80036;stroke-width:1.5;" x1="280.25" x2="280.25" y1="524.3276" y2="544.3276"/><polygon fill="#A80036" points="276.25,534.3276,280.25,544.3276,284.25,534.3276,280.25,538.3276" style="stroke:#A80036;stroke-width:1.0;"/><line style="stroke:#A80036;stroke-width:1.5;" x1="280.25" x2="280.25" y1="578.2964" y2="598.2964"/><polygon fill="#A80036" points="276.25,588.2964,280.25,598.2964,284.25,588.2964,280.25,592.2964" style="stroke:#A80036;stroke-width:1.0;"/><line style="stroke:#A80036;stroke-width:1.5;" x1="148.75" x2="148.75" y1="778.2026" y2="813.2026"/><polygon fill="#A80036" points="144.75,803.2026,148.75,813.2026,152.75,803.2026,148.75,807.2026" style="stroke:#A80036;stroke-width:1.0;"/><line style="stroke:#A80036;stroke-width:1.5;" x1="411.75" x2="411.75" y1="764.2339" y2="799.2339"/><polygon fill="#A80036" points="407.75,789.2339,411.75,799.2339,415.75,789.2339,411.75,793.2339" style="stroke:#A80036;stroke-width:1.0;"/><line style="stroke:#A80036;stroke-width:1.5;" x1="227.75" x2="148.75" y1="708.2651" y2="708.2651"/><line style="stroke:#A80036;stroke-width:1.5;" x1="148.75" x2="148.75" y1="708.2651" y2="730.2651"/><polygon fill="#A80036" points="144.75,720.2651,148.75,730.2651,152.75,720.2651,148.75,724.2651" style="stroke:#A80036;stroke-width:1.0;"/><line style="stroke:#A80036;stroke-width:1.5;" x1="332.75" x2="411.75" y1="708.2651" y2="708.2651"/><line style="stroke:#A80036;stroke-width:1.5;" x1="411.75" x2="411.75" y1="708.2651" y2="730.2651"/><polygon fill="#A80036" points="407.75,720.2651,411.75,730.2651,415.75,720.2651,411.75,724.2651" style="stroke:#A80036;stroke-width:1.0;"/><line style="stroke:#A80036;stroke-width:1.5;" x1="148.75" x2="148.75" y1="847.1714" y2="865.1714"/><line style="stroke:#A80036;stroke-width:1.5;" x1="148.75" x2="268.25" y1="865.1714" y2="865.1714"/><polygon fill="#A80036" points="258.25,861.1714,268.25,865.1714,258.25,869.1714,262.25,865.1714" style="stroke:#A80036;stroke-width:1.0;"/><line style="stroke:#A80036;stroke-width:1.5;" x1="411.75" x2="411.75" y1="833.2026" y2="865.1714"/><line style="stroke:#A80036;stroke-width:1.5;" x1="411.75" x2="292.25" y1="865.1714" y2="865.1714"/><polygon fill="#A80036" points="302.25,861.1714,292.25,865.1714,302.25,869.1714,298.25,865.1714" style="stroke:#A80036;stroke-width:1.0;"/><line style="stroke:#A80036;stroke-width:1.5;" x1="280.25" x2="280.25" y1="676.2651" y2="696.2651"/><polygon fill="#A80036" points="276.25,686.2651,280.25,696.2651,284.25,686.2651,280.25,690.2651" style="stroke:#A80036;stroke-width:1.0;"/><line style="stroke:#A80036;stroke-width:1.5;" x1="280.25" x2="280.25" y1="877.1714" y2="887.1714"/><line style="stroke:#A80036;stroke-width:1.5;" x1="280.25" x2="569.75" y1="887.1714" y2="887.1714"/><polygon fill="#A80036" points="565.75,784.7183,569.75,774.7183,573.75,784.7183,569.75,780.7183" style="stroke:#A80036;stroke-width:1.5;"/><line style="stroke:#A80036;stroke-width:1.5;" x1="569.75" x2="569.75" y1="664.2651" y2="887.1714"/><line style="stroke:#A80036;stroke-width:1.5;" x1="569.75" x2="371.75" y1="664.2651" y2="664.2651"/><polygon fill="#A80036" points="381.75,660.2651,371.75,664.2651,381.75,668.2651,377.75,664.2651" style="stroke:#A80036;stroke-width:1.0;"/><line style="stroke:#A80036;stroke-width:1.5;" x1="188.75" x2="24" y1="664.2651" y2="664.2651"/><polygon fill="#A80036" points="20,770.7183,24,780.7183,28,770.7183,24,774.7183" style="stroke:#A80036;stroke-width:1.5;"/><line style="stroke:#A80036;stroke-width:1.5;" x1="24" x2="24" y1="664.2651" y2="899.1714"/><line style="stroke:#A80036;stroke-width:1.5;" x1="24" x2="280.25" y1="899.1714" y2="899.1714"/><line style="stroke:#A80036;stroke-width:1.5;" x1="280.25" x2="280.25" y1="899.1714" y2="919.1714"/><polygon fill="#A80036" points="276.25,909.1714,280.25,919.1714,284.25,909.1714,280.25,913.1714" style="stroke:#A80036;stroke-width:1.0;"/><line style="stroke:#A80036;stroke-width:1.5;" x1="280.25" x2="280.25" y1="632.2651" y2="652.2651"/><polygon fill="#A80036" points="276.25,642.2651,280.25,652.2651,284.25,642.2651,280.25,646.2651" style="stroke:#A80036;stroke-width:1.0;"/><!--MD5=[74faced484acd8e823400474d86e998b]
@startuml
start
:Send all clients show GameScreen message;
: Sends instruction to LOAD_IMAGE;
:Room.startSetup();
fork
    while (Have all clients loaded the image?) is (no :/)

        switch (clientRequestsSomething (prolly in String?))
        case (send image hash)
            :client sends message
            asking for imageHash;
            :send imageHash;
        case (i have loaded image)
            :update that Player's
            isLoaded = true;
        endswitch
    endwhile (all loaded ^-^)
end fork
:send GamesScene;
:start tick count;
while (GameMode.ended() != true)
    if (tick < tickRate) then (yes)
        :collect and verify and sanitise
        user input;
        :tick = time.now() - tickStartTime;
    else (no)
        :tickStartTime = time.now();
        :GameMode.playTurn(userInput dictionary);
    endif
endwhile
    :game ends (Room.endGame());
@enduml

PlantUML version 1.2021.9beta2(Unknown compile time)
(GPL source distribution)
Java Runtime: Java(TM) SE Runtime Environment
JVM: Java HotSpot(TM) 64-Bit Server VM
Default Encoding: UTF-8
Language: en
Country: US
--></g></svg>