<?xml version="1.0" encoding="UTF-8" standalone="no"?><svg xmlns="http://www.w3.org/2000/svg" xmlns:xlink="http://www.w3.org/1999/xlink" contentScriptType="application/ecmascript" contentStyleType="text/css" height="513px" preserveAspectRatio="none" style="width:454px;height:513px;background:#FFFFFF;" version="1.1" viewBox="0 0 454 513" width="454px" zoomAndPan="magnify"><defs><filter height="300%" id="f1h4rc5cj0ssu7" width="300%" x="-1" y="-1"><feGaussianBlur result="blurOut" stdDeviation="2.0"/><feColorMatrix in="blurOut" result="blurOut2" type="matrix" values="0 0 0 0 0 0 0 0 0 0 0 0 0 0 0 0 0 0 .4 0"/><feOffset dx="4.0" dy="4.0" in="blurOut2" result="blurOut3"/><feBlend in="SourceGraphic" in2="blurOut3" mode="normal"/></filter></defs><g><ellipse cx="227" cy="20" fill="#000000" filter="url(#f1h4rc5cj0ssu7)" rx="10" ry="10" style="stroke:none;stroke-width:1.0;"/><rect fill="#FEFECE" filter="url(#f1h4rc5cj0ssu7)" height="33.9688" rx="12.5" ry="12.5" style="stroke:#A80036;stroke-width:1.5;" width="90" x="182" y="50"/><text fill="#000000" font-family="sans-serif" font-size="12" lengthAdjust="spacing" textLength="70" x="192" y="71.1387">room starts</text><rect fill="#000000" filter="url(#f1h4rc5cj0ssu7)" height="6" rx="2.5" ry="2.5" style="stroke:#000000;stroke-width:1.0;" width="426" x="11" y="103.9688"/><rect fill="#FEFECE" filter="url(#f1h4rc5cj0ssu7)" height="33.9688" rx="12.5" ry="12.5" style="stroke:#A80036;stroke-width:1.5;" width="135" x="107.5" y="129.9688"/><text fill="#000000" font-family="sans-serif" font-size="12" lengthAdjust="spacing" textLength="115" x="117.5" y="151.1074">GameMode Thread</text><rect fill="#FEFECE" filter="url(#f1h4rc5cj0ssu7)" height="47.9375" rx="12.5" ry="12.5" style="stroke:#A80036;stroke-width:1.5;" width="264" x="43" y="227.9375"/><text fill="#000000" font-family="sans-serif" font-size="12" lengthAdjust="spacing" textLength="244" x="53" y="249.0762">collect and verify and sanitise user input</text><text fill="#000000" font-family="sans-serif" font-size="12" lengthAdjust="spacing" textLength="153" x="53" y="263.0449">during the set server tick</text><rect fill="#FEFECE" filter="url(#f1h4rc5cj0ssu7)" height="33.9688" rx="12.5" ry="12.5" style="stroke:#A80036;stroke-width:1.5;" width="272" x="39" y="310.875"/><text fill="#000000" font-family="sans-serif" font-size="12" lengthAdjust="spacing" textLength="252" x="49" y="332.0137">GameMode.playTurn(userInput dictionary)</text><polygon fill="#FEFECE" filter="url(#f1h4rc5cj0ssu7)" points="85.5,183.9375,264.5,183.9375,276.5,195.9375,264.5,207.9375,85.5,207.9375,73.5,195.9375,85.5,183.9375" style="stroke:#A80036;stroke-width:1.5;"/><text fill="#000000" font-family="sans-serif" font-size="11" lengthAdjust="spacing" textLength="179" x="85.5" y="199.7456">game ended or timer runs out?</text><rect fill="#FEFECE" filter="url(#f1h4rc5cj0ssu7)" height="33.9688" rx="12.5" ry="12.5" style="stroke:#A80036;stroke-width:1.5;" width="242" x="54" y="386.8438"/><text fill="#000000" font-family="sans-serif" font-size="12" lengthAdjust="spacing" textLength="222" x="64" y="407.9824">game ends (GameMode.endGame())</text><rect fill="#FEFECE" filter="url(#f1h4rc5cj0ssu7)" height="33.9688" rx="12.5" ry="12.5" style="stroke:#A80036;stroke-width:1.5;" width="88" x="337" y="257.4063"/><text fill="#000000" font-family="sans-serif" font-size="12" lengthAdjust="spacing" textLength="68" x="347" y="278.5449">chat thread</text><polygon fill="#FEFECE" filter="url(#f1h4rc5cj0ssu7)" points="227,430.8125,239,442.8125,227,454.8125,215,442.8125,227,430.8125" style="stroke:#A80036;stroke-width:1.5;"/><ellipse cx="227" cy="485.8125" fill="#FFFFFF" filter="url(#f1h4rc5cj0ssu7)" rx="11" ry="11" style="stroke:#000000;stroke-width:1.0;"/><ellipse cx="227" cy="485.8125" fill="#000000" rx="6" ry="6" style="stroke:#7F7F7F;stroke-width:1.0;"/><line style="stroke:#A80036;stroke-width:1.5;" x1="227" x2="227" y1="30" y2="50"/><polygon fill="#A80036" points="223,40,227,50,231,40,227,44" style="stroke:#A80036;stroke-width:1.0;"/><line style="stroke:#A80036;stroke-width:1.5;" x1="175" x2="175" y1="275.875" y2="310.875"/><polygon fill="#A80036" points="171,300.875,175,310.875,179,300.875,175,304.875" style="stroke:#A80036;stroke-width:1.0;"/><line style="stroke:#A80036;stroke-width:1.5;" x1="175" x2="175" y1="207.9375" y2="227.9375"/><polygon fill="#A80036" points="171,217.9375,175,227.9375,179,217.9375,175,221.9375" style="stroke:#A80036;stroke-width:1.0;"/><line style="stroke:#A80036;stroke-width:1.5;" x1="175" x2="175" y1="344.8438" y2="354.8438"/><line style="stroke:#A80036;stroke-width:1.5;" x1="175" x2="323" y1="354.8438" y2="354.8438"/><polygon fill="#A80036" points="319,284.3906,323,274.3906,327,284.3906,323,280.3906" style="stroke:#A80036;stroke-width:1.5;"/><line style="stroke:#A80036;stroke-width:1.5;" x1="323" x2="323" y1="195.9375" y2="354.8438"/><line style="stroke:#A80036;stroke-width:1.5;" x1="323" x2="276.5" y1="195.9375" y2="195.9375"/><polygon fill="#A80036" points="286.5,191.9375,276.5,195.9375,286.5,199.9375,282.5,195.9375" style="stroke:#A80036;stroke-width:1.0;"/><line style="stroke:#A80036;stroke-width:1.5;" x1="73.5" x2="27" y1="195.9375" y2="195.9375"/><polygon fill="#A80036" points="23,270.3906,27,280.3906,31,270.3906,27,274.3906" style="stroke:#A80036;stroke-width:1.5;"/><line style="stroke:#A80036;stroke-width:1.5;" x1="27" x2="27" y1="195.9375" y2="366.8438"/><line style="stroke:#A80036;stroke-width:1.5;" x1="27" x2="175" y1="366.8438" y2="366.8438"/><line style="stroke:#A80036;stroke-width:1.5;" x1="175" x2="175" y1="366.8438" y2="386.8438"/><polygon fill="#A80036" points="171,376.8438,175,386.8438,179,376.8438,175,380.8438" style="stroke:#A80036;stroke-width:1.0;"/><line style="stroke:#A80036;stroke-width:1.5;" x1="175" x2="175" y1="163.9375" y2="183.9375"/><polygon fill="#A80036" points="171,173.9375,175,183.9375,179,173.9375,175,177.9375" style="stroke:#A80036;stroke-width:1.0;"/><line style="stroke:#A80036;stroke-width:1.5;" x1="175" x2="175" y1="109.9688" y2="129.9688"/><polygon fill="#A80036" points="171,119.9688,175,129.9688,179,119.9688,175,123.9688" style="stroke:#A80036;stroke-width:1.0;"/><line style="stroke:#A80036;stroke-width:1.5;" x1="381" x2="381" y1="109.9688" y2="257.4063"/><polygon fill="#A80036" points="377,247.4063,381,257.4063,385,247.4063,381,251.4063" style="stroke:#A80036;stroke-width:1.0;"/><line style="stroke:#A80036;stroke-width:1.5;" x1="175" x2="175" y1="420.8125" y2="442.8125"/><line style="stroke:#A80036;stroke-width:1.5;" x1="175" x2="215" y1="442.8125" y2="442.8125"/><polygon fill="#A80036" points="205,438.8125,215,442.8125,205,446.8125,209,442.8125" style="stroke:#A80036;stroke-width:1.0;"/><line style="stroke:#A80036;stroke-width:1.5;" x1="381" x2="381" y1="291.375" y2="442.8125"/><line style="stroke:#A80036;stroke-width:1.5;" x1="381" x2="239" y1="442.8125" y2="442.8125"/><polygon fill="#A80036" points="249,438.8125,239,442.8125,249,446.8125,245,442.8125" style="stroke:#A80036;stroke-width:1.0;"/><line style="stroke:#A80036;stroke-width:1.5;" x1="227" x2="227" y1="83.9688" y2="103.9688"/><polygon fill="#A80036" points="223,93.9688,227,103.9688,231,93.9688,227,97.9688" style="stroke:#A80036;stroke-width:1.0;"/><line style="stroke:#A80036;stroke-width:1.5;" x1="227" x2="227" y1="454.8125" y2="474.8125"/><polygon fill="#A80036" points="223,464.8125,227,474.8125,231,464.8125,227,468.8125" style="stroke:#A80036;stroke-width:1.0;"/><!--MD5=[cf4198b7566149d698103377f405dd6b]
@startuml
start
:room starts;
fork
    :GameMode Thread;
    while (game ended or timer runs out?)
        :collect and verify and sanitise user input
        during the set server tick;
        :GameMode.playTurn(userInput dictionary);
    endwhile
    :game ends (GameMode.endGame());
fork again
    :chat thread;
end merge
stop
@enduml

PlantUML version 1.2021.9beta2(Unknown compile time)
(GPL source distribution)
Java Runtime: Java(TM) SE Runtime Environment
JVM: Java HotSpot(TM) 64-Bit Server VM
Default Encoding: UTF-8
Language: en
Country: US
--></g></svg>