<?xml version="1.0" encoding="UTF-8" standalone="no"?><svg xmlns="http://www.w3.org/2000/svg" xmlns:xlink="http://www.w3.org/1999/xlink" contentScriptType="application/ecmascript" contentStyleType="text/css" height="356px" preserveAspectRatio="none" style="width:685px;height:356px;background:#FFFFFF;" version="1.1" viewBox="0 0 685 356" width="685px" zoomAndPan="magnify"><defs><filter height="300%" id="f2upcfj4l4u69" width="300%" x="-1" y="-1"><feGaussianBlur result="blurOut" stdDeviation="2.0"/><feColorMatrix in="blurOut" result="blurOut2" type="matrix" values="0 0 0 0 0 0 0 0 0 0 0 0 0 0 0 0 0 0 .4 0"/><feOffset dx="4.0" dy="4.0" in="blurOut2" result="blurOut3"/><feBlend in="SourceGraphic" in2="blurOut3" mode="normal"/></filter></defs><g><!--MD5=[c60af77fe5573b84a4aa4bce89659574]
class Server--><rect codeLine="1" fill="#FEFECE" filter="url(#f2upcfj4l4u69)" height="73.6094" id="Server" style="stroke:#A80036;stroke-width:1.5;" width="120" x="211" y="51.5"/><ellipse cx="247.15" cy="67.5" fill="#ADD1B2" rx="11" ry="11" style="stroke:#A80036;stroke-width:1.0;"/><path d="M249.4938,63.1719 C248.5563,62.7344 247.9625,62.5938 247.0875,62.5938 C244.4625,62.5938 242.4625,64.6719 242.4625,67.3906 L242.4625,68.5156 C242.4625,71.0938 244.5719,72.9844 247.4625,72.9844 C248.6813,72.9844 249.8375,72.6875 250.5875,72.1406 C251.1656,71.7344 251.4938,71.2813 251.4938,70.8906 C251.4938,70.4375 251.1031,70.0469 250.6344,70.0469 C250.4156,70.0469 250.2125,70.125 250.025,70.3125 C249.5719,70.7969 249.5719,70.7969 249.3844,70.8906 C248.9625,71.1563 248.275,71.2813 247.5094,71.2813 C245.4625,71.2813 244.1656,70.1875 244.1656,68.4844 L244.1656,67.3906 C244.1656,65.6094 245.4156,64.2969 247.15,64.2969 C247.7281,64.2969 248.3375,64.4531 248.8063,64.7031 C249.2906,64.9844 249.4625,65.2031 249.5563,65.6094 C249.6188,66.0156 249.65,66.1406 249.7906,66.2656 C249.9313,66.4063 250.1656,66.5156 250.3844,66.5156 C250.65,66.5156 250.9156,66.375 251.0875,66.1563 C251.1969,66 251.2281,65.8125 251.2281,65.3906 L251.2281,63.9688 C251.2281,63.5313 251.2125,63.4063 251.1188,63.25 C250.9625,62.9844 250.6813,62.8438 250.3844,62.8438 C250.0875,62.8438 249.8844,62.9375 249.6656,63.25 L249.4938,63.1719 Z " fill="#000000"/><text fill="#000000" font-family="sans-serif" font-size="12" lengthAdjust="spacing" textLength="41" x="265.85" y="71.6543">Server</text><line style="stroke:#A80036;stroke-width:1.5;" x1="212" x2="330" y1="83.5" y2="83.5"/><rect fill="none" height="6" style="stroke:#C82930;stroke-width:1.0;" width="6" x="219" y="91.5"/><text fill="#000000" font-family="sans-serif" font-size="11" lengthAdjust="spacing" textLength="94" x="231" y="97.7104">ArrayList: Rooms</text><line style="stroke:#A80036;stroke-width:1.5;" x1="212" x2="330" y1="104.3047" y2="104.3047"/><ellipse cx="222" cy="115.3047" fill="#84BE84" rx="3" ry="3" style="stroke:#038048;stroke-width:1.0;"/><text fill="#000000" font-family="sans-serif" font-size="11" lengthAdjust="spacing" textLength="39" x="231" y="118.5151">listen()</text><!--MD5=[d218c48b946d362ff1ecd879cabebcad]
class Room--><rect codeLine="5" fill="#FEFECE" filter="url(#f2upcfj4l4u69)" height="163.2422" id="Room" style="stroke:#A80036;stroke-width:1.5;" width="164" x="366" y="7"/><ellipse cx="426.75" cy="23" fill="#ADD1B2" rx="11" ry="11" style="stroke:#A80036;stroke-width:1.0;"/><path d="M429.0938,18.6719 C428.1563,18.2344 427.5625,18.0938 426.6875,18.0938 C424.0625,18.0938 422.0625,20.1719 422.0625,22.8906 L422.0625,24.0156 C422.0625,26.5938 424.1719,28.4844 427.0625,28.4844 C428.2813,28.4844 429.4375,28.1875 430.1875,27.6406 C430.7656,27.2344 431.0938,26.7813 431.0938,26.3906 C431.0938,25.9375 430.7031,25.5469 430.2344,25.5469 C430.0156,25.5469 429.8125,25.625 429.625,25.8125 C429.1719,26.2969 429.1719,26.2969 428.9844,26.3906 C428.5625,26.6563 427.875,26.7813 427.1094,26.7813 C425.0625,26.7813 423.7656,25.6875 423.7656,23.9844 L423.7656,22.8906 C423.7656,21.1094 425.0156,19.7969 426.75,19.7969 C427.3281,19.7969 427.9375,19.9531 428.4063,20.2031 C428.8906,20.4844 429.0625,20.7031 429.1563,21.1094 C429.2188,21.5156 429.25,21.6406 429.3906,21.7656 C429.5313,21.9063 429.7656,22.0156 429.9844,22.0156 C430.25,22.0156 430.5156,21.875 430.6875,21.6563 C430.7969,21.5 430.8281,21.3125 430.8281,20.8906 L430.8281,19.4688 C430.8281,19.0313 430.8125,18.9063 430.7188,18.75 C430.5625,18.4844 430.2813,18.3438 429.9844,18.3438 C429.6875,18.3438 429.4844,18.4375 429.2656,18.75 L429.0938,18.6719 Z " fill="#000000"/><text fill="#000000" font-family="sans-serif" font-size="12" lengthAdjust="spacing" textLength="34" x="447.25" y="27.1543">Room</text><line style="stroke:#A80036;stroke-width:1.5;" x1="367" x2="529" y1="39" y2="39"/><rect fill="none" height="6" style="stroke:#C82930;stroke-width:1.0;" width="6" x="374" y="47"/><text fill="#000000" font-family="sans-serif" font-size="11" lengthAdjust="spacing" textLength="97" x="386" y="53.2104">ArrayList: Players</text><rect fill="none" height="6" style="stroke:#C82930;stroke-width:1.0;" width="6" x="374" y="59.8047"/><text fill="#000000" font-family="sans-serif" font-size="11" lengthAdjust="spacing" textLength="106" x="386" y="66.0151">GameMode: mode</text><rect fill="none" height="6" style="stroke:#C82930;stroke-width:1.0;" width="6" x="374" y="72.6094"/><text fill="#000000" font-family="sans-serif" font-size="11" lengthAdjust="spacing" textLength="98" x="386" y="78.8198">int: curTick or tick</text><line style="stroke:#A80036;stroke-width:1.5;" x1="367" x2="529" y1="85.4141" y2="85.4141"/><rect fill="#F24D5C" height="6" style="stroke:#C82930;stroke-width:1.0;" width="6" x="374" y="93.4141"/><text fill="#000000" font-family="sans-serif" font-size="11" lengthAdjust="spacing" textLength="95" x="386" y="99.6245">int: tickRate (ms)</text><ellipse cx="377" cy="109.2188" fill="#84BE84" rx="3" ry="3" style="stroke:#038048;stroke-width:1.0;"/><text fill="#000000" font-family="sans-serif" font-size="11" lengthAdjust="spacing" textLength="64" x="386" y="112.4292">addPlayer()</text><ellipse cx="377" cy="122.0234" fill="#84BE84" rx="3" ry="3" style="stroke:#038048;stroke-width:1.0;"/><text fill="#000000" font-family="sans-serif" font-size="11" lengthAdjust="spacing" textLength="86" x="386" y="125.2339">ready() -&gt; bool</text><ellipse cx="377" cy="134.8281" fill="#84BE84" rx="3" ry="3" style="stroke:#038048;stroke-width:1.0;"/><text fill="#000000" font-family="sans-serif" font-size="11" lengthAdjust="spacing" textLength="65" x="386" y="138.0386">endGame()</text><rect fill="#F24D5C" height="6" style="stroke:#C82930;stroke-width:1.0;" width="6" x="374" y="144.6328"/><text fill="#000000" font-family="sans-serif" font-size="11" lengthAdjust="spacing" textLength="138" x="386" y="150.8433">sendMessage(Message)</text><rect fill="#F24D5C" height="6" style="stroke:#C82930;stroke-width:1.0;" width="6" x="374" y="157.4375"/><text fill="#000000" font-family="sans-serif" font-size="11" lengthAdjust="spacing" textLength="114" x="386" y="163.6479">updateGameState()</text><!--MD5=[5eb2ac03d0c371fca296cb0d00e756e3]
class GameMode--><rect codeLine="17" fill="#FEFECE" filter="url(#f2upcfj4l4u69)" height="86.4141" id="GameMode" style="stroke:#A80036;stroke-width:1.5;" width="106" x="565" y="45.5"/><ellipse cx="582.25" cy="61.5" fill="#ADD1B2" rx="11" ry="11" style="stroke:#A80036;stroke-width:1.0;"/><path d="M584.5938,57.1719 C583.6563,56.7344 583.0625,56.5938 582.1875,56.5938 C579.5625,56.5938 577.5625,58.6719 577.5625,61.3906 L577.5625,62.5156 C577.5625,65.0938 579.6719,66.9844 582.5625,66.9844 C583.7813,66.9844 584.9375,66.6875 585.6875,66.1406 C586.2656,65.7344 586.5938,65.2813 586.5938,64.8906 C586.5938,64.4375 586.2031,64.0469 585.7344,64.0469 C585.5156,64.0469 585.3125,64.125 585.125,64.3125 C584.6719,64.7969 584.6719,64.7969 584.4844,64.8906 C584.0625,65.1563 583.375,65.2813 582.6094,65.2813 C580.5625,65.2813 579.2656,64.1875 579.2656,62.4844 L579.2656,61.3906 C579.2656,59.6094 580.5156,58.2969 582.25,58.2969 C582.8281,58.2969 583.4375,58.4531 583.9063,58.7031 C584.3906,58.9844 584.5625,59.2031 584.6563,59.6094 C584.7188,60.0156 584.75,60.1406 584.8906,60.2656 C585.0313,60.4063 585.2656,60.5156 585.4844,60.5156 C585.75,60.5156 586.0156,60.375 586.1875,60.1563 C586.2969,60 586.3281,59.8125 586.3281,59.3906 L586.3281,57.9688 C586.3281,57.5313 586.3125,57.4063 586.2188,57.25 C586.0625,56.9844 585.7813,56.8438 585.4844,56.8438 C585.1875,56.8438 584.9844,56.9375 584.7656,57.25 L584.5938,57.1719 Z " fill="#000000"/><text fill="#000000" font-family="sans-serif" font-size="12" lengthAdjust="spacing" textLength="69" x="596.75" y="65.6543">GameMode</text><line style="stroke:#A80036;stroke-width:1.5;" x1="566" x2="670" y1="77.5" y2="77.5"/><line style="stroke:#A80036;stroke-width:1.5;" x1="566" x2="670" y1="85.5" y2="85.5"/><ellipse cx="576" cy="96.5" fill="#84BE84" rx="3" ry="3" style="stroke:#038048;stroke-width:1.0;"/><text fill="#000000" font-family="sans-serif" font-size="11" lengthAdjust="spacing" textLength="77" x="585" y="99.7104">gameEnded()</text><ellipse cx="576" cy="109.3047" fill="#84BE84" rx="3" ry="3" style="stroke:#038048;stroke-width:1.0;"/><text fill="#000000" font-family="sans-serif" font-size="11" lengthAdjust="spacing" textLength="80" x="585" y="112.5151">processInput()</text><ellipse cx="576" cy="122.1094" fill="#84BE84" rx="3" ry="3" style="stroke:#038048;stroke-width:1.0;"/><text fill="#000000" font-family="sans-serif" font-size="11" lengthAdjust="spacing" textLength="66" x="585" y="125.3198">getScores()</text><!--MD5=[511f332b135bf54771edaeeaf366248f]
class Players--><rect codeLine="22" fill="#FEFECE" filter="url(#f2upcfj4l4u69)" height="112.0234" id="Players" style="stroke:#A80036;stroke-width:1.5;" width="133" x="381.5" y="230"/><ellipse cx="422.6" cy="246" fill="#ADD1B2" rx="11" ry="11" style="stroke:#A80036;stroke-width:1.0;"/><path d="M424.9438,241.6719 C424.0063,241.2344 423.4125,241.0938 422.5375,241.0938 C419.9125,241.0938 417.9125,243.1719 417.9125,245.8906 L417.9125,247.0156 C417.9125,249.5938 420.0219,251.4844 422.9125,251.4844 C424.1313,251.4844 425.2875,251.1875 426.0375,250.6406 C426.6156,250.2344 426.9438,249.7813 426.9438,249.3906 C426.9438,248.9375 426.5531,248.5469 426.0844,248.5469 C425.8656,248.5469 425.6625,248.625 425.475,248.8125 C425.0219,249.2969 425.0219,249.2969 424.8344,249.3906 C424.4125,249.6563 423.725,249.7813 422.9594,249.7813 C420.9125,249.7813 419.6156,248.6875 419.6156,246.9844 L419.6156,245.8906 C419.6156,244.1094 420.8656,242.7969 422.6,242.7969 C423.1781,242.7969 423.7875,242.9531 424.2563,243.2031 C424.7406,243.4844 424.9125,243.7031 425.0063,244.1094 C425.0688,244.5156 425.1,244.6406 425.2406,244.7656 C425.3813,244.9063 425.6156,245.0156 425.8344,245.0156 C426.1,245.0156 426.3656,244.875 426.5375,244.6563 C426.6469,244.5 426.6781,244.3125 426.6781,243.8906 L426.6781,242.4688 C426.6781,242.0313 426.6625,241.9063 426.5688,241.75 C426.4125,241.4844 426.1313,241.3438 425.8344,241.3438 C425.5375,241.3438 425.3344,241.4375 425.1156,241.75 L424.9438,241.6719 Z " fill="#000000"/><text fill="#000000" font-family="sans-serif" font-size="12" lengthAdjust="spacing" textLength="43" x="442.4" y="250.1543">Players</text><line style="stroke:#A80036;stroke-width:1.5;" x1="382.5" x2="513.5" y1="262" y2="262"/><rect fill="none" height="6" style="stroke:#C82930;stroke-width:1.0;" width="6" x="389.5" y="270"/><text fill="#000000" font-family="sans-serif" font-size="11" lengthAdjust="spacing" textLength="39" x="401.5" y="276.2104">Socket</text><rect fill="none" height="6" style="stroke:#C82930;stroke-width:1.0;" width="6" x="389.5" y="282.8047"/><text fill="#000000" font-family="sans-serif" font-size="11" lengthAdjust="spacing" textLength="70" x="401.5" y="289.0151">InputStream</text><rect fill="none" height="6" style="stroke:#C82930;stroke-width:1.0;" width="6" x="389.5" y="295.6094"/><text fill="#000000" font-family="sans-serif" font-size="11" lengthAdjust="spacing" textLength="80" x="401.5" y="301.8198">OutputStream</text><line style="stroke:#A80036;stroke-width:1.5;" x1="382.5" x2="513.5" y1="308.4141" y2="308.4141"/><ellipse cx="392.5" cy="319.4141" fill="#84BE84" rx="3" ry="3" style="stroke:#038048;stroke-width:1.0;"/><text fill="#000000" font-family="sans-serif" font-size="11" lengthAdjust="spacing" textLength="107" x="401.5" y="322.6245">getOutputStream()</text><ellipse cx="392.5" cy="332.2188" fill="#84BE84" rx="3" ry="3" style="stroke:#038048;stroke-width:1.0;"/><text fill="#000000" font-family="sans-serif" font-size="11" lengthAdjust="spacing" textLength="97" x="401.5" y="335.4292">getInputStream()</text><path d="M6,56 L6,111.3984 A0,0 0 0 0 6,111.3984 L176,111.3984 A0,0 0 0 0 176,111.3984 L176,87.6992 L215,114.707 L176,79.6992 L176,66 L166,56 L6,56 A0,0 0 0 0 6,56 " fill="#FBFB77" filter="url(#f2upcfj4l4u69)" style="stroke:#A80036;stroke-width:1.0;"/><path d="M166,56 L166,66 L176,66 L166,56 " fill="#FBFB77" style="stroke:#A80036;stroke-width:1.0;"/><text fill="#000000" font-family="sans-serif" font-size="13" lengthAdjust="spacing" textLength="96" x="12" y="73.0669">start accepting</text><text fill="#000000" font-family="sans-serif" font-size="13" lengthAdjust="spacing" textLength="105" x="16" y="88.1997">connections and</text><text fill="#000000" font-family="sans-serif" font-size="13" lengthAdjust="spacing" textLength="145" x="16" y="103.3325">making Room Threads</text><!--MD5=[3acbdececb1ec70f911e358bc38447e9]
link Server$$$LEFT to Server--><!--MD5=[60f26df19b36a728ef2790d0008fd3a7]
link Room to GameMode--><!--MD5=[bc7049c32f558d95be65e088f1bb9288]
link Room to Players--><!--MD5=[5b3a533b5f8d49d02cd9f20e79c9a2c3]
@startuml
class Server {
    - ArrayList: Rooms
    + listen()
}
class Room {
    - ArrayList: Players
    - GameMode: mode
    - int: tickRate (ms)
    - int: curTick or tick
    + addPlayer()
    + ready() -> bool
    + endGame()
    - sendMessage(Message)
    - updateGameState()
    
}
class GameMode{
    + gameEnded()
    + processInput()
    + getScores() 
}
class Players{
    - Socket
    - InputStream
    - OutputStream
    + getOutputStream()
    + getInputStream()
}
note left of Server::listen()
 start accepting
  connections and 
  making Room Threads
end note
@enduml

PlantUML version 1.2021.9beta2(Unknown compile time)
(GPL source distribution)
Java Runtime: Java(TM) SE Runtime Environment
JVM: Java HotSpot(TM) 64-Bit Server VM
Default Encoding: UTF-8
Language: en
Country: US
--></g></svg>