<?xml version="1.0" encoding="UTF-8" standalone="no"?><svg xmlns="http://www.w3.org/2000/svg" xmlns:xlink="http://www.w3.org/1999/xlink" contentScriptType="application/ecmascript" contentStyleType="text/css" height="395px" preserveAspectRatio="none" style="width:685px;height:395px;background:#FFFFFF;" version="1.1" viewBox="0 0 685 395" width="685px" zoomAndPan="magnify"><defs><filter height="300%" id="f1lixde3ynx90h" width="300%" x="-1" y="-1"><feGaussianBlur result="blurOut" stdDeviation="2.0"/><feColorMatrix in="blurOut" result="blurOut2" type="matrix" values="0 0 0 0 0 0 0 0 0 0 0 0 0 0 0 0 0 0 .4 0"/><feOffset dx="4.0" dy="4.0" in="blurOut2" result="blurOut3"/><feBlend in="SourceGraphic" in2="blurOut3" mode="normal"/></filter></defs><g><!--MD5=[c60af77fe5573b84a4aa4bce89659574]
class Server--><rect codeLine="1" fill="#FEFECE" filter="url(#f1lixde3ynx90h)" height="73.6094" id="Server" style="stroke:#A80036;stroke-width:1.5;" width="120" x="211" y="71"/><ellipse cx="247.15" cy="87" fill="#ADD1B2" rx="11" ry="11" style="stroke:#A80036;stroke-width:1.0;"/><path d="M249.4938,82.6719 C248.5563,82.2344 247.9625,82.0938 247.0875,82.0938 C244.4625,82.0938 242.4625,84.1719 242.4625,86.8906 L242.4625,88.0156 C242.4625,90.5938 244.5719,92.4844 247.4625,92.4844 C248.6813,92.4844 249.8375,92.1875 250.5875,91.6406 C251.1656,91.2344 251.4938,90.7813 251.4938,90.3906 C251.4938,89.9375 251.1031,89.5469 250.6344,89.5469 C250.4156,89.5469 250.2125,89.625 250.025,89.8125 C249.5719,90.2969 249.5719,90.2969 249.3844,90.3906 C248.9625,90.6563 248.275,90.7813 247.5094,90.7813 C245.4625,90.7813 244.1656,89.6875 244.1656,87.9844 L244.1656,86.8906 C244.1656,85.1094 245.4156,83.7969 247.15,83.7969 C247.7281,83.7969 248.3375,83.9531 248.8063,84.2031 C249.2906,84.4844 249.4625,84.7031 249.5563,85.1094 C249.6188,85.5156 249.65,85.6406 249.7906,85.7656 C249.9313,85.9063 250.1656,86.0156 250.3844,86.0156 C250.65,86.0156 250.9156,85.875 251.0875,85.6563 C251.1969,85.5 251.2281,85.3125 251.2281,84.8906 L251.2281,83.4688 C251.2281,83.0313 251.2125,82.9063 251.1188,82.75 C250.9625,82.4844 250.6813,82.3438 250.3844,82.3438 C250.0875,82.3438 249.8844,82.4375 249.6656,82.75 L249.4938,82.6719 Z " fill="#000000"/><text fill="#000000" font-family="sans-serif" font-size="12" lengthAdjust="spacing" textLength="41" x="265.85" y="91.1543">Server</text><line style="stroke:#A80036;stroke-width:1.5;" x1="212" x2="330" y1="103" y2="103"/><rect fill="none" height="6" style="stroke:#C82930;stroke-width:1.0;" width="6" x="219" y="111"/><text fill="#000000" font-family="sans-serif" font-size="11" lengthAdjust="spacing" textLength="94" x="231" y="117.2104">ArrayList: Rooms</text><line style="stroke:#A80036;stroke-width:1.5;" x1="212" x2="330" y1="123.8047" y2="123.8047"/><ellipse cx="222" cy="134.8047" fill="#84BE84" rx="3" ry="3" style="stroke:#038048;stroke-width:1.0;"/><text fill="#000000" font-family="sans-serif" font-size="11" lengthAdjust="spacing" textLength="39" x="231" y="138.0151">listen()</text><!--MD5=[d218c48b946d362ff1ecd879cabebcad]
class Room--><rect codeLine="5" fill="#FEFECE" filter="url(#f1lixde3ynx90h)" height="201.6563" id="Room" style="stroke:#A80036;stroke-width:1.5;" width="164" x="366" y="7"/><ellipse cx="426.75" cy="23" fill="#ADD1B2" rx="11" ry="11" style="stroke:#A80036;stroke-width:1.0;"/><path d="M429.0938,18.6719 C428.1563,18.2344 427.5625,18.0938 426.6875,18.0938 C424.0625,18.0938 422.0625,20.1719 422.0625,22.8906 L422.0625,24.0156 C422.0625,26.5938 424.1719,28.4844 427.0625,28.4844 C428.2813,28.4844 429.4375,28.1875 430.1875,27.6406 C430.7656,27.2344 431.0938,26.7813 431.0938,26.3906 C431.0938,25.9375 430.7031,25.5469 430.2344,25.5469 C430.0156,25.5469 429.8125,25.625 429.625,25.8125 C429.1719,26.2969 429.1719,26.2969 428.9844,26.3906 C428.5625,26.6563 427.875,26.7813 427.1094,26.7813 C425.0625,26.7813 423.7656,25.6875 423.7656,23.9844 L423.7656,22.8906 C423.7656,21.1094 425.0156,19.7969 426.75,19.7969 C427.3281,19.7969 427.9375,19.9531 428.4063,20.2031 C428.8906,20.4844 429.0625,20.7031 429.1563,21.1094 C429.2188,21.5156 429.25,21.6406 429.3906,21.7656 C429.5313,21.9063 429.7656,22.0156 429.9844,22.0156 C430.25,22.0156 430.5156,21.875 430.6875,21.6563 C430.7969,21.5 430.8281,21.3125 430.8281,20.8906 L430.8281,19.4688 C430.8281,19.0313 430.8125,18.9063 430.7188,18.75 C430.5625,18.4844 430.2813,18.3438 429.9844,18.3438 C429.6875,18.3438 429.4844,18.4375 429.2656,18.75 L429.0938,18.6719 Z " fill="#000000"/><text fill="#000000" font-family="sans-serif" font-size="12" lengthAdjust="spacing" textLength="34" x="447.25" y="27.1543">Room</text><line style="stroke:#A80036;stroke-width:1.5;" x1="367" x2="529" y1="39" y2="39"/><rect fill="none" height="6" style="stroke:#C82930;stroke-width:1.0;" width="6" x="374" y="47"/><text fill="#000000" font-family="sans-serif" font-size="11" lengthAdjust="spacing" textLength="104" x="386" y="53.2104">imageHash: String</text><rect fill="none" height="6" style="stroke:#C82930;stroke-width:1.0;" width="6" x="374" y="59.8047"/><text fill="#000000" font-family="sans-serif" font-size="11" lengthAdjust="spacing" textLength="97" x="386" y="66.0151">ArrayList: Players</text><rect fill="none" height="6" style="stroke:#C82930;stroke-width:1.0;" width="6" x="374" y="72.6094"/><text fill="#000000" font-family="sans-serif" font-size="11" lengthAdjust="spacing" textLength="122" x="386" y="78.8198">Map&lt;Players, Score&gt;</text><rect fill="none" height="6" style="stroke:#C82930;stroke-width:1.0;" width="6" x="374" y="85.4141"/><text fill="#000000" font-family="sans-serif" font-size="11" lengthAdjust="spacing" textLength="106" x="386" y="91.6245">GameMode: mode</text><rect fill="none" height="6" style="stroke:#C82930;stroke-width:1.0;" width="6" x="374" y="98.2188"/><text fill="#000000" font-family="sans-serif" font-size="11" lengthAdjust="spacing" textLength="98" x="386" y="104.4292">int: curTick or tick</text><line style="stroke:#A80036;stroke-width:1.5;" x1="367" x2="529" y1="111.0234" y2="111.0234"/><rect fill="#F24D5C" height="6" style="stroke:#C82930;stroke-width:1.0;" width="6" x="374" y="119.0234"/><text fill="#000000" font-family="sans-serif" font-size="11" lengthAdjust="spacing" textLength="95" x="386" y="125.2339">int: tickRate (ms)</text><ellipse cx="377" cy="134.8281" fill="#84BE84" rx="3" ry="3" style="stroke:#038048;stroke-width:1.0;"/><text fill="#000000" font-family="sans-serif" font-size="11" lengthAdjust="spacing" textLength="64" x="386" y="138.0386">addPlayer()</text><ellipse cx="377" cy="147.6328" fill="#84BE84" rx="3" ry="3" style="stroke:#038048;stroke-width:1.0;"/><text fill="#000000" font-family="sans-serif" font-size="11" lengthAdjust="spacing" textLength="86" x="386" y="150.8433">ready() -&gt; bool</text><ellipse cx="377" cy="160.4375" fill="#84BE84" rx="3" ry="3" style="stroke:#038048;stroke-width:1.0;"/><text fill="#000000" font-family="sans-serif" font-size="11" lengthAdjust="spacing" textLength="65" x="386" y="163.6479">endGame()</text><rect fill="#F24D5C" height="6" style="stroke:#C82930;stroke-width:1.0;" width="6" x="374" y="170.2422"/><text fill="#000000" font-family="sans-serif" font-size="11" lengthAdjust="spacing" textLength="138" x="386" y="176.4526">sendMessage(Message)</text><rect fill="#F24D5C" height="6" style="stroke:#C82930;stroke-width:1.0;" width="6" x="374" y="183.0469"/><text fill="#000000" font-family="sans-serif" font-size="11" lengthAdjust="spacing" textLength="114" x="386" y="189.2573">updateGameState()</text><ellipse cx="377" cy="198.8516" fill="#84BE84" rx="3" ry="3" style="stroke:#038048;stroke-width:1.0;"/><text fill="#000000" font-family="sans-serif" font-size="11" lengthAdjust="spacing" textLength="67" x="386" y="202.062">startSetup()</text><!--MD5=[5eb2ac03d0c371fca296cb0d00e756e3]
class GameMode--><rect codeLine="21" fill="#FEFECE" filter="url(#f1lixde3ynx90h)" height="86.4141" id="GameMode" style="stroke:#A80036;stroke-width:1.5;" width="106" x="565" y="65"/><ellipse cx="582.25" cy="81" fill="#ADD1B2" rx="11" ry="11" style="stroke:#A80036;stroke-width:1.0;"/><path d="M584.5938,76.6719 C583.6563,76.2344 583.0625,76.0938 582.1875,76.0938 C579.5625,76.0938 577.5625,78.1719 577.5625,80.8906 L577.5625,82.0156 C577.5625,84.5938 579.6719,86.4844 582.5625,86.4844 C583.7813,86.4844 584.9375,86.1875 585.6875,85.6406 C586.2656,85.2344 586.5938,84.7813 586.5938,84.3906 C586.5938,83.9375 586.2031,83.5469 585.7344,83.5469 C585.5156,83.5469 585.3125,83.625 585.125,83.8125 C584.6719,84.2969 584.6719,84.2969 584.4844,84.3906 C584.0625,84.6563 583.375,84.7813 582.6094,84.7813 C580.5625,84.7813 579.2656,83.6875 579.2656,81.9844 L579.2656,80.8906 C579.2656,79.1094 580.5156,77.7969 582.25,77.7969 C582.8281,77.7969 583.4375,77.9531 583.9063,78.2031 C584.3906,78.4844 584.5625,78.7031 584.6563,79.1094 C584.7188,79.5156 584.75,79.6406 584.8906,79.7656 C585.0313,79.9063 585.2656,80.0156 585.4844,80.0156 C585.75,80.0156 586.0156,79.875 586.1875,79.6563 C586.2969,79.5 586.3281,79.3125 586.3281,78.8906 L586.3281,77.4688 C586.3281,77.0313 586.3125,76.9063 586.2188,76.75 C586.0625,76.4844 585.7813,76.3438 585.4844,76.3438 C585.1875,76.3438 584.9844,76.4375 584.7656,76.75 L584.5938,76.6719 Z " fill="#000000"/><text fill="#000000" font-family="sans-serif" font-size="12" lengthAdjust="spacing" textLength="69" x="596.75" y="85.1543">GameMode</text><line style="stroke:#A80036;stroke-width:1.5;" x1="566" x2="670" y1="97" y2="97"/><line style="stroke:#A80036;stroke-width:1.5;" x1="566" x2="670" y1="105" y2="105"/><ellipse cx="576" cy="116" fill="#84BE84" rx="3" ry="3" style="stroke:#038048;stroke-width:1.0;"/><text fill="#000000" font-family="sans-serif" font-size="11" lengthAdjust="spacing" textLength="77" x="585" y="119.2104">gameEnded()</text><ellipse cx="576" cy="128.8047" fill="#84BE84" rx="3" ry="3" style="stroke:#038048;stroke-width:1.0;"/><text fill="#000000" font-family="sans-serif" font-size="11" lengthAdjust="spacing" textLength="80" x="585" y="132.0151">processInput()</text><ellipse cx="576" cy="141.6094" fill="#84BE84" rx="3" ry="3" style="stroke:#038048;stroke-width:1.0;"/><text fill="#000000" font-family="sans-serif" font-size="11" lengthAdjust="spacing" textLength="66" x="585" y="144.8198">getScores()</text><!--MD5=[2cb47ba637a0d19583e6199456f6ad0b]
class Player--><rect codeLine="26" fill="#FEFECE" filter="url(#f1lixde3ynx90h)" height="112.0234" id="Player" style="stroke:#A80036;stroke-width:1.5;" width="157" x="369.5" y="269"/><ellipse cx="425.75" cy="285" fill="#ADD1B2" rx="11" ry="11" style="stroke:#A80036;stroke-width:1.0;"/><path d="M428.0938,280.6719 C427.1563,280.2344 426.5625,280.0938 425.6875,280.0938 C423.0625,280.0938 421.0625,282.1719 421.0625,284.8906 L421.0625,286.0156 C421.0625,288.5938 423.1719,290.4844 426.0625,290.4844 C427.2813,290.4844 428.4375,290.1875 429.1875,289.6406 C429.7656,289.2344 430.0938,288.7813 430.0938,288.3906 C430.0938,287.9375 429.7031,287.5469 429.2344,287.5469 C429.0156,287.5469 428.8125,287.625 428.625,287.8125 C428.1719,288.2969 428.1719,288.2969 427.9844,288.3906 C427.5625,288.6563 426.875,288.7813 426.1094,288.7813 C424.0625,288.7813 422.7656,287.6875 422.7656,285.9844 L422.7656,284.8906 C422.7656,283.1094 424.0156,281.7969 425.75,281.7969 C426.3281,281.7969 426.9375,281.9531 427.4063,282.2031 C427.8906,282.4844 428.0625,282.7031 428.1563,283.1094 C428.2188,283.5156 428.25,283.6406 428.3906,283.7656 C428.5313,283.9063 428.7656,284.0156 428.9844,284.0156 C429.25,284.0156 429.5156,283.875 429.6875,283.6563 C429.7969,283.5 429.8281,283.3125 429.8281,282.8906 L429.8281,281.4688 C429.8281,281.0313 429.8125,280.9063 429.7188,280.75 C429.5625,280.4844 429.2813,280.3438 428.9844,280.3438 C428.6875,280.3438 428.4844,280.4375 428.2656,280.75 L428.0938,280.6719 Z " fill="#000000"/><text fill="#000000" font-family="sans-serif" font-size="12" lengthAdjust="spacing" textLength="36" x="446.25" y="289.1543">Player</text><line style="stroke:#A80036;stroke-width:1.5;" x1="370.5" x2="525.5" y1="301" y2="301"/><rect fill="none" height="6" style="stroke:#C82930;stroke-width:1.0;" width="6" x="377.5" y="309"/><text fill="#000000" font-family="sans-serif" font-size="11" lengthAdjust="spacing" textLength="39" x="389.5" y="315.2104">Socket</text><rect fill="none" height="6" style="stroke:#C82930;stroke-width:1.0;" width="6" x="377.5" y="321.8047"/><text fill="#000000" font-family="sans-serif" font-size="11" lengthAdjust="spacing" textLength="70" x="389.5" y="328.0151">InputStream</text><rect fill="none" height="6" style="stroke:#C82930;stroke-width:1.0;" width="6" x="377.5" y="334.6094"/><text fill="#000000" font-family="sans-serif" font-size="11" lengthAdjust="spacing" textLength="80" x="389.5" y="340.8198">OutputStream</text><rect fill="none" height="6" style="stroke:#C82930;stroke-width:1.0;" width="6" x="377.5" y="347.4141"/><text fill="#000000" font-family="sans-serif" font-size="11" lengthAdjust="spacing" textLength="33" x="389.5" y="353.6245">name</text><rect fill="none" height="6" style="stroke:#C82930;stroke-width:1.0;" width="6" x="377.5" y="360.2188"/><text fill="#000000" font-family="sans-serif" font-size="11" lengthAdjust="spacing" textLength="131" x="389.5" y="366.4292">imageLoaded: boolean</text><line style="stroke:#A80036;stroke-width:1.5;" x1="370.5" x2="525.5" y1="373.0234" y2="373.0234"/><path d="M6,75.5 L6,130.8984 A0,0 0 0 0 6,130.8984 L176,130.8984 A0,0 0 0 0 176,130.8984 L176,107.1992 L215,134.207 L176,99.1992 L176,85.5 L166,75.5 L6,75.5 A0,0 0 0 0 6,75.5 " fill="#FBFB77" filter="url(#f1lixde3ynx90h)" style="stroke:#A80036;stroke-width:1.0;"/><path d="M166,75.5 L166,85.5 L176,85.5 L166,75.5 " fill="#FBFB77" style="stroke:#A80036;stroke-width:1.0;"/><text fill="#000000" font-family="sans-serif" font-size="13" lengthAdjust="spacing" textLength="96" x="12" y="92.5669">start accepting</text><text fill="#000000" font-family="sans-serif" font-size="13" lengthAdjust="spacing" textLength="105" x="16" y="107.6997">connections and</text><text fill="#000000" font-family="sans-serif" font-size="13" lengthAdjust="spacing" textLength="145" x="16" y="122.8325">making Room Threads</text><!--MD5=[3acbdececb1ec70f911e358bc38447e9]
link Server$$$LEFT to Server--><!--MD5=[60f26df19b36a728ef2790d0008fd3a7]
link Room to GameMode--><!--MD5=[6aadc770a48a2543e5e78d20fe2ed6b7]
link Room to Player--><!--MD5=[b6481b240d2e7d40e64989a1d25e2264]
@startuml
class Server {
    - ArrayList: Rooms
    + listen()
}
class Room {
    - imageHash: String
    - ArrayList: Players
    - Map<Players, Score>
    - GameMode: mode
    - int: tickRate (ms)
    - int: curTick or tick
    
    + addPlayer()
    + ready() -> bool
    + endGame()
    - sendMessage(Message)
    - updateGameState()
    + startSetup() 
    
}
class GameMode{
    + gameEnded()
    + processInput()
    + getScores()
}
class Player{
    - Socket
    - InputStream
    - OutputStream
    - name
    - imageLoaded: boolean
}
note left of Server::listen()
 start accepting
  connections and 
  making Room Threads
end note
@enduml

PlantUML version 1.2021.9beta2(Unknown compile time)
(GPL source distribution)
Java Runtime: Java(TM) SE Runtime Environment
JVM: Java HotSpot(TM) 64-Bit Server VM
Default Encoding: UTF-8
Language: en
Country: US
--></g></svg>