<?xml version="1.0" encoding="UTF-8" standalone="no"?><svg xmlns="http://www.w3.org/2000/svg" xmlns:xlink="http://www.w3.org/1999/xlink" contentScriptType="application/ecmascript" contentStyleType="text/css" height="273px" preserveAspectRatio="none" style="width:574px;height:273px;background:#FFFFFF;" version="1.1" viewBox="0 0 574 273" width="574px" zoomAndPan="magnify"><defs><filter height="300%" id="f1loywvm19bffw" width="300%" x="-1" y="-1"><feGaussianBlur result="blurOut" stdDeviation="2.0"/><feColorMatrix in="blurOut" result="blurOut2" type="matrix" values="0 0 0 0 0 0 0 0 0 0 0 0 0 0 0 0 0 0 .4 0"/><feOffset dx="4.0" dy="4.0" in="blurOut2" result="blurOut3"/><feBlend in="SourceGraphic" in2="blurOut3" mode="normal"/></filter></defs><g><rect fill="#FEFECE" filter="url(#f1loywvm19bffw)" height="33.9688" rx="12.5" ry="12.5" style="stroke:#A80036;stroke-width:1.5;" width="92" x="231" y="11"/><text fill="#000000" font-family="sans-serif" font-size="12" lengthAdjust="spacing" textLength="72" x="241" y="32.1387">Order Class</text><line style="stroke:#A80036;stroke-width:1.5;" x1="116" x2="394.75" y1="64.9688" y2="64.9688"/><rect fill="#FEFECE" filter="url(#f1loywvm19bffw)" height="33.9688" rx="12.5" ry="12.5" style="stroke:#A80036;stroke-width:1.5;" width="201" x="15.5" y="84.9688"/><text fill="#000000" font-family="sans-serif" font-size="12" lengthAdjust="spacing" textLength="181" x="25.5" y="106.1074">Order(&lt;type of value&gt; value)</text><rect fill="#FEFECE" filter="url(#f1loywvm19bffw)" height="33.9688" rx="12.5" ry="12.5" style="stroke:#A80036;stroke-width:1.5;" width="97" x="67.5" y="153.4219"/><text fill="#000000" font-family="sans-serif" font-size="12" lengthAdjust="spacing" textLength="77" x="77.5" y="174.5605">super(value)</text><rect fill="#FEFECE" filter="url(#f1loywvm19bffw)" height="33.9688" rx="12.5" ry="12.5" style="stroke:#A80036;stroke-width:1.5;" width="210" x="11" y="222.3906"/><text fill="#000000" font-family="sans-serif" font-size="12" lengthAdjust="spacing" textLength="190" x="21" y="243.5293">super will set value in value var</text><rect fill="#FEFECE" filter="url(#f1loywvm19bffw)" height="33.9688" rx="12.5" ry="12.5" style="stroke:#A80036;stroke-width:1.5;" width="92" x="348.75" y="99.4531"/><text fill="#000000" font-family="sans-serif" font-size="12" lengthAdjust="spacing" textLength="72" x="358.75" y="120.5918">equals(that)</text><polygon fill="#FEFECE" filter="url(#f1loywvm19bffw)" points="298.75,167.9063,490.75,167.9063,502.75,179.9063,490.75,191.9063,298.75,191.9063,286.75,179.9063,298.75,167.9063" style="stroke:#A80036;stroke-width:1.5;"/><text fill="#000000" font-family="sans-serif" font-size="11" lengthAdjust="spacing" textLength="192" x="298.75" y="183.7144">this.getValue()==that.getValue()?</text><text fill="#000000" font-family="sans-serif" font-size="11" lengthAdjust="spacing" textLength="21" x="265.75" y="177.312">yes</text><text fill="#000000" font-family="sans-serif" font-size="11" lengthAdjust="spacing" textLength="28" x="502.75" y="177.312">false</text><rect fill="#FEFECE" filter="url(#f1loywvm19bffw)" height="33.9688" rx="12.5" ry="12.5" style="stroke:#A80036;stroke-width:1.5;" width="84" x="234.75" y="201.9063"/><text fill="#000000" font-family="sans-serif" font-size="12" lengthAdjust="spacing" textLength="64" x="244.75" y="223.0449">return true</text><rect fill="#FEFECE" filter="url(#f1loywvm19bffw)" height="33.9688" rx="12.5" ry="12.5" style="stroke:#A80036;stroke-width:1.5;" width="89" x="468.25" y="201.9063"/><text fill="#000000" font-family="sans-serif" font-size="12" lengthAdjust="spacing" textLength="69" x="478.25" y="223.0449">return false</text><line style="stroke:#A80036;stroke-width:1.5;" x1="116" x2="116" y1="118.9375" y2="153.4219"/><polygon fill="#A80036" points="112,143.4219,116,153.4219,120,143.4219,116,147.4219" style="stroke:#A80036;stroke-width:1.0;"/><line style="stroke:#A80036;stroke-width:1.5;" x1="116" x2="116" y1="187.3906" y2="222.3906"/><polygon fill="#A80036" points="112,212.3906,116,222.3906,120,212.3906,116,216.3906" style="stroke:#A80036;stroke-width:1.0;"/><line style="stroke:#A80036;stroke-width:1.5;" x1="286.75" x2="276.75" y1="179.9063" y2="179.9063"/><line style="stroke:#A80036;stroke-width:1.5;" x1="276.75" x2="276.75" y1="179.9063" y2="201.9063"/><polygon fill="#A80036" points="272.75,191.9063,276.75,201.9063,280.75,191.9063,276.75,195.9063" style="stroke:#A80036;stroke-width:1.0;"/><line style="stroke:#A80036;stroke-width:1.5;" x1="502.75" x2="512.75" y1="179.9063" y2="179.9063"/><line style="stroke:#A80036;stroke-width:1.5;" x1="512.75" x2="512.75" y1="179.9063" y2="201.9063"/><polygon fill="#A80036" points="508.75,191.9063,512.75,201.9063,516.75,191.9063,512.75,195.9063" style="stroke:#A80036;stroke-width:1.0;"/><line style="stroke:#A80036;stroke-width:1.5;" x1="394.75" x2="394.75" y1="133.4219" y2="167.9063"/><polygon fill="#A80036" points="390.75,157.9063,394.75,167.9063,398.75,157.9063,394.75,161.9063" style="stroke:#A80036;stroke-width:1.0;"/><line style="stroke:#A80036;stroke-width:1.5;" x1="116" x2="116" y1="66.4688" y2="84.9688"/><polygon fill="#A80036" points="112,74.9688,116,84.9688,120,74.9688,116,78.9688" style="stroke:#A80036;stroke-width:1.0;"/><line style="stroke:#A80036;stroke-width:1.5;" x1="394.75" x2="394.75" y1="66.4688" y2="99.4531"/><polygon fill="#A80036" points="390.75,89.4531,394.75,99.4531,398.75,89.4531,394.75,93.4531" style="stroke:#A80036;stroke-width:1.0;"/><line style="stroke:#A80036;stroke-width:1.5;" x1="277" x2="277" y1="44.9688" y2="64.9688"/><polygon fill="#A80036" points="273,54.9688,277,64.9688,281,54.9688,277,58.9688" style="stroke:#A80036;stroke-width:1.0;"/><!--MD5=[7cf356db1c437ecbc95312a5a9fe9f67]
@startuml
' :ServerPacket;
' split
'     :ServerPacket(byte packetType, byte orderType,Order<?> orderValue);
'     :set variables;
' split again
    
' end split
:Order Class;
split
    :Order(<type of value> value);
    :super(value);
    :super will set value in value var;
    detach
split again
    :equals(that);
    if (this.getValue()==that.getValue()?) then (yes)
        :return true;
    else (false)
        :return false;
    endif
    detach
end split
@enduml

@startuml
    
:Order Class;
split
    :Order(<type of value> value);
    :super(value);
    :super will set value in value var;
    detach
split again
    :equals(that);
    if (this.getValue()==that.getValue()?) then (yes)
        :return true;
    else (false)
        :return false;
    endif
    detach
end split
@enduml

PlantUML version 1.2021.9beta2(Unknown compile time)
(GPL source distribution)
Java Runtime: Java(TM) SE Runtime Environment
JVM: Java HotSpot(TM) 64-Bit Server VM
Default Encoding: UTF-8
Language: en
Country: US
--></g></svg>